{
.formatVersion = 3;
DisplayStrings = (
"ę˛",
"řˇ",
")"
);
classes = (
{
code = "six nine A B C D E F G H I J K L M N O P Q S T V W X Y Z";
name = aalt;
},
{
code = "six.alt1 nine.alt1 A.alt1 B.alt1 C.alt1 D.alt1 E.alt1 F.alt1 G.alt1 H.alt1 I.alt1 J.alt1 K.alt1 L.alt1 M.alt1 N.alt1 O.alt1 P.alt1 Q.alt1 S.alt1 T.alt1 V.alt1 W.alt1 X.alt1 Y.alt1 Z.alt1";
name = aalt2;
}
);
familyName = Oceane;
customParameters = (
{
name = glyphOrder;
value = (
.notdef,
.null,
controlCR,
space,
exclam,
quotedbl,
numbersign,
dollar,
percent,
ampersand,
quotesingle,
parenleft,
parenright,
asterisk,
plus,
comma,
hyphen,
period,
slash,
zero,
one,
two,
three,
four,
five,
six,
seven,
eight,
nine,
colon,
semicolon,
less,
equal,
greater,
question,
at,
A,
B,
C,
D,
E,
F,
G,
H,
I,
J,
K,
L,
M,
N,
O,
P,
Q,
R,
S,
T,
U.alt1,
V,
W,
X,
Y,
Z,
bracketleft,
backslash,
bracketright,
asciicircum,
underscore,
grave,
a,
b,
c,
d,
e,
f,
g,
h,
i,
j,
k,
l,
m,
n,
o,
p,
q,
r,
s,
t,
u,
v,
w,
x,
y,
z,
braceleft,
verticalbar,
braceright,
asciitilde,
nonbreakingspace,
exclamdown,
cent,
sterling,
currency,
yen,
section,
dieresis,
copyright,
guillemotleft,
softhyphen,
registered,
degree,
plusminus,
twosuperior,
threesuperior,
acute,
paragraph,
cedilla,
onesuperior,
guillemotright,
questiondown,
Agrave,
Aacute,
Acircumflex,
Atilde,
Adieresis,
Aring,
AE,
Ccedilla,
Egrave,
Eacute,
Ecircumflex,
Edieresis,
Igrave,
Iacute,
Icircumflex,
Idieresis,
Eth,
Ntilde,
Ograve,
Oacute,
Ocircumflex,
Otilde,
Odieresis,
multiply,
Oslash,
Ugrave,
Uacute,
Ucircumflex,
Udieresis,
Yacute,
Thorn,
germandbls,
agrave,
aacute,
acircumflex,
atilde,
adieresis,
aring,
ae,
ccedilla,
egrave,
eacute,
ecircumflex,
edieresis,
igrave,
iacute,
icircumflex,
idieresis,
eth,
ntilde,
ograve,
oacute,
ocircumflex,
otilde,
odieresis,
divide,
oslash,
ugrave,
uacute,
ucircumflex,
udieresis,
yacute,
thorn,
ydieresis,
dotlessi,
Lslash,
lslash,
OE,
oe,
Scaron,
scaron,
Ydieresis,
Zcaron,
zcaron,
circumflex,
caron,
ilde,
endash,
emdash,
quoteleft,
quotesinglbase,

glyphs = (
{
glyphname = .notdef;
layers = (
{
hints = (
{
origin = (0,0);
target = (2,2);
type = Stem;
},
{
origin = (4,1);
target = (0,3);
type = Stem;
},
{
horizontal = 1;
origin = (0,1);
target = (3,2);
type = Stem;
},
{
horizontal = 1;
origin = (1,0);
target = (0,0);
type = Stem;
}
);
layerId = "C858EFCA-0EF1-49E8-8937-16326EFE75E3";
shapes = (
{
closed = 1;
nodes = (
(50,700,l),
(50,0,l),
(477,0,l),
(477,700,l)
);
},
{
closed = 1;
nodes = (
(77.982,679,l),
(448.021,679,l),
(262.503,370.469,l)
);
},
{
closed = 1;
nodes = (
(250.534,349.501,l),
(71,48.958,l),
(71,649.046,l)
);
},
{
closed = 1;
nodes = (
(263.5,328.533,l),
(448.021,21,l),
(78.979,21,l)
);
},
{
closed = 1;
nodes = (
(275.469,349.501,l),
(456,651.042,l),
(456,46.961,l)
);
}
);
width = 527;
}
);
},
{
glyphname = exclam;
layers = (
{
hints = (
{
origin = (0,2);
target = (0,8);
type = Stem;
},
{
origin = (1,3);
target = (1,0);
type = Stem;
},
{
horizontal = 1;
origin = (0,5);
target = (0,11);
type = Stem;
},
{
horizontal = 1;
origin = (1,0);
target = down;
type = TopGhost;
}
);
layerId = "C858EFCA-0EF1-49E8-8937-16326EFE75E3";
shapes = (
{
closed = 1;
nodes = (
(86.432,59.994,o),
(73,46.562,o),
(73,29.997,cs),
(73,13.432,o),
(86.432,0,o),
(102.997,0,cs),
(119.562,0,o),
(132.994,13.432,o),
(132.994,29.997,cs),
(132.994,46.562,o),
(119.562,59.994,o),
(102.997,59.994,cs)
);
},
{
closed = 1;
nodes = (
(117.093,640.396,l),
(101.516,640.396,o),
(88.873,627.768,o),
(88.873,612.177,cs),
(88.873,160.441,l),
(104.45,160.441,o),
(117.093,173.083,o),
(117.093,188.66,c)
);
}
);
width = 206;
}
);
unicode = 33;
},
{
glyphname = quotedbl;
layers = (
{
hints = (
{
origin = (0,7);
target = (0,4);
type = Stem;
},
{
origin = (1,7);
target = (1,4);
type = Stem;
},
{
horizontal = 1;
origin = (0,4);
target = down;
type = TopGhost;
}
);
layerId = "C858EFCA-0EF1-49E8-8937-16326EFE75E3";
shapes = (
{
closed = 1;
nodes = (
(57,480,l),
(72.58,480,o),
(85.22,492.64,o),
(85.22,508.22,cs),
(85.22,645.56,l),
(69.64,645.56,o),
(57,632.93,o),
(57,617.34,cs)
);
},
{
closed = 1;
nodes = (
(188.76,480,l),
(204.33,480,o),
(216.98,492.64,o),
(216.98,508.22,cs),
(216.98,645.56,l),
(201.4,645.56,o),
(188.76,632.93,o),
(188.76,617.34,cs)
);
}
);
width = 273;
}
);
leftKerningGroup = quotedbl;
unicode = 34;
},
{
glyphname = numbersign;
layers = (
{
hints = (
{
horizontal = 1;
origin = (0,31);
target = (0,42);
type = Stem;
},
{
horizontal = 1;
origin = (0,19);
target = (0,16);
type = Stem;
}
);
layerId = "C858EFCA-0EF1-49E8-8937-16326EFE75E3";
shapes = (
{
closed = 1;
nodes = (
(494.874,382.817,l),
(510.451,382.817,o),
(523.094,395.446,o),
(523.094,411.037,c),
(447.762,411.037,l),
(521.556,632.474,l),
(506.783,637.398,o),
(490.811,629.412,o),
(485.872,614.639,cs),
(418.019,411.051,l),
(234.48,411.051,l),
(308.274,632.474,l),
(293.501,637.398,o),
(277.529,629.412,o),
(272.59,614.639,cs),
(204.737,411.051,l),
(123.141,411.051,ls),
(107.564,411.051,o),
(94.921,398.409,o),
(94.921,382.832,c),
(195.34,382.832,l),
(155.932,264.592,l),
(96.219,264.494,l),
(80.642,264.494,o),
(68,251.851,o),
(68,236.274,c),
(146.534,236.415,l),
(68.24,1.461,l),
(83.013,-3.477,o),
(99.,4.522,o),
(103.923,19.296,cs),
(176.292,236.458,l),
(359.943,236.782,l),
(281.508,1.461,l),
(296.28,-3.477,o),
(312.267,4.509,o),
(317.191,19.296,cs),
(389.701,236.839,l),
(480.764,236.994,l),
(496.342,236.994,o),
(508.984,249.622,o),
(508.984,265.213,c),
(399.084,265.016,l),
(438.351,382.817,l)
);
},
{
closed = 1;
nodes = (
(369.34,264.959,l),
(185.689,264.635,l),
(225.083,382.817,l),
(408.622,382.817,l)
);
}
);
width = 592;
}
);
unicode = 35;
},
{
glyphname = dollar;
layers = (
{
hints = (
{
origin = (0,39);
target = (1,9);
type = Stem;
},
{
origin = (1,5);
target = (0,0);
type = Stem;
},
{
origin = (2,6);
target = (0,9);
type = Stem;
},
{
horizontal = 1;
origin = (0,50);
target = (0,30);
type = Stem;
},
{
horizontal = 1;
origin = (2,3);
target = (0,59);
type = Stem;
},
{
horizontal = 1;
origin = (0,29);
target = (1,6);
type = Stem;
},
{
horizontal = 1;
origin = (0,0);
target = (0,15);
type = Stem;
},
{
horizontal = 1;
origin = (0,16);
target = down;
type = TopGhost;
},
{
horizontal = 1;
origin = (0,46);
target = up;
type = BottomGhost;
}
);
layerId = "C858EFCA-0EF1-49E8-8937-16326EFE75E3";
shapes = (
{
closed = 1;
nodes = (
(312.02,560.83,l),
(362.1,559.62,o),
(410.99,549.02,o),
(446.15,528.68,cs),
(470.53,514.58,o),
(486.15,497.34,o),
(492.85,477.22,cs),
(497.52,463.19,o),
(510.04,453.36,o),
(524.82,453.33,c),
(524.89,494.15,o),
(502.59,528.65,o),
(460.29,553.11,cs),
(420.75,575.97,o),
(366.95,587.85,o),
(312.02,589.11,c),
(312.02,639.82,l),
(296.44,639.82,o),
(283.8,627.18,o),
(283.8,611.6,cs),
(283.8,588.84,l),
(230.19,586.47,o),
(177.58,573.98,o),
(138.18,551.21,cs),
(94.15,525.77,o),
(70.93,490.3,o),
(71.03,447.7,c),
(78.13,343.71,o),
(180.87,324.86,o),
(283.79,309.57,c),
(283.79,78.94,l),
(233.81,79.96,o),
(185.02,90.4,o),
(150.04,110.61,cs),
(125.34,124.88,o),
(109.53,142.47,o),
(102.86,163.07,cs),
(98.33,177.1,o),
(85.74,186.91,o),
(71,186.94,c),
(70.94,145.6,o),
(93.39,110.76,o),
(135.93,86.17,cs),
(175.27,63.44,o),
(228.96,51.71,o),
(283.79,50.65,c),
(283.79,0,l),
(299.37,0,o),
(312.01,12.63,o),
(312.01,28.22,cs),
(312.01,50.99,l),
(365.1,53.55,o),
(417.18,66.12,o),
(456.31,88.74,cs),
(501.18,114.67,o),
(524.87,150.87,o),
(524.78,194.32,c),
(517.97,299.14,o),
(411.03,319.12,o),
(312.02,333.89,c)
);
},
{
closed = 1;
nodes = (
(99.16,480.12,o),
(117.03,506.38,o),
(152.3,526.77,cs),
(187.33,547.03,o),
(235.03,558.25,o),
(283.8,560.56,c),
(283.8,338.1,l),
(189.82,352.16,o),
(104.71,368.84,o),
(99.22,448.69,c)
);
},
{
closed = 1;
nodes = (
(407.42,93.07,o),
(360.26,81.81,o),
(312.02,79.34,c),
(312.02,305.39,l),
(406.23,291.25,o),
(491.31,274.26,o),
(496.6,193.4,c),
(496.65,161.06,o),
(478.35,134.08,o),
(442.2,113.17,cs)
);
}
);
width = 596;
}
);
unicode = 36;
},
{
glyphname = percent;
layers = (
{
hints = (
{
origin = (0,8);
target = (1,8);
type = Stem;
},
{
origin = (1,2);
target = (0,2);
type = Stem;
},
{
origin = (2,2);
target = (3,2);
type = Stem;
},
{
origin = (3,8);
target = (2,8);
type = Stem;
},
{
horizontal = 1;
origin = (2,5);
target = (3,11);
type = Stem;
},
{
horizontal = 1;
origin = (3,5);
target = (2,11);
type = Stem;
},
{
horizontal = 1;
origin = (0,11);
target = (1,5);
type = Stem;
},
{
horizontal = 1;
origin = (1,11);
target = (0,5);
type = Stem;
}
);
layerId = "C858EFCA-0EF1-49E8-8937-16326EFE75E3";
shapes = (
{
closed = 1;
nodes = (
(197.225,489.497,o),
(233.036,525.315,o),
(233.036,569.492,cs),
(233.036,613.67,o),
(197.225,649.494,o),
(153.048,649.494,cs),
(108.871,649.494,o),
(73.046,613.684,o),
(73.046,569.506,cs),
(73.046,525.329,o),
(108.856,489.512,o),
(153.048,489.504,cs)
);
},
{
closed = 1;
nodes = (
(181.592,621.275,o),
(204.816,598.05,o),
(204.816,569.506,cs),
(204.816,540.962,o),
(181.592,517.738,o),
(153.048,517.738,cs),
(124.504,517.738,o),
(101.28,540.962,o),
(101.28,569.506,cs),
(101.28,598.05,o),
(124.504,621.275,o),
(153.048,621.275,cs)
);
},
{
closed = 1;
nodes = (
(588.825,168.918,o),
(553.015,133.108,o),
(553.015,88.931,cs),
(553.015,44.753,o),
(588.825,8.943,o),
(633.003,8.943,cs),
(677.18,8.943,o),
(712.991,44.753,o),
(712.991,88.931,cs),
(712.991,133.108,o),
(677.18,168.918,o),
(633.003,168.918,cs)
);
},
{
closed = 1;
nodes = (
(604.459,37.148,o),
(581.234,60.373,o),
(581.234,88.917,cs),
(581.234,117.461,o),
(604.459,140.685,o),
(633.003,140.685,cs),
(661.547,140.685,o),
(684.771,117.46,o),
(684.771,88.917,cs),
(684.771,60.373,o),
(661.547,37.148,o),
(633.003,37.148,cs)
);
},
{
closed = 1;
nodes = (
(63,8.096,l),
(74.104,-2.825,o),
(91.967,-2.683,o),
(102.888,8.435,cs),
(723.051,639.533,l),
(711.946,650.454,o),
(694.083,650.312,o),
(683.163,639.194,cs)
);
}
);
width = 785;
}
);
unicode = 37;
},
{
glyphname = ampersand;
layers = (
{
hints = (
{
origin = (0,36);
target = (1,2);
type = Stem;
},
{
origin = (0,30);
target = (0,33);
type = Stem;
},
{
origin = (0,15);
target = (0,24);
type = Stem;
},
{
horizontal = 1;
origin = (0,39);
target = (1,9);
type = Stem;
},
{
horizontal = 1;
origin = (0,12);
target = (0,27);
type = Stem;
}
);
layerId = "C858EFCA-0EF1-49E8-8937-16326EFE75E3";
shapes = (
{
closed = 1;
nodes = (
(491.652,218.724,o),
(478.685,207.845,o),
(476.667,193.03,cs),
(471.517,155.146,o),
(455.122,120.774,o),
(430.98,93.416,c),
(181.225,392.922,ls),
(161.697,417.515,o),
(151.369,447.018,o),
(151.369,478.285,c),
(151.355,556.227,o),
(216.569,619.223,o),
(295.302,615.587,cs),
(371.437,612.07,o),
(431.572,543.74,o),
(425.858,467.746,cs),
(424.419,448.599,o),
(419.043,430.27,o),
(410.013,413.522,cs),
(403.043,400.598,o),
(406.966,384.456,o),
(418.479,375.313,c),
(442.028,404.943,o),
(454.473,440.528,o),
(454.473,478.271,c),
(454.487,572.82,o),
(374.894,649.137,o),
(279.188,643.693,cs),
(188.603,638.541,o),
(117.593,557.794,o),
(123.502,467.252,cs),
(125.395,438.242,o),
(134.79,410.771,o),
(150.96,386.615,c),
(100.828,345.358,o),
(71,283.798,o),
(71,218.738,cs),
(71,98.636,o),
(168.71,0.927,o),
(288.825,0.927,cs),
(342.061,0.927,o),
(390.923,20.13,o),
(428.807,51.976,c),
(463.701,10.141,ls),
(473.69,-1.824,o),
(491.468,-3.433,o),
(503.433,6.557,c),
(449.238,71.546,l),
(484.851,110.333,o),
(506.622,162.045,o),
(506.622,218.724,c)
);
},
{
closed = 1;
nodes = (
(184.272,29.122,o),
(99.205,114.171,o),
(99.205,218.724,cs),
(99.205,275.106,o),
(124.715,328.723,o),
(168.046,364.632,c),
(410.719,73.648,l),
(377.73,45.88,o),
(335.175,29.136,o),
(288.811,29.132,cs)
);
}
);
width = 576;
}
);
unicode = 38;
},
{
glyphname = quotesingle;
layers = (
{
layerId = "C858EFCA-0EF1-49E8-8937-16326EFE75E3";
shapes = (
{
closed = 1;
nodes = (
(47,543.782,l),
(60.503,535.993,o),
(77.759,540.621,o),
(85.548,554.11,cs),
(131.39,633.534,l),
(117.887,641.322,o),
(100.631,636.694,o),
(92.842,623.191,cs)
);
}
);
width = 178;
}
);
unicode = 39;
},
{
glyphname = parenleft;
layers = (
{
layerId = "C858EFCA-0EF1-49E8-8937-16326EFE75E3";
shapes = (
{
closed = 1;
nodes = (
(58.181,179.197,o),
(58.181,456.777,o),
(229.374,627.984,c),
(218.213,639.145,o),
(199.913,638.524,o),
(189.458,626.686,cs),
(34.181,450.879,o),
(34.181,185.081,o),
(189.458,9.289,cs),
(199.899,-2.549,o),
(218.213,-3.17,o),
(229.374,7.99,c)
);
}
);
width = 295;
}
);
unicode = 40;
},
{
glyphname = parenright;
layers = (
{
layerId = "C858EFCA-0EF1-49E8-8937-16326EFE75E3";
shapes = (
{
closed = 1;
nodes = (
(236.207,456.777,o),
(236.207,179.197,o),
(65,7.991,c),
(76.161,-3.17,o),
(94.461,-2.549,o),
(104.916,9.289,cs),
(260.193,185.095,o),
(260.193,450.893,o),
(104.916,626.686,cs),
(94.475,638.524,o),
(76.161,639.145,o),
(65,627.984,c)
);
}
);
width = 295;
}
);
unicode = 41;
},
{
glyphname = asterisk;
layers = (
{
hints = (
{
origin = (0,4);
target = (0,1);
type = Stem;
},
{
horizontal = 1;
origin = (0,1);
target = down;
type = TopGhost;
}
);
layerId = "C858EFCA-0EF1-49E8-8937-16326EFE75E3";
shapes = (
{
closed = 1;
nodes = (
(162.62,579.29,l),
(162.49,662.91,l),
(146.9,662.89,o),
(134.285,650.23,o),
(134.31,634.64,cs),
(134.4,579.26,l),
(54.16,602.86,l),
(49.75,587.92,o),
(58.3,572.23,o),
(73.26,567.84,cs),
(125.47,552.49,l),
(77.42,485.26,l),
(90.11,476.2,o),
(107.72,479.14,o),
(116.78,491.82,cs),
(148.47,536.17,l),
(180.16,491.82,ls),
(189.21,479.15,o),
(206.84,476.21,o),
(219.51,485.26,c),
(171.46,552.49,l),
(223.66,567.84,ls),
(238.6,572.25,o),
(247.15,587.92,o),
(242.77,602.86,c)
);
}
);
width = 297;
}
);
unicode = 42;
},
{
glyphname = plus;
layers = (
{
hints = (
{
origin = (0,4);
target = (0,1);
type = Stem;
},
{
horizontal = 1;
origin = (0,15);
target = (0,0);
type = Stem;
},
{
horizontal = 1;
origin = (0,1);
target = down;
type = TopGhost;
},
{
horizontal = 1;
origin = (0,11);
target = up;
type = BottomGhost;
}
);
layerId = "C858EFCA-0EF1-49E8-8937-16326EFE75E3";
shapes = (
{
closed = 1;
nodes = (
(188.1,299.1,l),
(188.1,404.98,l),
(172.51,404.98,o),
(159.88,392.35,o),
(159.88,376.76,cs),
(159.88,299.1,l),
(82.22,299.1,ls),
(66.63,299.1,o),
(54,286.47,o),
(54,270.88,c),
(159.88,270.88,l),
(159.88,165,l),
(175.47,165,o),
(188.1,177.64,o),
(188.1,193.22,cs),
(188.1,270.88,l),
(265.76,270.88,ls),
(281.35,270.88,o),
(293.98,283.52,o),
(293.98,299.1,c)
);
}
);
width = 348;
}
);
unicode = 43;
},
{
glyphname = comma;
layers = (
{
layerId = "C858EFCA-0EF1-49E8-8937-16326EFE75E3";
shapes = (
{
closed = 1;
nodes = (
(65.37,44.74,l),
(-2,-90.01,l),
(11.94,-96.98,o),
(28.89,-91.34,o),
(35.87,-77.38,cs),
(103.24,57.35,l),
(89.3,64.32,o),
(72.36,58.68,o),
(65.37,44.72,c)
);
}
);
width = 146;
}
);
leftKerningGroup = comma2;
rightKerningGroup = comma;
unicode = 44;
},
{
glyphname = hyphen;
layers = (
{
hints = (
{
horizontal = 1;
origin = (0,3);
target = (0,0);
type = Stem;
}
);
layerId = "C858EFCA-0EF1-49E8-8937-16326EFE75E3";
shapes = (
{
closed = 1;
nodes = (
(63.22,298.22,ls),
(47.64,298.22,o),
(35,285.59,o),
(35,270,c),
(166.77,270,ls),
(182.35,270,o),
(194.99,282.64,o),
(194.99,298.22,c)
);
}
);
width = 230;
}
);
unicode = 45;
},
{
glyphname = period;
layers = (
{
hints = (
{
origin = (0,8);
target = (0,2);
type = Stem;
},
{
horizontal = 1;
origin = (0,11);
target = (0,5);
type = Stem;
}
);
layerId = "C858EFCA-0EF1-49E8-8937-16326EFE75E3";
shapes = (
{
closed = 1;
nodes = (
(89.564,0,o),
(102.994,13.43,o),
(102.994,29.997,cs),
(102.994,46.564,o),
(89.564,59.994,o),
(72.997,59.994,cs),
(56.43,59.994,o),
(43,46.564,o),
(43,29.997,cs),
(43,13.43,o),
(56.43,0,o),
(72.997,0,cs)
);
}
);
width = 146;
}
);
leftKerningGroup = period;
rightKerningGroup = comma;
unicode = 46;
},
{
glyphname = slash;
layers = (
{
layerId = "C858EFCA-0EF1-49E8-8937-16326EFE75E3";
shapes = (
{
closed = 1;
nodes = (
(64,0.85,l),
(79.126,-2.931,o),
(94.435,6.268,o),
(98.216,21.38,cs),
(251.362,633.937,l),
(236.237,637.719,o),
(220.914,628.519,o),
(217.132,613.408,cs)
);
}
);
width = 316;
}
);
unicode = 47;
},
{
glyphname = zero;
layers = (
{
hints = (
{
origin = (1,11);
target = (0,8);
type = Stem;
},
{
origin = (0,2);
target = (1,5);
type = Stem;
},
{
horizontal = 1;
origin = (1,2);
target = (0,5);
type = Stem;
},
{
horizontal = 1;
origin = (0,11);
target = (1,8);
type = Stem;
}
);
layerId = "C858EFCA-0EF1-49E8-8937-16326EFE75E3";
shapes = (
{
closed = 1;
nodes = (
(387.365,611.711,o),
(470.401,480.83,o),
(470.401,319.965,cs),
(470.401,159.101,o),
(387.365,28.219,o),
(285.31,28.219,cs),
(183.255,28.219,o),
(100.219,159.087,o),
(100.219,319.965,cs),
(100.219,480.844,o),
(183.255,611.711,o),
(285.31,611.711,cs)
);
},
{
closed = 1;
nodes = (
(72,143.256,o),
(167.508,0,o),
(285.31,0,cs),
(403.112,0,o),
(498.62,143.256,o),
(498.62,319.965,cs),
(498.62,496.675,o),
(403.126,639.93,o),
(285.31,639.93,cs),
(167.508,639.93,o),
(72,496.675,o),
(72,319.965,c)
);
}
);
width = 571;
}
);
unicode = 48;
},
{
glyphname = one;
layers = (
{
hints = (
{
origin = (0,7);
target = (0,12);
type = Stem;
},
{
horizontal = 1;
origin = (0,11);
target = up;
type = BottomGhost;
}
);
layerId = "C858EFCA-0EF1-49E8-8937-16326EFE75E3";
shapes = (
{
closed = 1;
nodes = (
(234.267,641.059,o),
(228.186,639.846,o),
(224.15,635.81,cs),
(61,472.646,l),
(72.02,461.626,o),
(89.882,461.627,o),
(100.902,472.646,cs),
(220.03,591.76,l),
(220.03,28.219,ls),
(220.03,12.642,o),
(232.672,0,o),
(248.25,0,c),
(248.25,625.835,ls),
(248.25,631.535,o),
(244.807,636.685,o),
(239.53,638.872,cs)
);
}
);
width = 329;
}
);
unicode = 49;
},
{
glyphname = two;
layers = (
{
hints = (
{
horizontal = 1;
origin = (0,35);
target = (0,0);
type = Stem;
},
{
horizontal = 1;
origin = (0,19);
target = (0,10);
type = Stem;
}
);
layerId = "C858EFCA-0EF1-49E8-8937-16326EFE75E3";
shapes = (
{
closed = 1;
nodes = (
(112.058,28.21,l),
(407.738,325.29,ls),
(459.865,377.663,o),
(475.888,453.68,o),
(449.548,523.67,cs),
(424.448,590.36,o),
(365.578,634.73,o),
(295.898,639.46,cs),
(290.978,639.78,o),
(286.048,639.97,o),
(281.048,639.97,cs),
(182.228,639.97,o),
(95.828,572.93,o),
(72.638,476.53,c),
(86.728,472.88,o),
(100.858,480.68,o),
(106.358,494.16,cs),
(135.068,564.49,o),
(203.668,611.75,o),
(281.048,611.75,cs),
(285.398,611.75,o),
(289.718,611.61,o),
(293.988,611.31,cs),
(353.378,607.27,o),
(401.658,570.79,o),
(423.138,513.73,cs),
(445.528,454.21,o),
(431.968,389.63,o),
(387.748,345.2,cs),
(68.108,24.06,ls),
(64.088,20.01,o),
(62.888,13.96,o),
(65.088,8.7,cs),
(67.278,3.44,o),
(72.408,0.01,o),
(78.108,0.01,cs),
(484.008,0.01,l),
(484.008,15.58,o),
(471.378,28.21,o),
(455.768,28.21,cs)
);
}
);
width = 551;
}
);
unicode = 50;
},
{
glyphname = three;
layers = (
{
hints = (
{
origin = (0,18);
target = (0,34);
type = Stem;
},
{
horizontal = 1;
origin = (0,31);
target = (0,21);
type = Stem;
},
{
horizontal = 1;
origin = (0,15);
target = (0,8);
type = Stem;
},
{
horizontal = 1;
origin = (0,2);
target = (0,43);
type = Stem;
}
);
layerId = "C858EFCA-0EF1-49E8-8937-16326EFE75E3";
shapes = (
{
closed = 1;
nodes = (
(128.18,560.182,o),
(184.435,609.682,o),
(251.611,607.704,cs),
(321.976,605.632,o),
(379.275,544.619,o),
(377.088,474.254,cs),
(375.141,411.551,o),
(328.354,360.034,o),
(267.795,350.555,cs),
(262.01,349.649,o),
(257.579,344.953,o),
(257.579,339.084,cs),
(257.579,331.126,ls),
(257.579,324.918,o),
(262.32,319.932,o),
(268.486,319.133,cs),
(343.253,309.435,o),
(401.089,248.33,o),
(401.089,174.438,cs),
(401.089,93.829,o),
(332.29,28.233,o),
(247.717,28.233,cs),
(174.756,28.233,o),
(113.59,77.081,o),
(98.168,142.254,cs),
(96.024,151.312,o),
(87.981,157.718,o),
(78.669,157.718,cs),
(67,157.718,l),
(75.79,69.349,o),
(153.45,0,o),
(247.717,0,cs),
(347.839,0,o),
(429.308,78.238,o),
(429.308,174.424,cs),
(429.308,247.597,o),
(382.097,310.286,o),
(315.457,336.135,c),
(375.155,364.707,o),
(414.324,429.541,o),
(403.629,502.093,cs),
(393.357,571.696,o),
(335.719,627.124,o),
(265.834,634.964,cs),
(170.82,645.622,o),
(90.041,571.216,o),
(90.041,478.318,c),
(99.777,478.318,ls),
(109.823,478.318,o),
(118.091,485.838,o),
(119.446,495.8,cs)
);
}
);
width = 502;
}
);
rightKerningGroup = three;
unicode = 51;
},
{
glyphname = four;
layers = (
{
hints = (
{
origin = (0,15);
target = (0,20);
type = Stem;
},
{
horizontal = 1;
origin = (0,14);
target = (1,1);
type = Stem;
},
{
horizontal = 1;
origin = (0,16);
target = up;
type = BottomGhost;
}
);
layerId = "C858EFCA-0EF1-49E8-8937-16326EFE75E3";
shapes = (
{
closed = 1;
nodes = (
(397.014,214.74,l),
(397.014,627.22,ls),
(397.014,633.33,o),
(393.084,638.75,o),
(387.264,640.64,cs),
(381.454,642.52,o),
(375.094,640.46,o),
(371.494,635.51,cs),
(61.684,208.93,ls),
(58.574,204.64,o),
(58.134,198.95,o),
(60.534,194.23,cs),
(62.934,189.5,o),
(67.794,186.52,o),
(73.104,186.52,cs),
(368.794,186.52,l),
(368.794,0.01,l),
(384.374,0.01,o),
(397.014,12.64,o),
(397.014,28.23,cs),
(397.014,186.52,l),
(489.594,186.52,l),
(489.594,202.1,o),
(476.954,214.74,o),
(461.374,214.74,c)
);
},
{
closed = 1;
nodes = (
(368.794,214.74,l),
(100.784,214.74,l),
(368.794,583.79,l)
);
}
);
width = 552;
}
);
unicode = 52;
},
{
glyphname = five;
layers = (
{
hints = (
{
origin = (0,11);
target = (0,3);
type = Stem;
},
{
origin = (0,24);
target = (0,45);
type = Stem;
},
{
horizontal = 1;
origin = (0,42);
target = (0,27);
type = Stem;
},
{
horizontal = 1;
origin = (0,21);
target = (0,48);
type = Stem;
},
{
horizontal = 1;
origin = (0,3);
target = (0,8);
type = Stem;
}
);
layerId = "C858EFCA-0EF1-49E8-8937-16326EFE75E3";
shapes = (
{
closed = 1;
nodes = (
(192.349,413.498,o),
(157.286,404.835,o),
(125.92,388.27,c),
(125.92,610.554,l),
(400.085,610.554,ls),
(415.662,610.554,o),
(428.305,623.196,o),
(428.305,638.773,c),
(111.811,638.773,ls),
(104.022,638.773,o),
(97.701,632.452,o),
(97.701,624.664,cs),
(97.701,363.225,ls),
(97.701,357.977,o),
(100.622,353.165,o),
(105.264,350.724,cs),
(109.906,348.283,o),
(115.521,348.636,o),
(119.839,351.613,cs),
(151.656,373.624,o),
(189.287,385.265,o),
(228.681,385.265,cs),
(331.371,385.265,o),
(414.915,305.178,o),
(414.915,206.735,cs),
(414.915,108.292,o),
(331.371,28.205,o),
(228.681,28.205,cs),
(190.289,28.205,o),
(153.434,39.309,o),
(122.082,60.319,cs),
(117.116,63.649,o),
(112.304,67.218,o),
(107.705,71,cs),
(96.036,80.566,o),
(79.118,80.002,o),
(68,69.815,c),
(79.358,57.426,o),
(92.269,46.35,o),
(106.378,36.897,cs),
(142.386,12.755,o),
(184.687,0,o),
(228.681,0,cs),
(346.92,0,o),
(443.134,92.743,o),
(443.134,206.749,cs),
(443.134,320.755,o),
(346.934,413.498,o),
(228.681,413.498,c)
);
}
);
width = 514;
}
);
unicode = 53;
},
{
glyphname = six;
layers = (
{
hints = (
{
horizontal = 1;
origin = (0,8);
target = down;
type = TopGhost;
}
);
layerId = "C858EFCA-0EF1-49E8-8937-16326EFE75E3";
shapes = (
{
closed = 1;
nodes = (
(206.187,357.56,o),
(145.927,330.52,o),
(108.647,284.23,c),
(143.667,464.74,o),
(257.717,577.15,o),
(305.537,617.4,cs),
(317.397,627.39,o),
(319.787,644.66,o),
(311.077,657.5,c),
(308.697,655.88,o),
(74.157,493.6,o),
(70.017,183.16,cs),
(68.727,87.39,o),
(141.847,4.01,o),
(237.547,0.15,cs),
(346.307,-4.26,o),
(434.467,91.32,o),
(417.467,202.3,cs),
(406.097,276.54,o),
(346.227,336.28,o),
(271.997,347.55,cs)
);
},
{
closed = 1;
nodes = (
(169.457,13.72,o),
(83.667,99.51,o),
(100.247,199.69,cs),
(110.287,260.37,o),
(159.227,309.32,o),
(219.927,319.35,cs),
(320.107,335.91,o),
(405.897,250.1,o),
(389.327,149.93,cs),
(379.297,89.25,o),
(330.337,40.3,o),
(269.637,30.27,cs)
);
}
);
width = 486;
}
);
unicode = 54;
},
{
glyphname = seven;
layers = (
{
hints = (
{
horizontal = 1;
origin = (0,6);
target = (0,3);
type = Stem;
},
{
horizontal = 1;
origin = (0,8);
target = up;
type = BottomGhost;
}
);
layerId = "C858EFCA-0EF1-49E8-8937-16326EFE75E3";
shapes = (
{
closed = 1;
nodes = (
(485.735,638.251,o),
(481.333,640.608,o),
(476.62,640.608,c),
(50,640.452,l),
(50,624.861,o),
(62.642,612.241,o),
(78.219,612.247,cs),
(455.456,612.388,l),
(200.339,0,l),
(218.851,0,o),
(235.556,11.133,o),
(242.668,28.219,cs),
(489.643,621.066,ls),
(491.464,625.426,o),
(490.97,630.406,o),
(488.359,634.329,cs)
);
}
);
width = 549;
}
);
unicode = 55;
},
{
glyphname = eight;
layers = (
{
hints = (
{
origin = (0,14);
target = (2,2);
type = Stem;
},
{
origin = (0,8);
target = (1,11);
type = Stem;
},
{
origin = (1,5);
target = (0,2);
type = Stem;
},
{
origin = (2,8);
target = (0,20);
type = Stem;
},
{
horizontal = 1;
origin = (0,17);
target = (2,11);
type = Stem;
},
{
horizontal = 1;
origin = (2,5);
target = (1,8);
type = Stem;
},
{
horizontal = 1;
origin = (1,2);
target = (0,5);
type = Stem;
}
);
layerId = "C858EFCA-0EF1-49E8-8937-16326EFE75E3";
shapes = (
{
closed = 1;
nodes = (
(392.277,366.696,o),
(428.172,420.214,o),
(428.172,482.241,c),
(428.186,569.34,o),
(357.582,639.944,o),
(270.483,639.944,cs),
(183.384,639.944,o),
(112.779,569.34,o),
(112.779,482.241,cs),
(112.779,420.214,o),
(148.674,366.71,o),
(200.753,340.946,c),
(125.026,315.958,o),
(71,251.688,o),
(71,176.117,cs),
(71,78.845,o),
(160.314,0,o),
(270.483,0,cs),
(380.651,0,o),
(469.965,78.845,o),
(469.965,176.117,cs),
(469.965,251.688,o),
(415.953,315.958,o),
(340.213,340.946,c)
);
},
{
closed = 1;
nodes = (
(140.998,553.635,o),
(199.088,611.725,o),
(270.483,611.725,cs),
(341.878,611.725,o),
(399.967,553.635,o),
(399.967,482.241,cs),
(399.967,410.846,o),
(341.878,352.756,o),
(270.483,352.756,cs),
(199.088,352.756,o),
(140.998,410.846,o),
(140.998,482.241,cs)
);
},
{
closed = 1;
nodes = (
(176.047,28.233,o),
(99.219,94.577,o),
(99.219,176.131,cs),
(99.219,257.685,o),
(176.047,324.029,o),
(270.483,324.029,cs),
(364.919,324.029,o),
(441.746,257.685,o),
(441.746,176.131,cs),
(441.746,94.577,o),
(364.919,28.233,o),
(270.483,28.233,cs)
);
}
);
width = 541;
}
);
rightKerningGroup = three;
unicode = 56;
},
{
glyphname = nine;
layers = (
{
hints = (
{
origin = (0,12);
target = (1,2);
type = Stem;
},
{
origin = (1,8);
target = (0,27);
type = Stem;
},
{
horizontal = 1;
origin = (0,15);
target = (1,14);
type = Stem;
},
{
horizontal = 1;
origin = (1,5);
target = (0,9);
type = Stem;
},
{
horizontal = 1;
origin = (0,24);
target = up;
type = BottomGhost;
}
);
layerId = "C858EFCA-0EF1-49E8-8937-16326EFE75E3";
shapes = (
{
closed = 1;
nodes = (
(451.19,454.98,o),
(450.98,456.72,o),
(450.92,458.49,c),
(450.92,459.11,o),
(450.98,459.72,o),
(450.98,460.34,c),
(450.82,460.34,l),
(447.03,563.09,o),
(362.76,645.28,o),
(259.09,645.28,c),
(153,645.29,o),
(67,559.29,o),
(67,453.19,cs),
(67,347.08,o),
(153,261.09,o),
(259.09,261.09,cs),
(313.8,261.09,o),
(363.06,284.07,o),
(398.05,320.78,c),
(343.15,169.58,o),
(211.66,73.37,o),
(157.82,39.07,cs),
(144.7,30.72,o),
(140.14,13.79,o),
(147.38,0,c),
(150.31,1.54,o),
(432.62,153.06,o),
(450.13,433.04,c),
(450.82,439.66,o),
(451.19,446.36,o),
(451.19,453.19,cs)
);
},
{
closed = 1;
nodes = (
(168.73,289.3,o),
(95.22,362.82,o),
(95.22,453.19,cs),
(95.22,543.56,o),
(168.73,617.07,o),
(259.09,617.07,cs),
(347.71,617.07,o),
(419.94,546.33,o),
(422.7,458.37,c),
(422.66,450.44,o),
(422.36,442.63,o),
(421.88,434.9,c),
(412.75,353.12,o),
(343.26,289.3,o),
(259.09,289.3,c)
);
}
);
width = 521;
}
);
unicode = 57;
},
{
glyphname = colon;
layers = (
{
hints = (
{
origin = (0,8);
target = (0,2);
type = Stem;
},
{
horizontal = 1;
origin = (1,11);
target = (1,5);
type = Stem;
},
{
horizontal = 1;
origin = (0,11);
target = (0,5);
type = Stem;
}
);
layerId = "C858EFCA-0EF1-49E8-8937-16326EFE75E3";
shapes = (
{
closed = 1;
nodes = (
(98.56,414.97,o),
(111.99,428.4,o),
(111.99,444.97,cs),
(111.99,461.53,o),
(98.56,474.97,o),
(82,474.97,cs),
(65.43,474.97,o),
(52,461.53,o),
(52,444.97,cs),
(52,428.4,o),
(65.43,414.97,o),
(82,414.97,cs)
);
},
{
closed = 1;
nodes = (
(98.56,155,o),
(111.99,168.43,o),
(111.99,185,cs),
(111.99,201.56,o),
(98.56,214.99,o),
(82,214.99,cs),
(65.43,214.99,o),
(52,201.56,o),
(52,185,cs),
(52,168.43,o),
(65.43,155,o),
(82,155,cs)
);
}
);
width = 164;
}
);
unicode = 58;
},
{
glyphname = semicolon;
layers = (
{
hints = (
{
origin = (0,8);
target = (0,2);
type = Stem;
},
{
horizontal = 1;
origin = (0,11);
target = (0,5);
type = Stem;
}
);
layerId = "C858EFCA-0EF1-49E8-8937-16326EFE75E3";
shapes = (
{
closed = 1;
nodes = (
(125.81,150.43,o),
(139.24,163.86,o),
(139.24,180.43,cs),
(139.24,196.99,o),
(125.81,210.42,o),
(109.24,210.42,cs),
(92.68,210.42,o),
(79.25,196.99,o),
(79.25,180.43,cs),
(79.25,163.86,o),
(92.68,150.43,o),
(109.24,150.43,cs)
);
},
{
closed = 1;
nodes = (
(4,-90.01,l),
(17.94,-96.98,o),
(34.9,-91.34,o),
(41.87,-77.39,cs),
(109.24,57.36,l),
(95.3,64.33,o),
(78.36,58.69,o),
(71.37,44.73,c)
);
}
);
width = 189;
}
);
unicode = 59;
},
{
glyphname = less;
layers = (
{
layerId = "C858EFCA-0EF1-49E8-8937-16326EFE75E3";
shapes = (
{
closed = 1;
nodes = (
(101.602,283.399,l),
(476.398,471.114,l),
(469.414,485.054,o),
(452.44,490.698,o),
(438.499,483.714,cs),
(63.789,296.027,ls),
(59.019,293.628,o),
(56,288.732,o),
(56,283.399,cs),
(56,278.065,o),
(59.02,273.169,o),
(63.789,270.785,cs),
(438.527,83,ls),
(452.454,76.016,o),
(469.414,81.645,o),
(476.398,95.571,c)
);
}
);
width = 533;
}
);
unicode = 60;
},
{
glyphname = equal;
layers = (
{
hints = (
{
horizontal = 1;
origin = (0,7);
target = (0,4);
type = Stem;
},
{
horizontal = 1;
origin = (1,3);
target = (1,0);
type = Stem;
}
);
layerId = "C858EFCA-0EF1-49E8-8937-16326EFE75E3";
shapes = (
{
closed = 1;
nodes = (
(254.76,200,ls),
(270.34,200,o),
(282.98,212.64,o),
(282.98,228.22,c),
(71.22,228.22,ls),
(55.64,228.22,o),
(43,215.59,o),
(43,200,c)
);
},
{
closed = 1;
nodes = (
(71.22,377.73,ls),
(55.64,377.73,o),
(43,365.1,o),
(43,349.51,c),
(254.76,349.51,ls),
(270.34,349.51,o),
(282.98,362.15,o),
(282.98,377.73,c)
);
}
);
width = 326;
}
);
unicode = 61;
},
{
glyphname = greater;
layers = (
{
layerId = "C858EFCA-0EF1-49E8-8937-16326EFE75E3";
shapes = (
{
closed = 1;
nodes = (
(430.781,283.311,l),
(56,95.596,l),
(62.984,81.656,o),
(79.944,76.012,o),
(93.899,82.996,cs),
(468.609,270.683,ls),
(473.378,273.082,o),
(476.398,277.978,o),
(476.398,283.311,cs),
(476.398,288.645,o),
(473.378,293.541,o),
(468.609,295.925,cs),
(93.87,483.725,ls),
(79.944,490.695,o),
(62.984,485.065,o),
(56,471.139,c)
);
}
);
width = 533;
}
);
unicode = 62;
},
{
glyphname = question;
layers = (
{
hints = (
{
origin = (0,8);
target = (0,2);
type = Stem;
},
{
origin = (1,20);
target = (1,24);
type = Stem;
},
{
horizontal = 1;
origin = (0,11);
target = (0,5);
type = Stem;
},
{
horizontal = 1;
origin = (1,8);
target = (1,33);
type = Stem;
}
);
layerId = "C858EFCA-0EF1-49E8-8937-16326EFE75E3";
shapes = (
{
closed = 1;
nodes = (
(248.652,0,o),
(262.082,13.43,o),
(262.082,29.997,cs),
(262.082,46.564,o),
(248.652,59.994,o),
(232.085,59.994,cs),
(215.518,59.994,o),
(202.088,46.564,o),
(202.088,29.997,cs),
(202.088,13.43,o),
(215.518,0,o),
(232.085,0,cs)
);
},
{
closed = 1;
nodes = (
(147.242,637.922,o),
(60.751,590.165,o),
(58,490.198,c),
(73.055,489.789,o),
(86.022,500.259,o),
(89.338,514.947,cs),
(103.899,579.484,o),
(166.183,609.961,o),
(227.147,611.654,cs),
(295.188,613.545,o),
(371.376,577.326,o),
(377.866,494.558,c),
(379.418,459.185,o),
(360.794,426.804,o),
(316.743,388.919,c),
(216.155,289.559,o),
(217.27,239.131,o),
(218.469,185.754,cs),
(218.653,177.443,o),
(218.681,168.822,o),
(218.469,159.99,c),
(221.094,159.99,ls),
(235.471,159.99,o),
(246.995,171.757,o),
(246.675,186.135,cs),
(245.528,237.593,o),
(244.629,278.031,o),
(335.848,368.178,c),
(367.228,395.142,o),
(408.611,437.696,o),
(406.029,496.294,c),
(398.071,597.855,o),
(307.006,641.859,o),
(226.441,639.874,cs)
);
}
);
width = 470;
}
);
unicode = 63;
},
{
glyphname = at;
layers = (
{
hints = (
{
origin = (1,8);
target = (0,16);
type = Stem;
},
{
origin = (1,8);
target = (2,32);
type = Stem;
},
{
horizontal = 1;
origin = (0,13);
target = (0,20);
type = Stem;
},
{
horizontal = 1;
origin = (0,3);
target = (2,20);
type = Stem;
},
{
horizontal = 1;
origin = (2,20);
target = (2,35);
type = Stem;
},
{
horizontal = 1;
origin = (1,5);
target = (0,3);
type = Stem;
}
);
layerId = "C858EFCA-0EF1-49E8-8937-16326EFE75E3";
shapes = (
{
closed = 1;
nodes = (
(399.622,316.24,l),
(377.612,342.95,o),
(344.282,359.96,o),
(306.992,359.96,cs),
(232.862,359.96,o),
(174.422,292.75,o),
(189.332,215.93,cs),
(198.422,169.14,o),
(236.102,131.44,o),
(282.882,122.34,cs),
(329.752,113.23,o),
(372.972,131.5,o),
(399.622,163.91,c),
(399.622,148.21,ls),
(399.622,132.63,o),
(412.262,119.99,o),
(427.842,119.99,c),
(427.842,359.96,l),
(412.262,359.96,o),
(399.622,347.34,o),
(399.622,331.74,c)
);
},
{
closed = 1;
nodes = (
(257.112,147.47,o),
(215.212,188.93,o),
(215.212,239.98,cs),
(215.212,290.57,o),
(256.382,331.74,o),
(306.982,331.74,cs),
(358.042,331.74,o),
(399.475,289.84,o),
(398.732,238.62,cs),
(398.025,189.93,o),
(357.022,148.94,o),
(308.352,148.22,cs)
);
},
{
closed = 1;
nodes = (
(159.561,471.976,o),
(55.222,355.12,o),
(68.072,216.98,cs),
(77.822,112.2,o),
(157.702,25,o),
(260.912,4.56,cs),
(305.832,-4.35,o),
(348.502,0.34,o),
(386.972,13.95,c),
(386.972,28.1,o),
(373.672,38.59,o),
(359.972,35.02,cs),
(332.902,27.96,o),
(303.752,26.12,o),
(273.582,30.86,cs),
(180.912,45.4,o),
(107.442,121.72,o),
(96.672,214.9,cs),
(80.802,352.2,o),
(197.262,467.608,o),
(334.862,449.94,cs),
(425.842,438.258,o),
(500.462,366.79,o),
(515.672,276.32,cs),
(523.492,229.8,o),
(515.942,185.48,o),
(497.372,147.49,cs),
(491.172,134.76,o),
(500.422,119.99,o),
(514.592,119.99,c),
(535.642,156.33,o),
(547.643,198.59,o),
(546.932,243.8,cs),
(544.813,378.48,o),
(427.641,487.196,o),
(293.152,479.56,cs)
);
}
);
width = 614;
}
);
unicode = 64;
},
{
glyphname = A;
layers = (
{
hints = (
{
horizontal = 1;
origin = (0,11);
target = (1,0);
type = Stem;
},
{
horizontal = 1;
origin = (0,7);
target = up;
type = BottomGhost;
},
{
horizontal = 1;
origin = (0,3);
target = down;
type = TopGhost;
}
);
layerId = "C858EFCA-0EF1-49E8-8937-16326EFE75E3";
shapes = (
{
closed = 1;
nodes = (
(359.28,632.04,ls),
(356.88,636.83,o),
(352,639.85,o),
(346.65,639.85,cs),
(341.31,639.85,o),
(336.424,636.828,o),
(334.03,632.04,cs),
(18,0,l),
(37.34,0,o),
(55.012,10.924,o),
(63.66,28.22,cs),
(161.99,224.87,l),
(531.31,224.87,l),
(629.62,28.22,ls),
(638.27,10.92,o),
(655.95,0,o),
(675.28,0,c)
);
},
{
closed = 1;
nodes = (
(176.1,253.09,l),
(346.67,594.19,l),
(517.2,253.09,l)
);
}
);
width = 694;
}
);
leftKerningGroup = A2;
rightKerningGroup = A;
unicode = 65;
},
{
glyphname = B;
layers = (
{
hints = (
{
origin = (0,10);
target = (1,0);
type = Stem;
},
{
origin = (1,4);
target = (0,3);
type = Stem;
},
{
origin = (2,0);
target = (0,18);
type = Stem;
},
{
horizontal = 1;
origin = (0,14);
target = (2,4);
type = Stem;
},
{
horizontal = 1;
origin = (2,5);
target = (1,9);
type = Stem;
},
{
horizontal = 1;
origin = (1,0);
target = (0,7);
type = Stem;
}
);
layerId = "C858EFCA-0EF1-49E8-8937-16326EFE75E3";
shapes = (
{
closed = 1;
nodes = (
(453.287,362.392,o),
(481.761,411.705,o),
(481.761,467.537,cs),
(481.761,478.218,ls),
(481.761,567.504,o),
(409.378,639.873,o),
(320.106,639.873,cs),
(99.12,639.873,ls),
(88.002,639.873,o),
(79,630.871,o),
(79,619.752,cs),
(79,20.232,ls),
(79,9.128,o),
(88.002,0.126,o),
(99.106,0.126,cs),
(395.014,0.126,ls),
(484.3,0.126,o),
(556.669,72.509,o),
(556.669,161.781,cs),
(556.669,172.462,ls),
(556.669,256.499,o),
(492.188,325.707,o),
(410.112,333.34,c)
);
},
{
closed = 1;
nodes = (
(107.219,611.654,l),
(320.106,611.654,ls),
(393.688,611.654,o),
(453.541,551.8,o),
(453.541,478.218,cs),
(453.541,467.537,ls),
(453.541,393.955,o),
(393.688,334.102,o),
(320.106,334.102,cs),
(107.219,334.102,l)
);
},
{
closed = 1;
nodes = (
(528.45,161.766,ls),
(528.45,88.185,o),
(468.596,28.331,o),
(395.014,28.331,cs),
(107.219,28.331,l),
(107.219,305.883,l),
(395.014,305.883,ls),
(468.596,305.883,o),
(528.45,246.029,o),
(528.45,172.448,cs)
);
}
);
width = 599;
}
);
leftKerningGroup = B;
unicode = 66;
},
{
glyphname = C;
layers = (
{
hints = (
{
origin = (0,20);
target = (0,5);
type = Stem;
},
{
horizontal = 1;
origin = (0,23);
target = (0,2);
type = Stem;
},
{
horizontal = 1;
origin = (0,8);
target = (0,17);
type = Stem;
}
);
layerId = "C858EFCA-0EF1-49E8-8937-16326EFE75E3";
shapes = (
{
closed = 1;
nodes = (
(452.131,37.701,o),
(409.859,28.262,o),
(366.923,28.262,cs),
(206.101,28.262,o),
(75.262,159.101,o),
(75.262,319.923,cs),
(75.262,480.745,o),
(206.101,611.598,o),
(366.909,611.598,cs),
(409.844,611.598,o),
(452.117,602.159,o),
(490.622,584.126,cs),
(504.647,577.565,o),
(521.311,582.363,o),
(529.17,595.696,c),
(480.195,624.579,o),
(424.081,639.86,o),
(366.909,639.86,c),
(190.51,639.846,o),
(47,496.322,o),
(47,319.923,cs),
(47,143.524,o),
(190.51,0,o),
(366.909,0,cs),
(424.081,0,o),
(480.209,15.281,o),
(529.17,44.163,c),
(521.311,57.497,o),
(504.647,62.294,o),
(490.636,55.733,cs)
);
}
);
width = 557;
}
);
leftKerningGroup = C2;
rightKerningGroup = C;
unicode = 67;
},
{
glyphname = D;
layers = (
{
hints = (
{
origin = (1,0);
target = (0,8);
type = Stem;
},
{
origin = (0,3);
target = (1,5);
type = Stem;
},
{
horizontal = 1;
origin = (1,1);
target = (0,7);
type = Stem;
},
{
horizontal = 1;
origin = (0,0);
target = (1,8);
type = Stem;
}
);
layerId = "C858EFCA-0EF1-49E8-8937-16326EFE75E3";
shapes = (
{
closed = 1;
nodes = (
(239.99,611.711,ls),
(400.854,611.711,o),
(531.735,480.83,o),
(531.735,319.965,cs),
(531.735,159.101,o),
(400.854,28.219,o),
(239.99,28.219,cs),
(108.219,28.219,l),
(108.219,611.711,l)
);
},
{
closed = 1;
nodes = (
(80,639.93,l),
(80,0,l),
(239.99,0,ls),
(416.699,0,o),
(559.955,143.256,o),
(559.955,319.965,cs),
(559.955,496.675,o),
(416.699,639.93,o),
(239.99,639.93,c)
);
}
);
width = 607;
}
);
rightKerningGroup = D;
unicode = 68;
},
{
glyphname = E;
layers = (
{
hints = (
{
origin = (0,15);
target = (0,7);
type = Stem;
},
{
horizontal = 1;
origin = (0,19);
target = (0,0);
type = Stem;
},
{
horizontal = 1;
origin = (0,1);
target = (0,6);
type = Stem;
},
{
horizontal = 1;
origin = (0,7);
target = (0,12);
type = Stem;
}
);
layerId = "C858EFCA-0EF1-49E8-8937-16326EFE75E3";
shapes = (
{
closed = 1;
nodes = (
(108.219,28.219,l),
(108.219,305.912,l),
(372.987,305.912,ls),
(388.579,305.912,o),
(401.207,318.554,o),
(401.207,334.131,c),
(108.219,334.131,l),
(108.219,611.64,l),
(465.857,611.64,ls),
(481.449,611.64,o),
(494.077,624.269,o),
(494.077,639.86,c),
(94.11,639.86,ls),
(86.321,639.86,o),
(80,633.539,o),
(80,625.75,cs),
(80,14.11,ls),
(80,6.321,o),
(86.321,0,o),
(94.11,0,cs),
(494.077,0,l),
(494.077,15.577,o),
(481.449,28.219,o),
(465.857,28.219,cs)
);
}
);
width = 519;
}
);
leftKerningGroup = B;
rightKerningGroup = E;
unicode = 69;
},
{
glyphname = F;
layers = (
{
hints = (
{
origin = (0,3);
target = (0,14);
type = Stem;
},
{
horizontal = 1;
origin = (0,8);
target = (0,13);
type = Stem;
},
{
horizontal = 1;
origin = (0,17);
target = (0,21);
type = Stem;
},
{
horizontal = 1;
origin = (0,4);
target = up;
type = BottomGhost;
}
);
layerId = "C858EFCA-0EF1-49E8-8937-16326EFE75E3";
shapes = (
{
closed = 1;
nodes = (
(248.96,639.887,ls),
(152.323,639.878,o),
(74,561.55,o),
(74,464.927,cs),
(74,0.027,l),
(89.577,0.027,o),
(102.219,12.655,o),
(102.219,28.247,cs),
(102.219,291.717,l),
(299.868,291.717,ls),
(315.445,291.717,o),
(328.087,304.345,o),
(328.087,319.936,c),
(102.219,319.936,l),
(102.219,464.927,ls),
(102.219,545.987,o),
(167.928,611.682,o),
(248.974,611.682,cs),
(379.855,611.682,ls),
(395.433,611.682,o),
(408.075,624.31,o),
(408.075,639.901,c)
);
}
);
width = 425;
}
);
unicode = 70;
},
{
glyphname = G;
layers = (
{
hints = (
{
origin = (0,25);
target = (0,10);
type = Stem;
},
{
horizontal = 1;
origin = (0,28);
target = (0,7);
type = Stem;
},
{
horizontal = 1;
origin = (0,3);
target = (0,0);
type = Stem;
},
{
horizontal = 1;
origin = (0,13);
target = (0,22);
type = Stem;
}
);
layerId = "C858EFCA-0EF1-49E8-8937-16326EFE75E3";
shapes = (
{
closed = 1;
nodes = (
(432.9,262.722,l),
(432.9,247.131,o),
(445.528,234.503,o),
(461.119,234.503,cs),
(651.769,234.503,l),
(614.138,112.257,o),
(500.824,28.219,o),
(370.027,28.219,cs),
(207.469,28.219,o),
(75.219,159.058,o),
(75.219,319.909,cs),
(75.219,480.759,o),
(207.469,611.612,o),
(370.027,611.612,cs),
(493.853,611.612,o),
(603.81,534.841,o),
(646.337,421.865,cs),
(651.769,407.417,o),
(667.064,399.304,o),
(681.95,403.353,c),
(644.051,542.588,o),
(515.808,639.832,o),
(370.027,639.832,cs),
(191.906,639.832,o),
(47,496.308,o),
(47,319.909,cs),
(47,143.51,o),
(191.906,0,o),
(370.027,0,cs),
(511.956,0,o),
(635.345,90.302,o),
(677.759,222.284,cs),
(681.95,235.335,o),
(684.038,249.008,o),
(684.038,262.722,c)
);
}
);
width = 730;
}
);
unicode = 71;
},
{
glyphname = H;
layers = (
{
hints = (
{
origin = (0,5);
target = (0,2);
type = Stem;
},
{
origin = (0,19);
target = (0,16);
type = Stem;
},
{
horizontal = 1;
origin = (0,10);
target = (0,1);
type = Stem;
},
{
horizontal = 1;
origin = (0,6);
target = up;
type = BottomGhost;
},
{
horizontal = 1;
origin = (0,2);
target = down;
type = TopGhost;
}
);
layerId = "C858EFCA-0EF1-49E8-8937-16326EFE75E3";
shapes = (
{
closed = 1;
nodes = (
(531.735,334.075,l),
(108.219,334.075,l),
(108.219,639.944,l),
(92.642,639.944,o),
(80,627.302,o),
(80,611.725,cs),
(80,0,l),
(95.591,0,o),
(108.219,12.642,o),
(108.219,28.219,cs),
(108.219,305.855,l),
(531.735,305.855,l),
(531.735,0,l),
(547.327,0,o),
(559.955,12.642,o),
(559.955,28.219,cs),
(559.955,639.944,l),
(544.378,639.944,o),
(531.735,627.302,o),
(531.735,611.725,c)
);
}
);
width = 640;
}
);
leftKerningGroup = B;
rightKerningGroup = H;
unicode = 72;
},
{
glyphname = I;
layers = (
{
hints = (
{
origin = (0,7);
target = (0,4);
type = Stem;
},
{
horizontal = 1;
origin = (0,0);
target = up;
type = BottomGhost;
},
{
horizontal = 1;
origin = (0,4);
target = down;
type = TopGhost;
}
);
layerId = "C858EFCA-0EF1-49E8-8937-16326EFE75E3";
shapes = (
{
closed = 1;
nodes = (
(80,-0.043,l),
(95.577,-0.043,o),
(108.219,12.599,o),
(108.219,28.176,cs),
(108.219,639.887,l),
(92.642,639.887,o),
(80,627.259,o),
(80,611.668,c)
);
}
);
width = 189;
}
);
leftKerningGroup = B;
rightKerningGroup = H;
unicode = 73;
},
{
glyphname = J;
layers = (
{
hints = (
{
origin = (0,4);
target = (0,21);
type = Stem;
},
{
horizontal = 1;
origin = (0,17);
target = (0,8);
type = Stem;
},
{
horizontal = 1;
origin = (0,3);
target = (0,0);
type = Stem;
}
);
layerId = "C858EFCA-0EF1-49E8-8937-16326EFE75E3";
shapes = (
{
closed = 1;
nodes = (
(199.1,639.87,l),
(199.1,624.28,o),
(211.74,611.65,o),
(227.32,611.65,cs),
(344.98,611.65,l),
(344.98,178.42,ls),
(344.98,102.49,o),
(288.75,36.042,o),
(213.16,28.91,cs),
(135.07,21.542,o),
(67.93,76.19,o),
(55.33,149.27,cs),
(52.84,163.8,o),
(39.74,174.13,o),
(25,174.13,c),
(25,72.59,o),
(112.36,-8.921,o),
(215.87,0.82,cs),
(306.08,9.309,o),
(373.18,88.62,o),
(373.18,179.22,cs),
(373.18,625.76,ls),
(373.18,633.55,o),
(366.86,639.87,o),
(359.07,639.87,c)
);
}
);
width = 448;
}
);
unicode = 74;
},
{
glyphname = K;
layers = (
{
hints = (
{
origin = (0,8);
target = (0,5);
type = Stem;
},
{
horizontal = 1;
origin = (0,17);
target = up;
type = BottomGhost;
},
{
horizontal = 1;
origin = (0,0);
target = down;
type = TopGhost;
}
);
layerId = "C858EFCA-0EF1-49E8-8937-16326EFE75E3";
shapes = (
{
closed = 1;
nodes = (
(581.37,639.89,l),
(549.26,639.89,o),
(517.9,630.04,o),
(491.56,611.67,cs),
(108.22,344.33,l),
(108.22,639.87,l),
(92.64,639.87,o),
(80,627.24,o),
(80,611.65,cs),
(80,-0.06,l),
(95.57,-0.06,o),
(108.22,12.58,o),
(108.22,28.16,cs),
(108.22,290.49,l),
(489.87,28.22,ls),
(516.62,9.83,o),
(548.31,0,o),
(580.76,0,c),
(118.91,317.38,l)
);
}
);
width = 601;
}
);
leftKerningGroup = B;
unicode = 75;
},
{
glyphname = L;
layers = (
{
hints = (
{
origin = (0,4);
target = (0,1);
type = Stem;
},
{
horizontal = 1;
origin = (0,8);
target = (0,0);
type = Stem;
},
{
horizontal = 1;
origin = (0,4);
target = down;
type = TopGhost;
}
);
layerId = "C858EFCA-0EF1-49E8-8937-16326EFE75E3";
shapes = (
{
closed = 1;
nodes = (
(108.219,28.219,l),
(108.219,610.54,ls),
(108.219,626.117,o),
(95.591,638.759,o),
(80,638.759,c),
(80,14.11,ls),
(80,6.321,o),
(86.321,0,o),
(94.11,0,cs),
(399.979,0,l),
(399.979,15.577,o),
(387.351,28.219,o),
(371.76,28.219,c)
);
}
);
width = 413;
}
);
leftKerningGroup = B;
unicode = 76;
},
{
glyphname = M;
layers = (
{
hints = (
{
horizontal = 1;
origin = (0,12);
target = up;
type = BottomGhost;
},
{
horizontal = 1;
origin = (0,16);
target = down;
type = TopGhost;
}
);
layerId = "C858EFCA-0EF1-49E8-8937-16326EFE75E3";
shapes = (
{
closed = 1;
nodes = (
(202.785,577.664,l),
(344.997,191.68,ls),
(347.043,186.121,o),
(352.334,182.452,o),
(358.232,182.452,cs),
(364.129,182.452,o),
(369.435,186.135,o),
(371.466,191.68,cs),
(513.974,578.511,l),
(656.397,28.219,ls),
(660.701,11.612,o),
(675.685,0,o),
(692.843,0,c),
(529.989,629.249,ls),
(528.444,635.216,o),
(523.198,639.423,o),
(517.036,639.803,cs),
(511.077,640.171,o),
(505.226,636.375,o),
(503.096,630.59,cs),
(358.232,237.367,l),
(213.368,630.59,ls),
(211.223,636.403,o),
(205.269,640.34,o),
(199.343,639.789,c),
(193.163,639.465,o),
(187.917,635.104,o),
(186.432,629.094,cs),
(31,0,l),
(48.073,0,o),
(62.944,11.64,o),
(67.036,28.233,cs)
);
}
);
width = 723;
}
);
unicode = 77;
},
{
glyphname = N;
layers = (
{
hints = (
{
origin = (0,4);
target = (0,9);
type = Stem;
},
{
origin = (0,17);
target = (0,14);
type = Stem;
},
{
horizontal = 1;
origin = (0,5);
target = up;
type = BottomGhost;
},
{
horizontal = 1;
origin = (0,14);
target = down;
type = TopGhost;
}
);
layerId = "C858EFCA-0EF1-49E8-8937-16326EFE75E3";
shapes = (
{
closed = 1;
nodes = (
(559.955,42.286,l),
(118.153,631.351,ls),
(105.934,647.647,o),
(80,638.998,o),
(80,618.638,cs),
(80,-0.043,l),
(95.577,-0.043,o),
(108.219,12.599,o),
(108.219,28.176,cs),
(108.219,597.558,l),
(549.909,8.634,ls),
(562.165,-7.708,o),
(588.174,0.958,o),
(588.174,21.389,cs),
(588.174,639.887,l),
(572.597,639.887,o),
(559.955,627.259,o),
(559.955,611.668,c)
);
}
);
width = 669;
}
);
rightKerningGroup = H;
unicode = 78;
},
{
glyphname = O;
layers = (
{
hints = (
{
origin = (0,2);
target = (1,2);
type = Stem;
},
{
origin = (1,8);
target = (0,8);
type = Stem;
},
{
horizontal = 1;
origin = (0,5);
target = (1,11);
type = Stem;
},
{
horizontal = 1;
origin = (1,5);
target = (0,11);
type = Stem;
}
);
layerId = "C858EFCA-0EF1-49E8-8937-16326EFE75E3";
shapes = (
{
closed = 1;
nodes = (
(190.256,639.887,o),
(47,496.631,o),
(47,319.922,cs),
(47,143.212,o),
(190.256,-0.043,o),
(366.965,-0.043,cs),
(543.675,-0.043,o),
(686.93,143.212,o),
(686.93,319.922,cs),
(686.93,496.631,o),
(543.675,639.887,o),
(366.965,639.887,cs)
);
},
{
closed = 1;
nodes = (
(208.499,32.536,o),
(79.579,161.456,o),
(79.579,319.922,cs),
(79.579,478.388,o),
(208.499,607.308,o),
(366.965,607.308,cs),
(525.431,607.308,o),
(654.351,478.388,o),
(654.351,319.922,cs),
(654.351,161.456,o),
(525.431,32.536,o),
(366.965,32.536,cs)
);
}
);
width = 734;
}
);
leftKerningGroup = C2;
rightKerningGroup = D;
unicode = 79;
},
{
glyphname = P;
layers = (
{
hints = (
{
origin = (0,3);
target = (1,1);
type = Stem;
},
{
origin = (1,5);
target = (0,12);
type = Stem;
},
{
horizontal = 1;
origin = (0,8);
target = (1,0);
type = Stem;
},
{
horizontal = 1;
origin = (1,1);
target = (0,0);
type = Stem;
},
{
horizontal = 1;
origin = (0,4);
target = up;
type = BottomGhost;
}
);
layerId = "C858EFCA-0EF1-49E8-8937-16326EFE75E3";
shapes = (
{
closed = 1;
nodes = (
(99.86,639.89,ls),
(88.89,639.892,o),
(80,631,o),
(80,620.02,cs),
(80,-0.03,l),
(95.57,-0.03,o),
(108.22,12.61,o),
(108.22,28.19,cs),
(108.22,291.63,l),
(414.06,291.63,ls),
(510.06,291.63,o),
(588.16,369.73,o),
(588.16,465.73,cs),
(588.16,561.73,o),
(510.06,639.799,o),
(414.06,639.82,cs)
);
},
{
closed = 1;
nodes = (
(108.22,319.84,l),
(108.22,611.6,l),
(414.06,611.6,ls),
(494.5,611.6,o),
(559.94,546.16,o),
(559.94,465.72,cs),
(559.94,385.28,o),
(494.5,319.84,o),
(414.06,319.84,c)
);
}
);
width = 624;
}
);
unicode = 80;
},
{
glyphname = Q;
layers = (
{
hints = (
{
origin = (0,11);
target = (1,23);
type = Stem;
},
{
origin = (1,5);
target = (0,5);
type = Stem;
},
{
horizontal = 1;
origin = (1,2);
target = (0,8);
type = Stem;
},
{
horizontal = 1;
origin = (0,14);
target = (1,11);
type = Stem;
},
{
horizontal = 1;
origin = (0,14);
target = (1,20);
type = Stem;
},
{
horizontal = 1;
origin = (0,20);
target = up;
type = BottomGhost;
}
);
layerId = "C858EFCA-0EF1-49E8-8937-16326EFE75E3";
shapes = (
{
closed = 1;
nodes = (
(540.652,-12.418,o),
(507.706,24.79,o),
(503.529,70.166,c),
(567.756,128.792,o),
(608.957,218.995,o),
(608.957,320.246,cs),
(608.957,496.956,o),
(483.606,640.211,o),
(328.978,640.211,cs),
(174.35,640.211,o),
(49,496.956,o),
(49,320.246,cs),
(49,143.537,o),
(174.35,0.281,o),
(328.978,0.281,cs),
(383.936,0.281,o),
(435.154,18.454,o),
(478.4,49.721,c),
(492.432,-10.811,o),
(546.493,-54.126,o),
(608.928,-54.126,c),
(608.928,-39.155,o),
(598.501,-26.457,o),
(583.954,-22.929,cs)
);
},
{
closed = 1;
nodes = (
(79.477,479.869,o),
(191.395,609.735,o),
(328.964,609.735,cs),
(466.534,609.735,o),
(578.451,479.869,o),
(578.451,320.246,cs),
(578.451,237.239,o),
(548.017,162.486,o),
(499.607,109.645,c),
(486.047,169.329,o),
(432.642,214.057,o),
(368.937,214.057,c),
(368.937,199.087,o),
(379.364,186.402,o),
(393.911,182.875,cs),
(438.498,172.052,o),
(472.036,132.912,o),
(474.576,85.659,c),
(433.545,51.274,o),
(383.329,30.758,o),
(328.964,30.758,cs),
(191.395,30.758,o),
(79.477,160.624,o),
(79.477,320.246,c)
);
}
);
width = 660;
}
);
leftKerningGroup = C2;
unicode = 81;
},
{
glyphname = R;
layers = (
{
hints = (
{
origin = (0,7);
target = (1,1);
type = Stem;
},
{
origin = (0,19);
target = (0,24);
type = Stem;
},
{
horizontal = 1;
origin = (0,16);
target = (1,9);
type = Stem;
},
{
horizontal = 1;
origin = (1,1);
target = (0,4);
type = Stem;
},
{
horizontal = 1;
origin = (0,23);
target = up;
type = BottomGhost;
}
);
layerId = "C858EFCA-0EF1-49E8-8937-16326EFE75E3";
shapes = (
{
closed = 1;
nodes = (
(586.045,474.776,ls),
(586.045,565.853,o),
(511.955,639.958,o),
(420.877,639.958,cs),
(93.11,639.958,ls),
(85.307,639.958,o),
(79,633.65,o),
(79,625.848,cs),
(79,0.027,l),
(94.577,0.027,o),
(107.219,12.669,o),
(107.219,28.247,cs),
(107.219,300.507,l),
(420.878,300.507,ls),
(424.08,300.507,o),
(427.213,300.803,o),
(430.373,300.987,c),
(500.639,300.507,o),
(557.826,238.989,o),
(557.826,163.361,cs),
(557.826,28.247,ls),
(557.826,12.669,o),
(570.468,0.027,o),
(586.045,0.027,c),
(586.045,163.361,ls),
(586.045,232.018,o),
(546.44,290.997,o),
(490.227,315.971,c),
(546.708,342.243,o),
(586.045,399.373,o),
(586.045,465.675,c)
);
},
{
closed = 1;
nodes = (
(107.219,328.726,l),
(107.219,611.724,l),
(420.877,611.724,ls),
(496.392,611.724,o),
(557.826,550.29,o),
(557.826,474.761,cs),
(557.826,465.661,ls),
(557.826,390.146,o),
(496.392,328.726,o),
(420.877,328.726,cs)
);
}
);
width = 654;
}
);
unicode = 82;
},
{
glyphname = S;
layers = (
{
hints = (
{
origin = (0,41);
target = (0,2);
type = Stem;
},
{
origin = (0,29);
target = (0,14);
type = Stem;
},
{
horizontal = 1;
origin = (0,26);
target = (0,56);
type = Stem;
},
{
horizontal = 1;
origin = (0,47);
target = up;
type = BottomGhost;
}
);
layerId = "C858EFCA-0EF1-49E8-8937-16326EFE75E3";
shapes = (
{
closed = 1;
nodes = (
(201.424,354.286,o),
(87.3,371.1,o),
(80.22,474.38,c),
(80.13,522.57,o),
(115.48,553.11,o),
(145.15,570.27,cs),
(238.98,624.49,o),
(408.01,625.59,o),
(499.71,572.56,cs),
(531.43,554.21,o),
(551.04,531.47,o),
(558.29,504.7,cs),
(562.2,490.3,o),
(574.76,479.97,o),
(589.7,479.94,c),
(589.8,527.76,o),
(563.56,568.22,o),
(513.84,596.98,cs),
(412.94,655.32,o),
(234.05,654.26,o),
(131.03,594.69,cs),
(79.24,564.77,o),
(51.93,523.14,o),
(52.03,473.38,c),
(60.69,346.48,o),
(191.569,327.183,o),
(318.12,308.52,cs),
(439.749,290.583,o),
(554.63,273.64,o),
(561.47,168.72,c),
(561.54,119.2,o),
(525.33,87.87,o),
(494.96,70.29,cs),
(401.35,16.15,o),
(233.32,14.69,o),
(142.45,67.23,cs),
(110.35,85.77,o),
(90.56,108.93,o),
(83.33,136.27,cs),
(79.53,150.69,o),
(66.91,160.98,o),
(52,160.99,c),
(51.93,112.55,o),
(78.33,71.69,o),
(128.33,42.78,cs),
(177.39,14.43,o),
(245.16,0.34,o),
(313.65,0.34,cs),
(384.8,0.34,o),
(456.71,15.56,o),
(509.09,45.86,cs),
(561.91,76.37,o),
(589.77,118.89,o),
(589.67,169.64,c),
(581.31,298.22,o),
(449.614,317.666,o),
(322.24,336.46,cs)
);
}
);
width = 642;
}
);
leftKerningGroup = S2;
rightKerningGroup = S;
unicode = 83;
},
{
glyphname = T;
layers = (
{
hints = (
{
origin = (0,4);
target = (0,9);
type = Stem;
},
{
horizontal = 1;
origin = (0,3);
target = (0,0);
type = Stem;
},
{
horizontal = 1;
origin = (0,5);
target = up;
type = BottomGhost;
}
);
layerId = "C858EFCA-0EF1-49E8-8937-16326EFE75E3";
shapes = (
{
closed = 1;
nodes = (
(41.219,639.887,ls),
(25.642,639.887,o),
(13,627.259,o),
(13,611.668,c),
(238.868,611.668,l),
(238.868,0.168,l),
(254.459,0.168,o),
(267.087,12.811,o),
(267.087,28.388,cs),
(267.087,611.668,l),
(464.735,611.668,ls),
(480.327,611.668,o),
(492.955,624.296,o),
(492.955,639.887,c)
);
}
);
width = 505;
}
);
unicode = 84;
},
{
glyphname = U.alt1;
layers = (
{
hints = (
{
origin = (0,6);
target = (0,3);
type = Stem;
},
{
origin = (1,13);
target = (1,10);
type = Stem;
},
{
horizontal = 1;
origin = (1,10);
target = down;
type = TopGhost;
},
{
horizontal = 1;
origin = (1,6);
target = up;
type = BottomGhost;
}
);
layerId = "C858EFCA-0EF1-49E8-8937-16326EFE75E3";
shapes = (
{
closed = 1;
nodes = (
(156.362,76.63,o),
(108.219,153.781,o),
(108.219,238.383,cs),
(108.219,614.491,ls),
(108.219,630.082,o),
(95.577,642.71,o),
(80,642.71,c),
(80,238.397,ls),
(80,132.814,o),
(146.612,37.532,o),
(245.746,1.312,c),
(251.066,15.873,o),
(244.237,31.676,o),
(230.423,38.731,cs)
);
},
{
closed = 1;
nodes = (
(556.456,238.397,ls),
(556.456,152.215,o),
(507.058,74.414,o),
(431.105,37.137,cs),
(417.207,30.308,o),
(410.138,14.618,o),
(415.218,0,c),
(516.582,35.232,o),
(584.675,131.037,o),
(584.675,238.397,cs),
(584.675,642.71,l),
(569.098,642.71,o),
(556.456,630.082,o),
(556.456,614.49,c)
);
}
);
width = 665;
}
);
},
{
glyphname = V;
layers = (
{
hints = (
{
horizontal = 1;
origin = (0,12);
target = down;
type = TopGhost;
},
{
horizontal = 1;
origin = (0,8);
target = up;
type = BottomGhost;
}
);
layerId = "C858EFCA-0EF1-49E8-8937-16326EFE75E3";
shapes = (
{
closed = 1;
nodes = (
(327.06,47.266,l),
(61.488,611.639,ls),
(53.375,628.867,o),
(36.048,639.873,o),
(17,639.873,c),
(314.291,8.126,ls),
(316.621,3.175,o),
(321.6,0.027,o),
(327.06,0.027,cs),
(332.521,0.027,o),
(337.505,3.186,o),
(339.829,8.126,cs),
(637.134,639.873,l),
(618.086,639.873,o),
(600.76,628.881,o),
(592.647,611.639,cs)
);
}
);
width = 655;
}
);
unicode = 86;
},
{
glyphname = W;
layers = (
{
hints = (
{
horizontal = 1;
origin = (0,28);
target = down;
type = TopGhost;
},
{
horizontal = 1;
origin = (0,16);
target = up;
type = BottomGhost;
}
);
layerId = "C858EFCA-0EF1-49E8-8937-16326EFE75E3";
shapes = (
{
closed = 1;
nodes = (
(495.581,55.394,l),
(370.498,530.156,ls),
(368.452,537.93,o),
(361.426,543.349,o),
(353.383,543.349,cs),
(345.341,543.349,o),
(338.314,537.93,o),
(336.268,530.156,cs),
(211.172,55.394,l),
(64.615,611.654,ls),
(60.227,628.275,o),
(45.2,639.873,o),
(28,639.873,c),
(192.843,14.207,ls),
(195.036,5.884,o),
(202.565,0.084,o),
(211.172,0.084,cs),
(219.779,0.084,o),
(227.313,5.883,o),
(229.5,14.207,cs),
(353.383,484.384,l),
(477.252,14.207,ls),
(479.439,5.883,o),
(486.974,0.084,o),
(495.581,0.084,cs),
(504.188,0.084,o),
(511.716,5.884,o),
(513.909,14.207,cs),
(678.767,639.873,l),
(661.567,639.873,o),
(646.54,628.289,o),
(642.152,611.654,c)
);
}
);
width = 707;
}
);
unicode = 87;
},
{
glyphname = X;
layers = (
{
hints = (
{
horizontal = 1;
origin = (0,1);
target = down;
type = TopGhost;
},
{
horizontal = 1;
origin = (0,11);
target = up;
type = BottomGhost;
}
);
layerId = "C858EFCA-0EF1-49E8-8937-16326EFE75E3";
shapes = (
{
closed = 1;
nodes = (
(309.606,319.936,l),
(558.473,639.887,l),
(535.926,639.887,o),
(514.634,629.474,o),
(500.792,611.668,cs),
(291.743,342.907,l),
(82.695,611.668,ls),
(68.853,629.474,o),
(47.561,639.887,o),
(25.014,639.887,c),
(273.881,319.936,l),
(25,-0.029,l),
(47.561,-0.029,o),
(68.853,10.384,o),
(82.694,28.19,cs),
(291.743,296.951,l),
(500.792,28.19,ls),
(514.634,10.384,o),
(535.94,-0.029,o),
(558.487,-0.029,c)
);
}
);
width = 584;
}
);
unicode = 88;
},
{
glyphname = Y;
layers = (
{
hints = (
{
origin = (0,5);
target = (0,10);
type = Stem;
},
{
horizontal = 1;
origin = (0,4);
target = down;
type = TopGhost;
},
{
horizontal = 1;
origin = (0,6);
target = up;
type = BottomGhost;
}
);
layerId = "C858EFCA-0EF1-49E8-8937-16326EFE75E3";
shapes = (
{
closed = 1;
nodes = (
(262.68,343.85,l),
(67.46,611.68,ls),
(54.54,629.4,o),
(33.94,639.89,o),
(12,639.89,c),
(247.95,316.18,l),
(247.95,-0.04,l),
(263.53,-0.04,o),
(276.17,12.6,o),
(276.17,28.18,cs),
(276.17,314.49,l),
(513.36,639.89,l),
(491.43,639.89,o),
(470.82,629.4,o),
(457.91,611.68,cs)
);
}
);
width = 526;
}
);
leftKerningGroup = Y2;
rightKerningGroup = Y;
unicode = 89;
},
{
glyphname = Z;
layers = (
{
hints = (
{
horizontal = 1;
origin = (0,14);
target = (0,18);
type = Stem;
},
{
horizontal = 1;
origin = (0,6);
target = (0,3);
type = Stem;
}
);
layerId = "C858EFCA-0EF1-49E8-8937-16326EFE75E3";
shapes = (
{
closed = 1;
nodes = (
(524.253,638.05,o),
(519.343,641.13,o),
(513.953,641.13,cs),
(67.333,641.13,ls),
(51.743,641.13,o),
(39.113,628.49,o),
(39.113,612.91,c),
(485.183,612.91,l),
(27.953,22.76,ls),
(24.653,18.5,o),
(24.073,12.73,o),
(26.443,7.89,cs),
(28.813,3.06,o),
(33.743,-0.015,o),
(39.103,0,cs),
(519.103,1.37,l),
(519.063,16.95,o),
(506.383,29.544,o),
(490.793,29.5,cs),
(67.953,28.3,l),
(525.113,618.38,ls),
(528.413,622.65,o),
(528.993,628.4,o),
(526.623,633.23,cs)
);
}
);
width = 554;
}
);
leftKerningGroup = Z2;
rightKerningGroup = Z;
unicode = 90;
},
{
glyphname = bracketleft;
layers = (
{
hints = (
{
origin = (0,6);
target = (0,18);
type = Stem;
},
{
horizontal = 1;
origin = (0,3);
target = down;
type = TopGhost;
},
{
horizontal = 1;
origin = (0,10);
target = up;
type = BottomGhost;
}
);
layerId = "C858EFCA-0EF1-49E8-8937-16326EFE75E3";
shapes = (
{
closed = 1;
nodes = (
(163.813,612.473,o),
(173.097,623.732,o),
(173.097,637.362,cs),
(173.097,639.944,l),
(121.216,639.944,o),
(79,599.309,o),
(79,549.36,cs),
(79,90.584,ls),
(79,40.636,o),
(121.216,0,o),
(173.112,0,c),
(173.112,2.582,ls),
(173.112,16.212,o),
(163.813,27.472,o),
(150.917,31.86,cs),
(125.477,40.509,o),
(107.233,63.564,o),
(107.233,90.584,cs),
(107.233,549.36,ls),
(107.233,576.38,o),
(125.477,599.436,o),
(150.903,608.085,cs)
);
}
);
width = 244;
}
);
unicode = 91;
},
{
glyphname = backslash;
layers = (
{
layerId = "C858EFCA-0EF1-49E8-8937-16326EFE75E3";
shapes = (
{
closed = 1;
nodes = (
(98.23,613.408,ls),
(94.449,628.519,o),
(79.126,637.719,o),
(64,633.937,c),
(217.132,21.38,ls),
(220.914,6.254,o),
(236.237,-2.931,o),
(251.362,0.85,c)
);
}
);
width = 316;
}
);
unicode = 92;
},
{
glyphname = bracketright;
layers = (
{
hints = (
{
origin = (0,6);
target = (0,18);
type = Stem;
},
{
horizontal = 1;
origin = (0,14);
target = up;
type = BottomGhost;
},
{
horizontal = 1;
origin = (0,21);
target = down;
type = TopGhost;
}
);
layerId = "C858EFCA-0EF1-49E8-8937-16326EFE75E3";
shapes = (
{
closed = 1;
nodes = (
(70,637.362,ls),
(70,623.732,o),
(79.298,612.473,o),
(92.195,608.085,cs),
(117.634,599.45,o),
(135.878,576.38,o),
(135.878,549.36,cs),
(135.878,90.584,ls),
(135.878,63.564,o),
(117.634,40.509,o),
(92.195,31.86,cs),
(79.284,27.472,o),
(70,16.212,o),
(70,2.582,cs),
(70,0,l),
(121.895,0,o),
(164.112,40.636,o),
(164.112,90.584,cs),
(164.112,549.36,ls),
(164.112,599.309,o),
(121.895,639.944,o),
(70,639.944,c)
);
}
);
width = 244;
}
);
unicode = 93;
},
{
glyphname = asciicircum;
layers = (
{
hints = (
{
horizontal = 1;
origin = (0,4);
target = up;
type = BottomGhost;
}
);
layerId = "C858EFCA-0EF1-49E8-8937-16326EFE75E3";
shapes = (
{
closed = 1;
nodes = (
(181.03,511.94,l),
(264.39,345.22,ls),
(273.04,327.92,o),
(290.72,317,o),
(310.05,317,c),
(193.66,549.81,ls),
(188.872,559.386,o),
(173.22,559.38,o),
(168.42,549.81,cs),
(52,317,l),
(71.33,317,o),
(89.01,327.92,o),
(97.66,345.22,c)
);
}
);
width = 363;
}
);
unicode = 94;
},
{
glyphname = underscore;
layers = (
{
hints = (
{
horizontal = 1;
origin = (0,3);
target = (0,0);
type = Stem;
}
);
layerId = "C858EFCA-0EF1-49E8-8937-16326EFE75E3";
shapes = (
{
closed = 1;
nodes = (
(64.22,28.22,ls),
(48.64,28.22,o),
(36,15.59,o),
(36,0,c),
(487.74,0,ls),
(503.31,0,o),
(515.95,12.64,o),
(515.95,28.22,c)
);
}
);
width = 552;
}
);
unicode = 95;
},
{
glyphname = grave;
layers = (
{
layerId = "C858EFCA-0EF1-49E8-8937-16326EFE75E3";
shapes = (
{
closed = 1;
nodes = (
(84.9,88.25,ls),
(73.88,99.27,o),
(56.02,99.27,o),
(45,88.25,c),
(185.04,-51.74,ls),
(196.06,-62.75,o),
(213.92,-62.75,o),
(224.94,-51.74,c)
);
}
);
width = 218;
}
);
unicode = 96;
},
{
glyphname = a;
layers = (
{
hints = (
{
origin = (0,20);
target = (0,17);
type = Stem;
},
{
horizontal = 1;
origin = (0,9);
target = (0,16);
type = Stem;
},
{
horizontal = 1;
origin = (1,5);
target = (0,3);
type = Stem;
}
);
layerId = "C858EFCA-0EF1-49E8-8937-16326EFE75E3";
shapes = (
{
closed = 1;
nodes = (
(498.601,353.09,l),
(458.161,428.56,o),
(378.591,479.93,o),
(286.981,479.93,c),
(145.451,479.95,o),
(32.531,357.42,o),
(48.511,212.65,cs),
(60.661,102.61,o),
(149.621,13.674,o),
(259.651,1.52,cs),
(362.721,-9.866,o),
(454.261,44.25,o),
(498.601,127.36,c),
(498.601,0.01,l),
(514.261,0.01,o),
(526.961,12.71,o),
(526.961,28.37,cs),
(526.961,479.95,l),
(511.301,479.95,o),
(498.601,467.25,o),
(498.601,451.59,c)
);
},
{
closed = 1;
nodes = (
(175.751,22.78,o),
(75.221,119.85,o),
(75.221,239.97,cs),
(75.221,356.73,o),
(170.211,451.73,o),
(286.981,451.73,cs),
(407.101,451.73,o),
(504.171,351.2,o),
(498.501,229.85,cs),
(493.461,122.13,o),
(404.821,33.49,o),
(297.101,28.45,cs)
);
}
);
width = 599;
}
);
leftKerningGroup = a2;
rightKerningGroup = a;
unicode = 97;
},
{
glyphname = b;
layers = (
{
hints = (
{
origin = (0,6);
target = (0,3);
type = Stem;
},
{
origin = (1,8);
target = (0,17);
type = Stem;
},
{
horizontal = 1;
origin = (0,7);
target = (0,10);
type = Stem;
},
{
horizontal = 1;
origin = (1,5);
target = (0,20);
type = Stem;
},
{
horizontal = 1;
origin = (0,3);
target = down;
type = TopGhost;
}
);
layerId = "C858EFCA-0EF1-49E8-8937-16326EFE75E3";
shapes = (
{
closed = 1;
nodes = (
(220.25,480.6,o),
(140.6,429.1,o),
(100.22,353.47,c),
(100.22,639.92,l),
(84.64,639.92,o),
(72,627.29,o),
(72,611.7,cs),
(72,0.64,l),
(87.58,0.64,o),
(100.22,13.27,o),
(100.22,28.86,cs),
(100.22,127.77,l),
(140.6,52.14,o),
(220.25,0.64,o),
(311.98,0.64,cs),
(444.51,0.64,o),
(551.95,108.09,o),
(551.95,240.62,cs),
(551.95,373.15,o),
(444.51,480.6,o),
(311.98,480.6,c)
);
},
{
closed = 1;
nodes = (
(195.22,28.86,o),
(100.22,123.85,o),
(100.22,240.62,cs),
(100.22,357.39,o),
(195.22,452.38,o),
(311.98,452.38,cs),
(428.73,452.38,o),
(523.74,357.39,o),
(523.74,240.62,cs),
(523.74,123.85,o),
(428.75,28.86,o),
(311.98,28.86,cs)
);
}
);
width = 599;
}
);
unicode = 98;
},
{
glyphname = c;
layers = (
{
hints = (
{
horizontal = 1;
origin = (0,23);
target = (0,2);
type = Stem;
}
);
layerId = "C858EFCA-0EF1-49E8-8937-16326EFE75E3";
shapes = (
{
closed = 1;
nodes = (
(389.105,47.18,o),
(339.325,28.23,o),
(287.615,28.23,cs),
(169.235,28.23,o),
(73.175,125.58,o),
(75.245,244.41,cs),
(77.155,352.73,o),
(163.545,444.38,o),
(271.585,452.4,cs),
(331.915,456.87,o),
(389.935,435.9,o),
(432.925,395.51,cs),
(444.205,384.93,o),
(461.335,383.83,o),
(473.255,393.67,c),
(418.495,460.02,o),
(332.795,492.63,o),
(245.585,477.6,cs),
(138.985,459.23,o),
(56.765,368.78,o),
(47.845,260.97,cs),
(36.105,119.16,o),
(148.205,0,o),
(287.615,0,cs),
(355.965,0,o),
(421.335,29.24,o),
(466.945,80.2,c),
(465.715,81.3,ls),
(454.845,91.04,o),
(438.625,90.56,o),
(427.635,80.93,cs)
);
}
);
width = 508;
}
);
leftKerningGroup = a2;
unicode = 99;
},
{
glyphname = d;
layers = (
{
hints = (
{
origin = (0,6);
target = (1,2);
type = Stem;
},
{
origin = (1,8);
target = (0,16);
type = Stem;
},
{
horizontal = 1;
origin = (0,9);
target = (1,11);
type = Stem;
},
{
horizontal = 1;
origin = (1,5);
target = (0,3);
type = Stem;
},
{
horizontal = 1;
origin = (0,17);
target = down;
type = TopGhost;
}
);
layerId = "C858EFCA-0EF1-49E8-8937-16326EFE75E3";
shapes = (
{
closed = 1;
nodes = (
(498.74,352.85,l),
(458.35,428.48,o),
(378.7,479.98,o),
(286.98,479.98,cs),
(154.45,479.98,o),
(47,372.53,o),
(47,240,cs),
(47,107.47,o),
(154.45,0.02,o),
(286.98,0.02,cs),
(378.7,0.02,o),
(458.34,51.52,o),
(498.74,127.15,c),
(498.74,0.02,l),
(514.31,0.02,o),
(526.95,12.65,o),
(526.95,28.24,cs),
(526.95,639.92,l),
(511.38,639.92,o),
(498.74,627.29,o),
(498.74,611.7,cs)
);
},
{
closed = 1;
nodes = (
(170.22,28.25,o),
(75.22,123.24,o),
(75.22,240.01,cs),
(75.22,356.78,o),
(170.22,451.77,o),
(286.98,451.77,cs),
(403.73,451.77,o),
(498.74,356.78,o),
(498.74,240.01,cs),
(498.74,123.24,o),
(403.75,28.25,o),
(286.98,28.25,cs)
);
}
);
width = 599;
}
);
rightKerningGroup = H;
unicode = 100;
},
{
glyphname = e;
layers = (
{
hints = (
{
origin = (1,6);
target = (0,3);
type = Stem;
},
{
horizontal = 1;
origin = (0,12);
target = (0,21);
type = Stem;
},
{
horizontal = 1;
origin = (0,24);
target = (1,0);
type = Stem;
},
{
horizontal = 1;
origin = (1,3);
target = (0,6);
type = Stem;
}
);
layerId = "C858EFCA-0EF1-49E8-8937-16326EFE75E3";
shapes = (
{
closed = 1;
nodes = (
(526.211,225.86,l),
(526.511,230.7,o),
(526.941,235.51,o),
(526.941,240.42,cs),
(526.941,381.127,o),
(404.374,495.206,o),
(259.651,478.89,cs),
(149.573,466.48,o),
(60.661,376.974,o),
(48.511,267.661,cs),
(32.531,122.99,o),
(145.451,0.46,o),
(286.981,0.46,cs),
(391.251,0.46,o),
(479.731,67.08,o),
(511.941,159.98,c),
(494.621,159.98,o),
(479.181,150.15,o),
(470.551,135.14,cs),
(432.971,69.85,o),
(361.651,26.357,o),
(280.531,28.78,cs),
(172.801,31.997,o),
(83.211,118.74,o),
(75.871,225.87,c)
);
},
{
closed = 1;
nodes = (
(75.731,254.08,l),
(82.801,363.771,o),
(174.811,450.89,o),
(286.971,450.89,cs),
(399.121,450.89,o),
(490.931,363.751,o),
(498.031,254.08,c)
);
}
);
width = 572;
}
);
leftKerningGroup = a2;
rightKerningGroup = e;
unicode = 101;
},
{
glyphname = f;
layers = (
{
hints = (
{
origin = (0,17);
target = (0,22);
type = Stem;
},
{
horizontal = 1;
origin = (0,16);
target = (0,13);
type = Stem;
},
{
horizontal = 1;
origin = (0,3);
target = (0,8);
type = Stem;
},
{
horizontal = 1;
origin = (0,18);
target = up;
type = BottomGhost;
}
);
layerId = "C858EFCA-0EF1-49E8-8937-16326EFE75E3";
shapes = (
{
closed = 1;
nodes = (
(125.12,505.9,ls),
(125.12,564.32,o),
(172.49,611.69,o),
(230.92,611.69,cs),
(242.77,611.69,ls),
(258.35,611.69,o),
(270.99,624.32,o),
(270.99,639.91,c),
(230.93,639.91,ls),
(156.91,639.91,o),
(96.9,579.9,o),
(96.9,505.88,cs),
(96.9,479.92,l),
(59.22,479.92,ls),
(43.64,479.92,o),
(31,467.29,o),
(31,451.7,c),
(96.9,451.7,l),
(96.9,-0.01,l),
(112.48,-0.01,o),
(125.12,12.62,o),
(125.12,28.21,cs),
(125.12,451.7,l),
(242.76,451.7,ls),
(258.33,451.7,o),
(270.97,464.33,o),
(270.97,479.92,c),
(125.12,479.92,l)
);
}
);
width = 290;
}
);
unicode = 102;
},
{
glyphname = g;
layers = (
{
hints = (
{
origin = (0,17);
target = (1,12);
type = Stem;
},
{
origin = (1,5);
target = (0,6);
type = Stem;
},
{
horizontal = 1;
origin = (0,32);
target = (2,2);
type = Stem;
},
{
horizontal = 1;
origin = (2,8);
target = (0,38);
type = Stem;
},
{
horizontal = 1;
origin = (0,3);
target = (0,20);
type = Stem;
},
{
horizontal = 1;
origin = (0,9);
target = (0,13);
type = Stem;
}
);
layerId = "C858EFCA-0EF1-49E8-8937-16326EFE75E3";
shapes = (
{
closed = 1;
nodes = (
(293.45,160.11,l),
(294.3,160.11,o),
(295.13,160.02,o),
(295.98,160.02,c),
(428.51,160.02,o),
(535.95,231.65,o),
(535.95,320.01,cs),
(535.95,374.72,o),
(494.71,422.96,o),
(431.9,451.8,c),
(507.74,451.8,ls),
(523.31,451.8,o),
(535.95,464.43,o),
(535.95,480.02,c),
(295.96,480.02,ls),
(163.43,480.02,o),
(56,408.36,o),
(56,320,cs),
(56,265.24,o),
(97.31,216.97,o),
(160.23,188.12,c),
(102.42,186.04,o),
(56,138.48,o),
(56,80.18,cs),
(56,26.67,o),
(95.11,-17.76,o),
(146.2,-26.35,c),
(91.27,-48.33,o),
(56,-82.1,o),
(56,-120.01,cs),
(56,-186.28,o),
(163.45,-240,o),
(295.98,-240,cs),
(428.51,-240,o),
(535.95,-186.28,o),
(535.95,-120.01,cs),
(535.95,-53.74,o),
(428.52,-0.301,o),
(295.99,-0.02,cs),
(164.15,0.26,ls),
(120.09,0.354,o),
(84.23,36.11,o),
(84.23,80.18,cs),
(84.23,124.24,o),
(120.09,160.1,o),
(164.15,160.11,c)
);
},
{
closed = 1;
nodes = (
(84.23,391.44,o),
(181.21,451.78,o),
(295.99,451.78,cs),
(410.77,451.78,o),
(507.75,391.44,o),
(507.75,320.01,cs),
(507.75,248.59,o),
(410.79,188.26,o),
(296.01,188.24,c),
(293.38,188.33,l),
(179.76,189.25,o),
(84.23,249.13,o),
(84.23,320.01,c)
);
},
{
closed = 1;
nodes = (
(507.75,-172.5,o),
(395.96,-211.75,o),
(295.99,-211.75,cs),
(196.02,-211.75,o),
(84.23,-172.51,o),
(84.23,-119.98,cs),
(84.23,-67.45,o),
(196.02,-28.21,o),
(295.99,-28.21,cs),
(395.96,-28.21,o),
(507.75,-67.45,o),
(507.75,-119.98,cs)
);
}
);
width = 577;
}
);
unicode = 103;
},
{
glyphname = h;
layers = (
{
hints = (
{
origin = (0,6);
target = (0,3);
type = Stem;
},
{
origin = (0,17);
target = (0,22);
type = Stem;
},
{
horizontal = 1;
origin = (0,14);
target = (0,25);
type = Stem;
},
{
horizontal = 1;
origin = (0,7);
target = up;
type = BottomGhost;
},
{
horizontal = 1;
origin = (0,3);
target = down;
type = TopGhost;
}
);
layerId = "C858EFCA-0EF1-49E8-8937-16326EFE75E3";
shapes = (
{
closed = 1;
nodes = (
(199.309,475.823,o),
(135.1,431.02,o),
(100.22,367.85,c),
(100.22,639.92,l),
(84.64,639.92,o),
(72,627.29,o),
(72,611.7,cs),
(72,0.06,l),
(87.58,0.06,o),
(100.22,12.69,o),
(100.22,28.28,cs),
(100.29,265.75,ls),
(100.29,371.35,o),
(188.8,456.65,o),
(295.53,451.38,cs),
(395.37,446.45,o),
(472.04,360.31,o),
(472.04,260.33,cs),
(472.04,0.09,l),
(487.61,0.09,o),
(500.26,12.72,o),
(500.26,28.31,cs),
(500.26,265.73,ls),
(500.26,387.35,o),
(398.309,485.623,o),
(275.39,479.57,cs)
);
}
);
width = 563;
}
);
unicode = 104;
},
{
glyphname = i;
layers = (
{
hints = (
{
origin = (1,8);
target = (1,2);
type = Stem;
},
{
origin = (0,7);
target = (0,4);
type = Stem;
},
{
horizontal = 1;
origin = (1,11);
target = (1,5);
type = Stem;
},
{
horizontal = 1;
origin = (0,0);
target = up;
type = BottomGhost;
},
{
horizontal = 1;
origin = (0,4);
target = down;
type = TopGhost;
}
);
layerId = "C858EFCA-0EF1-49E8-8937-16326EFE75E3";
shapes = (
{
closed = 1;
nodes = (
(72.46,0,l),
(88.04,0,o),
(100.68,12.64,o),
(100.68,28.22,cs),
(100.68,480,l),
(85.11,480,o),
(72.46,467.35,o),
(72.46,451.78,cs)
);
},
{
closed = 1;
nodes = (
(103.56,580.3,o),
(116.99,593.73,o),
(116.99,610.3,cs),
(116.99,626.87,o),
(103.56,640.3,o),
(87,640.3,cs),
(70.43,640.3,o),
(57,626.87,o),
(57,610.3,cs),
(57,593.73,o),
(70.43,580.3,o),
(87,580.3,cs)
);
}
);
width = 173;
}
);
rightKerningGroup = i;
unicode = 105;
},
{
glyphname = j;
layers = (
{
hints = (
{
origin = (1,8);
target = (1,2);
type = Stem;
},
{
origin = (0,13);
target = (0,10);
type = Stem;
},
{
horizontal = 1;
origin = (1,11);
target = (1,5);
type = Stem;
},
{
horizontal = 1;
origin = (0,6);
target = up;
type = BottomGhost;
},
{
horizontal = 1;
origin = (0,10);
target = down;
type = TopGhost;
}
);
layerId = "C858EFCA-0EF1-49E8-8937-16326EFE75E3";
shapes = (
{
closed = 1;
nodes = (
(72.894,-65.908,ls),
(72.894,-137.909,o),
(20.462,-197.876,o),
(-48.209,-209.671,cs),
(-62.714,-212.169,o),
(-73,-225.277,o),
(-73,-239.993,c),
(23.016,-239.993,o),
(101.113,-161.896,o),
(101.113,-65.894,cs),
(101.113,479.925,l),
(85.522,479.925,o),
(72.894,467.283,o),
(72.894,451.706,c)
);
},
{
closed = 1;
nodes = (
(103.557,580.273,o),
(116.987,593.703,o),
(116.987,610.27,cs),
(116.987,626.837,o),
(103.557,640.267,o),
(86.99,640.267,cs),
(70.423,640.267,o),
(56.992,626.837,o),
(56.992,610.27,cs),
(56.992,593.703,o),
(70.423,580.273,o),
(86.99,580.273,cs)
);
}
);
width = 174;
}
);
rightKerningGroup = i;
unicode = 106;
},
{
glyphname = k;
layers = (
{
hints = (
{
origin = (0,8);
target = (0,5);
type = Stem;
},
{
horizontal = 1;
origin = (0,9);
target = up;
type = BottomGhost;
},
{
horizontal = 1;
origin = (0,5);
target = down;
type = TopGhost;
}
);
layerId = "C858EFCA-0EF1-49E8-8937-16326EFE75E3";
shapes = (
{
closed = 1;
nodes = (
(416.36,469.32,l),
(406.1,481.06,o),
(388.28,482.25,o),
(376.54,471.99,cs),
(101.22,231.07,l),
(101.22,639.92,l),
(85.64,639.92,o),
(73,629.02,o),
(73,613.43,cs),
(73,-0.01,l),
(88.57,-0.01,o),
(101.22,12.62,o),
(101.22,28.21,cs),
(101.22,174.52,l),
(375.66,2.98,ls),
(388.88,-5.27,o),
(406.28,-1.26,o),
(414.55,11.94,c),
(110.7,201.85,l)
);
}
);
width = 444;
}
);
unicode = 107;
},
{
glyphname = l;
layers = (
{
hints = (
{
origin = (0,7);
target = (0,4);
type = Stem;
},
{
horizontal = 1;
origin = (0,0);
target = up;
type = BottomGhost;
},
{
horizontal = 1;
origin = (0,4);
target = down;
type = TopGhost;
}
);
layerId = "C858EFCA-0EF1-49E8-8937-16326EFE75E3";
shapes = (
{
closed = 1;
nodes = (
(73,-0.01,l),
(88.58,-0.01,o),
(101.22,12.62,o),
(101.22,28.21,cs),
(101.22,639.92,l),
(85.64,639.92,o),
(73,627.29,o),
(73,611.7,cs)
);
}
);
width = 175;
}
);
rightKerningGroup = H;
unicode = 108;
},
{
glyphname = m;
layers = (
{
hints = (
{
origin = (0,12);
target = (0,9);
type = Stem;
},
{
origin = (0,26);
target = (0,31);
type = Stem;
},
{
origin = (0,37);
target = (0,42);
type = Stem;
},
{
horizontal = 1;
origin = (0,34);
target = (0,45);
type = Stem;
},
{
horizontal = 1;
origin = (0,16);
target = up;
type = BottomGhost;
}
);
layerId = "C858EFCA-0EF1-49E8-8937-16326EFE75E3";
shapes = (
{
closed = 1;
nodes = (
(546.485,479.987,o),
(477.3,429.538,o),
(447.76,356.19,c),
(419.432,428.703,o),
(348.914,479.99,o),
(266.446,479.99,cs),
(197.512,479.99,o),
(135.99,442.384,o),
(101.22,383.3,c),
(101.22,479.95,l),
(85.65,479.95,o),
(73,467.32,o),
(73,451.73,c),
(73,436.298,o),
(73,297.406,o),
(73,280.27,c),
(73,-0.01,l),
(88.58,-0.01,o),
(101.22,12.62,o),
(101.22,28.21,cs),
(101.22,286.15,l),
(101.38,382.77,o),
(184.54,460.28,o),
(281.494,451.156,cs),
(369.01,442.92,o),
(432.96,367.37,o),
(432.96,281.03,cs),
(432.96,0.04,l),
(448.53,0.04,o),
(461.16,12.68,o),
(461.16,28.25,cs),
(461.16,285.88,ls),
(461.16,382.62,o),
(544.41,460.28,o),
(641.455,451.147,cs),
(728.98,442.91,o),
(792.92,367.35,o),
(792.92,281.02,cs),
(792.92,0.02,l),
(808.5,0.02,o),
(821.14,12.65,o),
(821.14,28.24,cs),
(821.14,285.87,ls),
(821.14,393.176,o),
(733.612,479.987,o),
(627.43,479.987,cs)
);
}
);
width = 886;
}
);
leftKerningGroup = m2;
rightKerningGroup = m;
unicode = 109;
},
{
glyphname = n;
layers = (
{
hints = (
{
origin = (0,6);
target = (0,3);
type = Stem;
},
{
origin = (0,17);
target = (0,22);
type = Stem;
},
{
horizontal = 1;
origin = (0,14);
target = (0,25);
type = Stem;
},
{
horizontal = 1;
origin = (0,7);
target = up;
type = BottomGhost;
}
);
layerId = "C858EFCA-0EF1-49E8-8937-16326EFE75E3";
shapes = (
{
closed = 1;
nodes = (
(208.262,478.765,o),
(138.861,434.936,o),
(101.22,366.86,c),
(101.22,479.95,l),
(85.64,479.95,o),
(73,467.32,o),
(73,451.73,cs),
(73,-0.01,l),
(88.58,-0.01,o),
(101.22,12.62,o),
(101.22,28.21,cs),
(101.22,264.63,ls),
(101.22,366.741,o),
(183.978,450.554,o),
(286.026,450.554,cs),
(390.152,450.554,o),
(472.97,363.291,o),
(472.97,259.23,cs),
(472.97,0.05,l),
(488.54,0.05,o),
(501.19,12.68,o),
(501.19,28.27,cs),
(501.19,264.63,ls),
(501.19,383.27,o),
(404.175,478.765,o),
(286.436,478.765,cs)
);
}
);
width = 564;
}
);
leftKerningGroup = m2;
rightKerningGroup = m;
unicode = 110;
},
{
glyphname = o;
layers = (
{
hints = (
{
origin = (0,2);
target = (1,2);
type = Stem;
},
{
origin = (1,8);
target = (0,8);
type = Stem;
},
{
horizontal = 1;
origin = (0,5);
target = (1,11);
type = Stem;
},
{
horizontal = 1;
origin = (1,5);
target = (0,11);
type = Stem;
}
);
layerId = "C858EFCA-0EF1-49E8-8937-16326EFE75E3";
shapes = (
{
closed = 1;
nodes = (
(154.45,479.93,o),
(47,372.49,o),
(47,239.96,cs),
(47,107.42,o),
(154.45,-0.02,o),
(286.98,-0.02,cs),
(419.51,-0.02,o),
(526.95,107.42,o),
(526.95,239.96,cs),
(526.95,372.49,o),
(419.51,479.93,o),
(286.98,479.93,cs)
);
},
{
closed = 1;
nodes = (
(170.22,28.2,o),
(75.22,123.18,o),
(75.22,239.96,cs),
(75.22,356.73,o),
(170.21,451.71,o),
(286.98,451.71,cs),
(403.75,451.71,o),
(498.74,356.73,o),
(498.74,239.96,cs),
(498.74,123.18,o),
(403.75,28.2,o),
(286.98,28.2,cs)
);
}
);
width = 574;
}
);
leftKerningGroup = a2;
rightKerningGroup = o;
unicode = 111;
},
{
glyphname = p;
layers = (
{
hints = (
{
origin = (0,6);
target = (0,3);
type = Stem;
},
{
origin = (1,8);
target = (0,17);
type = Stem;
},
{
horizontal = 1;
origin = (0,14);
target = (1,11);
type = Stem;
},
{
horizontal = 1;
origin = (1,5);
target = (0,20);
type = Stem;
},
{
horizontal = 1;
origin = (0,7);
target = up;
type = BottomGhost;
}
);
layerId = "C858EFCA-0EF1-49E8-8937-16326EFE75E3";
shapes = (
{
closed = 1;
nodes = (
(221.25,479.972,o),
(141.6,428.48,o),
(101.22,352.85,c),
(101.22,479.95,l),
(85.64,479.95,o),
(73,467.32,o),
(73,451.73,cs),
(73,-239.97,l),
(88.58,-239.97,o),
(101.22,-227.34,o),
(101.22,-211.75,cs),
(101.22,127.18,l),
(141.6,51.55,o),
(221.25,0.05,o),
(312.98,0.05,cs),
(445.51,0.05,o),
(552.95,107.49,o),
(552.95,240.03,cs),
(552.95,372.56,o),
(445.51,479.992,o),
(312.98,479.98,cs)
);
},
{
closed = 1;
nodes = (
(196.22,28.24,o),
(101.22,123.23,o),
(101.22,240,cs),
(101.22,356.77,o),
(196.22,451.76,o),
(312.98,451.76,cs),
(429.73,451.76,o),
(524.74,356.77,o),
(524.74,240,cs),
(524.74,123.23,o),
(429.75,28.24,o),
(312.98,28.24,cs)
);
}
);
width = 600;
}
);
leftKerningGroup = m2;
rightKerningGroup = o;
unicode = 112;
},
{
glyphname = q;
layers = (
{
hints = (
{
origin = (0,6);
target = (1,2);
type = Stem;
},
{
origin = (0,20);
target = (0,17);
type = Stem;
},
{
horizontal = 1;
origin = (0,9);
target = (1,11);
type = Stem;
},
{
horizontal = 1;
origin = (1,5);
target = (0,3);
type = Stem;
},
{
horizontal = 1;
origin = (0,16);
target = up;
type = BottomGhost;
}
);
layerId = "C858EFCA-0EF1-49E8-8937-16326EFE75E3";
shapes = (
{
closed = 1;
nodes = (
(498.735,352.832,l),
(458.339,428.474,o),
(378.704,479.974,o),
(286.977,479.974,cs),
(154.445,479.974,o),
(47,372.529,o),
(47,239.997,cs),
(47,107.465,o),
(154.445,0.02,o),
(286.977,0.02,cs),
(378.704,0.02,o),
(458.354,51.52,o),
(498.735,127.148,c),
(498.735,-211.781,ls),
(498.735,-227.358,o),
(511.364,-240,o),
(526.955,-240,c),
(526.955,451.713,ls),
(526.955,467.304,o),
(514.312,479.932,o),
(498.735,479.932,c)
);
},
{
closed = 1;
nodes = (
(170.22,28.239,o),
(75.219,123.225,o),
(75.219,239.997,cs),
(75.219,356.769,o),
(170.206,451.755,o),
(286.977,451.755,cs),
(403.749,451.755,o),
(498.735,356.755,o),
(498.735,239.997,cs),
(498.735,123.239,o),
(403.735,28.239,o),
(286.977,28.239,cs)
);
}
);
width = 600;
}
);
leftKerningGroup = a2;
rightKerningGroup = a;
unicode = 113;
},
{
glyphname = r;
layers = (
{
hints = (
{
origin = (0,6);
target = (0,3);
type = Stem;
},
{
horizontal = 1;
origin = (0,7);
target = up;
type = BottomGhost;
},
{
horizontal = 1;
origin = (0,3);
target = down;
type = TopGhost;
}
);
layerId = "C858EFCA-0EF1-49E8-8937-16326EFE75E3";
shapes = (
{
closed = 1;
nodes = (
(133.74,440.76,o),
(115.16,421.42,o),
(101.22,399.1,c),
(101.22,479.93,l),
(85.64,479.93,o),
(73,467.31,o),
(73,451.71,cs),
(73,-0.02,l),
(88.57,-0.02,o),
(101.22,12.61,o),
(101.22,28.2,cs),
(101.22,302.12,ls),
(101.22,354.2,o),
(126.94,404.11,o),
(171.71,430.7,cs),
(211.58,454.39,o),
(257.83,457.2,o),
(297.69,442.5,cs),
(311.44,437.44,o),
(326.8,443.77,o),
(334.14,456.44,c),
(281.47,486.93,o),
(213.68,488.68,o),
(156.95,454.68,cs)
);
}
);
width = 355;
}
);
leftKerningGroup = m2;
unicode = 114;
},
{
glyphname = s;
layers = (
{
hints = (
{
origin = (0,30);
target = (0,48);
type = Stem;
},
{
horizontal = 1;
origin = (0,27);
target = (0,51);
type = Stem;
},
{
horizontal = 1;
origin = (0,45);
target = up;
type = BottomGhost;
}
);
layerId = "C858EFCA-0EF1-49E8-8937-16326EFE75E3";
shapes = (
{
closed = 1;
nodes = (
(171.918,268.716,o),
(83.52,280.99,o),
(78.21,353.96,c),
(78.16,379.88,o),
(93.47,401.88,o),
(123.72,419.37,cs),
(197.28,461.89,o),
(334.82,462.78,o),
(406.69,421.21,cs),
(426.83,409.57,o),
(439.99,395.67,o),
(445.466,381.31,cs),
(450.87,367.14,o),
(461.97,358.1,o),
(475.45,358.07,c),
(478.19,358.07,l),
(478.26,393.6,o),
(458.43,423.89,o),
(420.83,445.62,cs),
(340.26,492.25,o),
(191.89,491.36,o),
(109.61,443.8,cs),
(70.54,421.21,o),
(49.94,390.13,o),
(50.04,352.92,c),
(57.07,256.18,o),
(161.059,241.742,o),
(261.63,227.79,cs),
(355.829,214.722,o),
(444.8,202.38,o),
(449.97,128.19,c),
(450.01,101.5,o),
(434.31,78.88,o),
(403.28,60.95,cs),
(329.89,18.48,o),
(193.11,17.32,o),
(121.87,58.51,cs),
(101.57,70.23,o),
(88.28,84.3,o),
(82.773,98.866,cs),
(77.32,113.29,o),
(66.03,122.48,o),
(50,122.49,c),
(50,25.431,o),
(185.018,0.16,o),
(258.47,0.16,c),
(335.183,0,o),
(478.41,28.023,o),
(478.17,129.2,c),
(471.4,227.17,o),
(366.748,241.696,o),
(265.48,255.74,cs)
);
}
);
width = 530;
}
);
unicode = 115;
},
{
glyphname = t;
layers = (
{
hints = (
{
origin = (0,19);
target = (0,4);
type = Stem;
},
{
horizontal = 1;
origin = (0,23);
target = (0,0);
type = Stem;
},
{
horizontal = 1;
origin = (0,4);
target = (0,9);
type = Stem;
},
{
horizontal = 1;
origin = (0,10);
target = down;
type = TopGhost;
}
);
layerId = "C858EFCA-0EF1-49E8-8937-16326EFE75E3";
shapes = (
{
closed = 1;
nodes = (
(229.82,28.34,ls),
(171.44,28.34,o),
(124.11,75.66,o),
(124.11,134.05,cs),
(124.11,451.77,l),
(241.76,451.77,ls),
(257.34,451.77,o),
(269.98,464.4,o),
(269.98,479.99,c),
(124.11,479.99,l),
(124.11,639.91,l),
(108.53,639.91,o),
(95.89,627.28,o),
(95.89,611.69,cs),
(95.89,479.99,l),
(58.22,479.99,ls),
(42.64,479.99,o),
(30,467.36,o),
(30,451.77,c),
(95.89,451.77,l),
(95.89,134.06,ls),
(95.89,60.09,o),
(155.86,0.12,o),
(229.84,0.12,cs),
(269.98,0.12,l),
(269.98,15.71,o),
(257.34,28.34,o),
(241.76,28.34,c)
);
}
);
width = 297;
}
);
unicode = 116;
},
{
glyphname = u;
layers = (
{
hints = (
{
origin = (0,10);
target = (0,7);
type = Stem;
},
{
origin = (0,25);
target = (0,22);
type = Stem;
},
{
horizontal = 1;
origin = (0,14);
target = (0,3);
type = Stem;
},
{
horizontal = 1;
origin = (0,7);
target = down;
type = TopGhost;
}
);
layerId = "C858EFCA-0EF1-49E8-8937-16326EFE75E3";
shapes = (
{
closed = 1;
nodes = (
(460.97,214.06,ls),
(460.97,104.46,o),
(365.6,16.71,o),
(255.43,29.205,cs),
(158.84,40.16,o),
(89.22,123.82,o),
(89.22,219.09,cs),
(89.22,479.93,l),
(73.64,479.93,o),
(61,467.31,o),
(61,451.71,cs),
(61,219.85,ls),
(61,110.12,o),
(141.2,13.75,o),
(252.068,1.193,cs),
(339.95,-8.76,o),
(420.25,36.99,o),
(460.97,108.16,c),
(460.97,0.01,l),
(476.54,0.01,o),
(489.19,12.64,o),
(489.19,28.23,cs),
(489.19,451.71,ls),
(489.19,467.31,o),
(476.54,479.93,o),
(460.97,479.93,c)
);
}
);
width = 562;
}
);
rightKerningGroup = a;
unicode = 117;
},
{
glyphname = v;
layers = (
{
hints = (
{
horizontal = 1;
origin = (0,4);
target = down;
type = TopGhost;
},
{
horizontal = 1;
origin = (0,8);
target = up;
type = BottomGhost;
}
);
layerId = "C858EFCA-0EF1-49E8-8937-16326EFE75E3";
shapes = (
{
closed = 1;
nodes = (
(233.35,50.86,l),
(66.33,451.73,ls),
(59.2,468.82,o),
(42.51,479.95,o),
(24,479.95,c),
(220.34,8.74,ls),
(222.526,3.493,o),
(227.67,0.06,o),
(233.36,0.06,cs),
(239.05,0.06,o),
(244.2,3.49,o),
(246.38,8.74,cs),
(442.72,479.95,l),
(424.21,479.95,o),
(407.52,468.82,o),
(400.36,451.73,cs)
);
}
);
width = 467;
}
);
leftKerningGroup = v2;
rightKerningGroup = v;
unicode = 118;
},
{
glyphname = w;
layers = (
{
hints = (
{
horizontal = 1;
origin = (0,28);
target = down;
type = TopGhost;
},
{
horizontal = 1;
origin = (0,16);
target = up;
type = BottomGhost;
}
);
layerId = "C858EFCA-0EF1-49E8-8937-16326EFE75E3";
shapes = (
{
closed = 1;
nodes = (
(553.48,52.23,l),
(412.5,379.19,ls),
(409.26,386.68,o),
(401.89,391.54,o),
(393.72,391.54,cs),
(385.55,391.54,o),
(378.17,386.68,o),
(374.94,379.19,cs),
(233.95,52.23,l),
(67.94,450.7,ls),
(60.56,468.43,o),
(43.22,479.99,o),
(24,479.99,c),
(220.2,9.07,ls),
(222.457,3.653,o),
(227.74,0.07,o),
(233.61,0.05,cs),
(239.55,0.03,o),
(244.84,3.53,o),
(247.16,8.9,cs),
(393.7,348.74,l),
(540.24,8.9,ls),
(542.56,3.53,o),
(547.85,0.05,o),
(553.69,0.05,cs),
(559.66,0.09,o),
(564.952,3.649,o),
(567.21,9.07,cs),
(763.4,479.99,l),
(744.19,479.99,o),
(726.86,468.43,o),
(719.49,450.7,cs)
);
}
);
width = 788;
}
);
leftKerningGroup = v2;
rightKerningGroup = v;
unicode = 119;
},
{
glyphname = x;
layers = (
{
hints = (
{
horizontal = 1;
origin = (0,0);
target = down;
type = TopGhost;
},
{
horizontal = 1;
origin = (0,10);
target = up;
type = BottomGhost;
}
);
layerId = "C858EFCA-0EF1-49E8-8937-16326EFE75E3";
shapes = (
{
closed = 1;
nodes = (
(542.83,479.91,l),
(517.28,479.91,o),
(492.78,469.76,o),
(474.71,451.69,cs),
(282.91,259.9,l),
(91.12,451.69,ls),
(73.05,469.75,o),
(48.55,479.91,o),
(23,479.91,c),
(262.96,239.96,l),
(23.01,0.02,l),
(48.57,0.02,o),
(73.06,10.17,o),
(91.14,28.24,cs),
(282.91,220.01,l),
(474.69,28.24,ls),
(492.77,10.18,o),
(517.26,0.02,o),
(542.81,0.02,c),
(302.87,239.96,l)
);
}
);
width = 566;
}
);
unicode = 120;
},
{
glyphname = y;
layers = (
{
hints = (
{
horizontal = 1;
origin = (0,12);
target = up;
type = BottomGhost;
}
);
layerId = "C858EFCA-0EF1-49E8-8937-16326EFE75E3";
shapes = (
{
closed = 1;
nodes = (
(237.94,47.78,l),
(62.04,458.6,ls),
(55.9,472.92,o),
(39.32,479.57,o),
(25,473.43,c),
(223.3,10.29,l),
(164.9,-127.05,ls),
(146.81,-170.48,o),
(108.46,-200.93,o),
(63.43,-209.34,cs),
(48.69,-212.09,o),
(37.97,-224.9,o),
(37.97,-239.91,c),
(105.09,-239.91,o),
(165.14,-199.87,o),
(190.9,-138,cs),
(450.91,473.47,l),
(436.58,479.6,o),
(420,472.95,o),
(413.86,458.6,cs)
);
}
);
width = 476;
}
);
leftKerningGroup = v2;
rightKerningGroup = v;
unicode = 121;
},
{
glyphname = z;
layers = (
{
hints = (
{
horizontal = 1;
origin = (0,15);
target = (0,19);
type = Stem;
},
{
horizontal = 1;
origin = (0,6);
target = (0,3);
type = Stem;
}
);
layerId = "C858EFCA-0EF1-49E8-8937-16326EFE75E3";
shapes = (
{
closed = 1;
nodes = (
(528.897,476.72,o),
(523.707,480.24,o),
(517.937,480.24,cs),
(71.317,480.24,ls),
(55.747,480.24,o),
(43.097,467.59,o),
(43.097,452.02,c),
(482.647,452.02,l),
(33.377,24.33,ls),
(29.207,20.35,o),
(27.867,14.22,o),
(30.007,8.86,cs),
(32.157,3.51,o),
(37.347,-0.012,o),
(43.097,0,cs),
(494.867,0.95,ls),
(510.457,0.983,o),
(523.057,13.64,o),
(523.027,29.22,c),
(78.477,28.29,l),
(527.667,455.91,ls),
(531.847,459.89,o),
(533.187,466.01,o),
(531.047,471.36,cs)
);
}
);
width = 563;
}
);
unicode = 122;
},
{
glyphname = braceleft;
layers = (
{
hints = (
{
origin = (0,22);
target = (0,13);
type = Stem;
},
{
horizontal = 1;
origin = (0,19);
target = down;
type = TopGhost;
},
{
horizontal = 1;
origin = (0,39);
target = up;
type = BottomGhost;
}
);
layerId = "C858EFCA-0EF1-49E8-8937-16326EFE75E3";
shapes = (
{
closed = 1;
nodes = (
(230.194,14.307,o),
(221.079,27.443,o),
(207.308,31.323,cs),
(182.235,38.378,o),
(164.316,56.156,o),
(164.316,77.575,cs),
(164.316,229.099,ls),
(164.316,266.193,o),
(142.164,299.774,o),
(105.465,319.824,c),
(142.164,339.874,o),
(164.316,373.455,o),
(164.316,410.563,cs),
(164.316,561.692,ls),
(164.316,583.111,o),
(182.235,601.425,o),
(207.308,608.48,cs),
(221.079,612.36,o),
(230.194,625.496,o),
(230.194,639.803,c),
(178.299,639.803,o),
(136.097,604.769,o),
(136.097,561.692,cs),
(136.097,410.563,ls),
(136.097,380.213,o),
(114.326,352.657,o),
(79.291,338.66,cs),
(71.221,335.429,o),
(66,328.064,o),
(66,319.852,cs),
(66,311.64,o),
(71.206,304.233,o),
(79.305,300.988,cs),
(114.326,286.977,o),
(136.097,259.421,o),
(136.097,229.099,cs),
(136.097,77.575,ls),
(136.097,34.526,o),
(178.299,0,o),
(230.194,0,c)
);
}
);
width = 297;
}
);
unicode = 123;
},
{
glyphname = verticalbar;
layers = (
{
hints = (
{
origin = (0,3);
target = (0,0);
type = Stem;
},
{
horizontal = 1;
origin = (0,3);
target = down;
type = TopGhost;
},
{
horizontal = 1;
origin = (0,7);
target = up;
type = BottomGhost;
}
);
layerId = "C858EFCA-0EF1-49E8-8937-16326EFE75E3";
shapes = (
{
closed = 1;
nodes = (
(108.219,611.711,ls),
(108.219,627.302,o),
(95.591,639.93,o),
(80,639.93,c),
(80,28.219,ls),
(80,12.628,o),
(92.628,0,o),
(108.219,0,c)
);
}
);
width = 189;
}
);
unicode = 124;
},
{
glyphname = braceright;
layers = (
{
hints = (
{
origin = (0,5);
target = (0,36);
type = Stem;
},
{
horizontal = 1;
origin = (0,19);
target = up;
type = BottomGhost;
},
{
horizontal = 1;
origin = (0,39);
target = down;
type = TopGhost;
}
);
layerId = "C858EFCA-0EF1-49E8-8937-16326EFE75E3";
shapes = (
{
closed = 1;
nodes = (
(66,625.496,o),
(75.115,612.36,o),
(93.633,607.147,cs),
(113.959,601.425,o),
(131.878,583.647,o),
(131.878,562.228,cs),
(131.878,410.704,ls),
(131.878,373.61,o),
(154.03,340.029,o),
(190.73,319.979,c),
(154.03,299.929,o),
(131.878,266.348,o),
(131.878,229.24,cs),
(131.878,78.111,ls),
(131.878,56.693,o),
(113.959,38.378,o),
(93.434,32.6,cs),
(75.115,27.443,o),
(66,14.307,o),
(66,0,c),
(117.895,0,o),
(160.097,35.034,o),
(160.097,78.111,cs),
(160.097,229.24,ls),
(160.097,259.59,o),
(181.869,287.146,o),
(210.058,298.413,cs),
(224.974,304.374,o),
(230.194,311.739,o),
(230.194,319.951,cs),
(230.194,328.163,o),
(224.988,335.57,o),
(210.023,341.559,cs),
(181.869,352.827,o),
(160.097,380.383,o),
(160.097,410.704,cs),
(160.097,562.228,ls),
(160.097,605.277,o),
(117.895,639.803,o),
(66,639.803,c)
);
}
);
width = 297;
}
);
unicode = 125;
},
{
glyphname = asciitilde;
layers = (
{
hints = (
{
horizontal = 1;
origin = (0,20);
target = up;
type = BottomGhost;
}
);
layerId = "C858EFCA-0EF1-49E8-8937-16326EFE75E3";
shapes = (
{
closed = 1;
nodes = (
(443.35,220.014,o),
(480.57,233.69,o),
(520.84,271.63,c),
(510.46,282.63,o),
(493.44,284.14,o),
(481.29,275.11,cs),
(411.03,222.86,o),
(355.53,256.05,o),
(292.15,294.01,cs),
(223.03,335.37,o),
(144.64,382.32,o),
(49,292.16,c),
(59.37,281.14,o),
(76.4,279.63,o),
(88.55,288.66,cs),
(158.84,340.93,o),
(214.29,307.72,o),
(277.68,269.76,cs),
(317.7,245.81,o),
(360.81,220.004,o),
(408.6,220.01,cs)
);
}
);
width = 569;
}
);
unicode = 126;
},
{
glyphname = exclamdown;
layers = (
{
hints = (
{
origin = (0,2);
target = (0,8);
type = Stem;
},
{
origin = (1,7);
target = (1,4);
type = Stem;
},
{
horizontal = 1;
origin = (0,5);
target = (0,11);
type = Stem;
},
{
horizontal = 1;
origin = (1,0);
target = up;
type = BottomGhost;
}
);
layerId = "C858EFCA-0EF1-49E8-8937-16326EFE75E3";
shapes = (
{
closed = 1;
nodes = (
(84.432,580.41,o),
(71,566.978,o),
(71,550.413,cs),
(71,533.848,o),
(84.432,520.416,o),
(100.997,520.416,cs),
(117.562,520.416,o),
(130.994,533.848,o),
(130.994,550.413,cs),
(130.994,566.978,o),
(117.562,580.41,o),
(100.997,580.41,cs)
);
},
{
closed = 1;
nodes = (
(86.902,-60,l),
(102.479,-60,o),
(115.121,-47.372,o),
(115.121,-31.781,cs),
(115.121,419.955,l),
(99.53,419.955,o),
(86.902,407.312,o),
(86.902,391.735,c)
);
}
);
width = 202;
}
);
unicode = 161;
},
{
glyphname = cent;
layers = (
{
hints = (
{
origin = (0,26);
target = (1,6);
type = Stem;
},
{
horizontal = 1;
origin = (0,37);
target = (0,5);
type = Stem;
},
{
horizontal = 1;
origin = (1,2);
target = (0,23);
type = Stem;
}
);
layerId = "C858EFCA-0EF1-49E8-8937-16326EFE75E3";
shapes = (
{
closed = 1;
nodes = (
(365.868,145.608,o),
(349.938,150.941,o),
(328.991,141.873,cs),
(315.651,136.098,o),
(293.471,131.456,o),
(270.994,131.456,cs),
(243.579,131.456,o),
(217.73,138.468,o),
(194.647,150.617,c),
(288.843,502.173,l),
(305.168,500.381,o),
(321.154,496.177,o),
(330.378,492.182,cs),
(349.952,483.704,o),
(365.882,489.051,o),
(373.797,501.651,c),
(350.037,516.579,o),
(323.595,526.047,o),
(296.222,529.687,c),
(324.061,633.647,l),
(309.006,637.683,o),
(293.539,628.752,o),
(289.506,613.696,cs),
(267.41,531.211,l),
(157.693,529.165,o),
(69,434.094,o),
(69,317.308,cs),
(69,241.864,o),
(106.094,175.548,o),
(161.884,137.41,c),
(125.326,0.969,l),
(140.381,-3.066,o),
(155.845,5.865,o),
(159.88,20.921,cs),
(187.169,122.764,l),
(212.735,110.334,o),
(241.053,103.222,o),
(270.98,103.222,cs),
(307.228,103.222,o),
(342.784,113.508,o),
(373.797,132.994,c)
);
},
{
closed = 1;
nodes = (
(97.219,415.737,o),
(169.165,496.318,o),
(259.735,502.583,c),
(169.701,166.589,l),
(125.89,200.367,o),
(97.219,255.268,o),
(97.219,317.308,c)
);
}
);
width = 438;
}
);
unicode = 162;
},
{
glyphname = sterling;
layers = (
{
hints = (
{
origin = (0,17);
target = (0,9);
type = Stem;
},
{
horizontal = 1;
origin = (0,9);
target = (0,14);
type = Stem;
},
{
horizontal = 1;
origin = (0,26);
target = (0,41);
type = Stem;
}
);
layerId = "C858EFCA-0EF1-49E8-8937-16326EFE75E3";
shapes = (
{
closed = 1;
nodes = (
(508.72,67.05,l),
(437.87,10.91,o),
(376.07,31.37,o),
(310.96,52.93,cs),
(257.17,70.73,o),
(198.02,90.3,o),
(133.64,62.61,c),
(190.14,148.65,o),
(205.22,205.97,o),
(202.23,251.55,c),
(381.72,251.55,l),
(381.72,267.13,o),
(369.07,279.77,o),
(353.5,279.77,cs),
(197.98,279.77,l),
(192.67,302.16,o),
(183.534,322.182,o),
(174.23,342.49,cs),
(170.734,350.122,o),
(167.21,357.81,o),
(163.88,365.74,cs),
(140.31,421.77,o),
(146.04,485.45,o),
(179.2,536.07,cs),
(211.06,584.72,o),
(262.321,612.958,o),
(319.8,613.79,cs),
(378.371,614.638,o),
(435.95,591.52,o),
(474.46,552.23,cs),
(502.72,523.39,o),
(519.34,487.52,o),
(523.25,447.39,cs),
(524.7,432.6,o),
(537.39,421.43,o),
(552.25,420.94,c),
(554.19,479.28,o),
(534.27,531.51,o),
(494.61,571.98,cs),
(450.78,616.69,o),
(385.68,642.875,o),
(319.41,642.02,cs),
(252.39,641.155,o),
(192.66,608.17,o),
(155.57,551.54,cs),
(117.26,493.04,o),
(110.63,419.5,o),
(137.83,354.8,cs),
(141.29,346.59,o),
(144.93,338.63,o),
(148.55,330.72,cs),
(156.3,313.83,o),
(163.76,297.49,o),
(168.6,279.77,c),
(67,279.77,l),
(67,264.18,o),
(79.64,251.55,o),
(95.22,251.55,cs),
(173.61,251.55,l),
(177.54,201.76,o),
(156.7,136.67,o),
(72.05,24.41,cs),
(67.41,18.26,o),
(68.16,9.53,o),
(73.91,4.4,cs),
(74.72,3.68,ls),
(80.4,-1.38,o),
(88.87,-1.14,o),
(94.58,3.9,cs),
(169.53,70.03,o),
(234,48.69,o),
(302.08,26.15,cs),
(374.45,2.2,o),
(456.47,-24.97,o),
(547.96,64.12,c),
(546.97,65.12,ls),
(536.68,75.67,o),
(520.26,76.21,o),
(508.7,67.05,c)
);
}
);
width = 620;
}
);
unicode = 163;
},
{
glyphname = currency;
layers = (
{
hints = (
{
origin = (0,25);
target = (1,2);
type = Stem;
},
{
origin = (1,8);
target = (0,3);
type = Stem;
},
{
horizontal = 1;
origin = (0,36);
target = (1,14);
type = Stem;
},
{
horizontal = 1;
origin = (1,5);
target = (0,14);
type = Stem;
}
);
layerId = "C858EFCA-0EF1-49E8-8937-16326EFE75E3";
shapes = (
{
closed = 1;
nodes = (
(354.59,225.11,l),
(377.89,252.91,o),
(391.95,288.69,o),
(391.95,327.79,cs),
(391.95,366.89,o),
(377.89,402.67,o),
(354.59,430.46,c),
(401.93,477.8,l),
(390.91,488.82,o),
(373.05,488.82,o),
(362.03,477.8,cs),
(334.64,450.42,l),
(306.86,473.71,o),
(271.06,487.78,o),
(231.97,487.78,cs),
(192.87,487.78,o),
(157.09,473.71,o),
(129.29,450.42,c),
(101.9,477.8,ls),
(90.88,488.82,o),
(73.02,488.82,o),
(62,477.8,c),
(109.34,430.46,l),
(86.04,402.68,o),
(71.99,366.89,o),
(71.99,327.79,cs),
(71.99,288.69,o),
(86.06,252.91,o),
(109.35,225.11,c),
(62,177.79,l),
(73.02,166.77,o),
(90.88,166.77,o),
(101.9,177.79,cs),
(129.27,205.16,l),
(157.06,181.87,o),
(192.85,167.81,o),
(231.95,167.81,cs),
(271.05,167.81,o),
(306.83,181.88,o),
(334.63,205.16,c),
(371.52,168.26,ls),
(382.54,157.25,o),
(400.41,157.25,o),
(411.43,168.26,c)
);
},
{
closed = 1;
nodes = (
(159.223,196,o),
(100.315,254.681,o),
(100.21,327.79,cs),
(100.105,400.389,o),
(159.275,459.31,o),
(231.98,459.54,cs),
(304.567,459.77,o),
(363.75,399.833,o),
(363.75,327.79,cs),
(363.75,296.54,o),
(352.76,267.81,o),
(334.5,245.19,c),
(311.478,213.469,o),
(269.888,196.03,o),
(230.856,196.019,cs)
);
}
);
width = 474;
}
);
unicode = 164;
},
{
glyphname = yen;
layers = (
{
hints = (
{
origin = (0,19);
target = (0,36);
type = Stem;
},
{
horizontal = 1;
origin = (0,24);
target = (0,21);
type = Stem;
},
{
horizontal = 1;
origin = (0,18);
target = (0,15);
type = Stem;
},
{
horizontal = 1;
origin = (0,5);
target = down;
type = TopGhost;
},
{
horizontal = 1;
origin = (0,26);
target = up;
type = BottomGhost;
}
);
layerId = "C858EFCA-0EF1-49E8-8937-16326EFE75E3";
shapes = (
{
closed = 1;
nodes = (
(435.836,300.409,l),
(451.413,300.409,o),
(464.055,313.051,o),
(464.055,328.628,c),
(328.461,328.628,l),
(555.373,639.93,l),
(533.433,639.93,o),
(512.833,629.447,o),
(499.908,611.725,cs),
(304.687,343.909,l),
(109.465,611.725,ls),
(96.541,629.447,o),
(75.926,639.93,o),
(54,639.93,c),
(280.912,328.628,l),
(172.31,328.628,ls),
(156.733,328.628,o),
(144.09,316,o),
(144.09,300.409,c),
(289.956,300.409,l),
(289.956,248.64,l),
(172.31,248.64,ls),
(156.733,248.64,o),
(144.09,236.012,o),
(144.09,220.421,c),
(289.956,220.421,l),
(289.956,0,l),
(305.533,0,o),
(318.175,12.628,o),
(318.175,28.219,cs),
(318.175,220.421,l),
(435.822,220.421,ls),
(451.399,220.421,o),
(464.041,233.064,o),
(464.041,248.641,c),
(318.175,248.641,l),
(318.175,300.409,l)
);
}
);
width = 610;
}
);
unicode = 165;
},
{
glyphname = section;
layers = (
{
hints = (
{
origin = (0,31);
target = (0,9);
type = Stem;
},
{
origin = (0,18);
target = (0,3);
type = Stem;
},
{
horizontal = 1;
origin = (0,69);
target = (1,11);
type = Stem;
},
{
horizontal = 1;
origin = (0,44);
target = (1,11);
type = Stem;
},
{
horizontal = 1;
origin = (1,2);
target = (0,6);
type = Stem;
}
);
layerId = "C858EFCA-0EF1-49E8-8937-16326EFE75E3";
shapes = (
{
closed = 1;
nodes = (
(361.45,217.35,l),
(419.38,234.6,o),
(464.53,268.73,o),
(464.41,321.86,c),
(458.23,411.48,o),
(358.858,425.252,o),
(271.18,437.41,cs),
(187.228,449.052,o),
(107.93,460.06,o),
(103.19,524.78,c),
(103.15,547.67,o),
(116.75,567.15,o),
(143.62,582.69,cs),
(209.69,620.9,o),
(333.22,621.7,o),
(397.83,584.32,cs),
(421.73,570.51,o),
(434.574,553.17,o),
(436.08,532.75,cs),
(436.254,530.4,o),
(438.07,528.53,o),
(440.43,528.53,c),
(464.46,528.49,l),
(464.53,561.11,o),
(446.37,588.87,o),
(411.95,608.76,cs),
(338.79,651.09,o),
(204.16,650.3,o),
(129.49,607.13,cs),
(93.77,586.47,o),
(74.92,557.98,o),
(75,523.75,c),
(79.33,464.01,o),
(125.81,438.4,o),
(182.32,424.32,c),
(122.31,407.88,o),
(74.93,373.81,o),
(75.04,319.87,c),
(81.46,231.38,o),
(180.22,217.7,o),
(267.34,205.61,c),
(268.22,205.48,o),
(269.04,205.37,o),
(269.9,205.24,c),
(269.9,203.87,l),
(272.42,203.9,o),
(274.93,204.07,o),
(277.46,204.17,c),
(370.99,190.82,o),
(432.16,176.03,o),
(436.26,117,c),
(436.31,93.42,o),
(422.35,73.37,o),
(394.8,57.44,cs),
(328.86,19.32,o),
(205.98,18.26,o),
(141.98,55.23,cs),
(124.82,65.14,o),
(113.31,76.91,o),
(107.55,90.37,cs),
(102.2,102.89,o),
(90.94,111.83,o),
(77.33,111.85,c),
(75,111.85,l),
(74.96,78.82,o),
(93.23,50.79,o),
(127.86,30.79,cs),
(163.44,10.23,o),
(213.78,0,o),
(264.65,0,cs),
(317.5,0,o),
(370.92,11.03,o),
(408.91,33,cs),
(445.31,54.05,o),
(464.53,83.12,o),
(464.46,117.97,c),
(460.39,176.78,o),
(416.13,202.85,o),
(361.45,217.33,c)
);
},
{
closed = 1;
nodes = (
(103.12,376.71,o),
(186.75,408.21,o),
(269.53,409.15,c),
(367.54,395.48,o),
(432,381.55,o),
(436.22,320.85,c),
(436.31,266.32,o),
(358.76,235.76,o),
(279.08,232.44,c),
(276.46,232.81,o),
(273.81,233.18,o),
(271.21,233.54,cs),
(187.26,245.18,o),
(107.96,256.19,o),
(103.22,320.91,c)
);
}
);
width = 540;
}
);
unicode = 167;
},
{
glyphname = dieresis;
layers = (
{
hints = (
{
origin = (1,8);
target = (1,2);
type = Stem;
},
{
origin = (0,8);
target = (0,2);
type = Stem;
},
{
horizontal = 1;
origin = (0,11);
target = (0,5);
type = Stem;
}
);
layerId = "C858EFCA-0EF1-49E8-8937-16326EFE75E3";
shapes = (
{
closed = 1;
nodes = (
(194.03,580.01,o),
(207.46,593.44,o),
(207.46,610.01,cs),
(207.46,626.57,o),
(194.03,640,o),
(177.47,640,cs),
(160.9,640,o),
(147.47,626.57,o),
(147.47,610.01,cs),
(147.47,593.44,o),
(160.9,580.01,o),
(177.47,580.01,cs)
);
},
{
closed = 1;
nodes = (
(89.56,580.01,o),
(102.99,593.44,o),
(102.99,610.01,cs),
(102.99,626.57,o),
(89.56,640,o),
(73,640,cs),
(56.43,640,o),
(43,626.57,o),
(43,610.01,cs),
(43,593.44,o),
(56.43,580.01,o),
(73,580.01,cs)
);
}
);
width = 251;
}
);
unicode = 168;
},
{
glyphname = copyright;
layers = (
{
hints = (
{
origin = (1,2);
target = (2,2);
type = Stem;
},
{
origin = (2,8);
target = (1,8);
type = Stem;
},
{
horizontal = 1;
origin = (1,5);
target = (2,11);
type = Stem;
},
{
horizontal = 1;
origin = (0,14);
target = (0,23);
type = Stem;
},
{
horizontal = 1;
origin = (2,5);
target = (1,11);
type = Stem;
}
);
layerId = "C858EFCA-0EF1-49E8-8937-16326EFE75E3";
shapes = (
{
closed = 1;
nodes = (
(294.34,506.31,o),
(325.67,509.38,o),
(353.5,501.02,cs),
(367.89,496.7,o),
(383.35,502.27,o),
(390.97,515.21,c),
(348.36,540.35,o),
(292.87,540.92,o),
(247.17,510.63,cs),
(220.01,492.62,o),
(200.44,464.36,o),
(192.82,432.68,cs),
(171.61,344.5,o),
(238.22,265.54,o),
(322.94,265.54,cs),
(346.91,265.54,o),
(370.43,271.95,o),
(390.96,284.05,c),
(383.34,296.99,o),
(367.89,302.58,o),
(353.51,298.25,cs),
(343.65,295.28,o),
(333.35,293.75,o),
(322.94,293.75,cs),
(255.89,293.75,o),
(203.19,356.39,o),
(220.33,426.24,cs),
(226.78,452.52,o),
(243.72,475.68,o),
(266.89,489.7,cs)
);
},
{
closed = 1;
nodes = (
(174.29,639.25,o),
(67,531.97,o),
(67,399.62,cs),
(67,267.28,o),
(174.29,160,o),
(306.62,160,cs),
(438.96,160,o),
(546.24,267.28,o),
(546.24,399.62,cs),
(546.24,531.97,o),
(438.96,639.25,o),
(306.62,639.25,cs)
);
},
{
closed = 1;
nodes = (
(190.05,188.23,o),
(95.22,283.06,o),
(95.22,399.64,cs),
(95.22,516.21,o),
(190.05,611.03,o),
(306.62,611.03,cs),
(423.2,611.03,o),
(518.02,516.2,o),
(518.02,399.62,cs),
(518.02,283.05,o),
(423.18,188.22,o),
(306.62,188.23,c)
);
}
);
width = 614;
}
);
unicode = 169;
},
{
glyphname = guillemotleft;
layers = (
{
layerId = "C858EFCA-0EF1-49E8-8937-16326EFE75E3";
shapes = (
{
closed = 1;
nodes = (
(241.075,468.279,l),
(230.055,479.298,o),
(212.192,479.298,o),
(201.173,468.279,cs),
(61.134,328.24,ls),
(58.482,325.588,o),
(57,322.018,o),
(57,318.265,cs),
(57,314.512,o),
(58.482,310.928,o),
(61.134,308.289,cs),
(201.173,168.265,ls),
(212.192,157.245,o),
(230.055,157.245,o),
(241.075,168.265,c),
(91.061,318.265,l)
);
},
{
closed = 1;
nodes = (
(383.625,468.279,l),
(372.605,479.298,o),
(354.742,479.298,o),
(343.723,468.279,cs),
(203.684,328.24,ls),
(201.032,325.588,o),
(199.55,322.018,o),
(199.55,318.265,cs),
(199.55,314.512,o),
(201.032,310.928,o),
(203.684,308.289,cs),
(343.723,168.265,ls),
(354.742,157.245,o),
(372.605,157.245,o),
(383.625,168.265,c),
(233.611,318.265,l)
);
}
);
width = 441;
}
);
leftKerningGroup = guillemotleft2;
rightKerningGroup = guillemotleft;
unicode = 171;
},
{
glyphname = registered;
layers = (
{
hints = (
{
origin = (0,2);
target = (1,2);
type = Stem;
},
{
origin = (2,3);
target = (3,5);
type = Stem;
},
{
origin = (3,0);
target = (2,26);
type = Stem;
},
{
origin = (1,8);
target = (0,8);
type = Stem;
},
{
horizontal = 1;
origin = (0,5);
target = (1,11);
type = Stem;
},
{
horizontal = 1;
origin = (2,8);
target = (3,4);
type = Stem;
},
{
horizontal = 1;
origin = (3,5);
target = (2,0);
type = Stem;
},
{
horizontal = 1;
origin = (1,5);
target = (0,11);
type = Stem;
}
);
layerId = "C858EFCA-0EF1-49E8-8937-16326EFE75E3";
shapes = (
{
closed = 1;
nodes = (
(174.29,639.25,o),
(67,531.97,o),
(67,399.62,cs),
(67,267.28,o),
(174.29,160,o),
(306.62,160,cs),
(438.96,160,o),
(546.24,267.28,o),
(546.24,399.62,cs),
(546.24,531.97,o),
(438.96,639.25,o),
(306.62,639.25,cs)
);
},
{
closed = 1;
nodes = (
(190.05,188.23,o),
(95.22,283.06,o),
(95.22,399.64,cs),
(95.22,516.21,o),
(190.05,611.03,o),
(306.62,611.03,cs),
(423.2,611.03,o),
(518.02,516.2,o),
(518.02,399.62,cs),
(518.02,283.05,o),
(423.18,188.22,o),
(306.62,188.23,c)
);
},
{
closed = 1;
nodes = (
(214.81,526.67,l),
(207.01,526.67,o),
(200.7,520.36,o),
(200.7,512.56,cs),
(200.7,272.58,l),
(216.28,272.58,o),
(228.92,285.21,o),
(228.92,300.8,cs),
(228.92,379.11,l),
(340.5,379.11,ls),
(341.74,379.11,o),
(342.9,379.41,o),
(344.14,379.48,c),
(366.29,379.11,o),
(384.33,359.41,o),
(384.33,335.23,cs),
(384.33,300.81,ls),
(384.33,285.22,o),
(396.95,272.6,o),
(412.55,272.6,c),
(412.55,335.23,ls),
(412.55,359.43,o),
(401.09,380.76,o),
(383.69,393.85,c),
(401.1,407.02,o),
(412.55,427.69,o),
(412.55,451.15,cs),
(412.55,454.64,ls),
(412.55,494.36,o),
(380.23,526.67,o),
(340.52,526.67,c)
);
},
{
closed = 1;
nodes = (
(384.31,451.14,ls),
(384.31,426.98,o),
(364.64,407.33,o),
(340.5,407.33,cs),
(228.92,407.33,l),
(228.92,498.45,l),
(340.5,498.45,ls),
(364.66,498.45,o),
(384.31,478.78,o),
(384.31,454.64,cs)
);
}
);
width = 614;
}
);
unicode = 174;
},
{
glyphname = degree;
layers = (
{
hints = (
{
origin = (1,11);
target = (0,8);
type = Stem;
},
{
origin = (0,2);
target = (1,5);
type = Stem;
},
{
horizontal = 1;
origin = (1,2);
target = (0,5);
type = Stem;
},
{
horizontal = 1;
origin = (0,11);
target = (1,8);
type = Stem;
}
);
layerId = "C858EFCA-0EF1-49E8-8937-16326EFE75E3";
shapes = (
{
closed = 1;
nodes = (
(162.532,611.756,o),
(185.756,588.532,o),
(185.756,559.988,cs),
(185.756,531.444,o),
(162.532,508.219,o),
(133.988,508.219,cs),
(105.444,508.219,o),
(82.219,531.444,o),
(82.219,559.988,cs),
(82.219,588.532,o),
(105.444,611.756,o),
(133.988,611.756,cs)
);
},
{
closed = 1;
nodes = (
(54,515.81,o),
(89.81,480,o),
(133.988,480,cs),
(178.165,480,o),
(213.976,515.81,o),
(213.976,559.988,cs),
(213.976,604.165,o),
(178.165,639.976,o),
(133.988,639.976,cs),
(89.81,639.976,o),
(54,604.165,o),
(54,559.988,cs)
);
}
);
width = 268;
}
);
unicode = 176;
},
{
glyphname = plusminus;
layers = (
{
hints = (
{
origin = (0,0);
target = (0,3);
type = Stem;
},
{
horizontal = 1;
origin = (1,7);
target = (1,4);
type = Stem;
},
{
horizontal = 1;
origin = (0,4);
target = (0,9);
type = Stem;
},
{
horizontal = 1;
origin = (0,10);
target = down;
type = TopGhost;
}
);
layerId = "C858EFCA-0EF1-49E8-8937-16326EFE75E3";
shapes = (
{
closed = 1;
nodes = (
(162.879,254.097,l),
(178.456,254.097,o),
(191.098,266.74,o),
(191.098,282.317,cs),
(191.098,359.976,l),
(268.758,359.976,ls),
(284.335,359.976,o),
(296.977,372.619,o),
(296.977,388.196,c),
(191.098,388.196,l),
(191.098,494.075,l),
(175.521,494.075,o),
(162.879,481.433,o),
(162.879,465.855,cs),
(162.879,388.196,l),
(85.219,388.196,ls),
(69.642,388.196,o),
(57,375.554,o),
(57,359.976,c),
(162.879,359.976,l)
);
},
{
closed = 1;
nodes = (
(268.758,160,ls),
(284.335,160,o),
(296.977,172.642,o),
(296.977,188.219,c),
(85.219,188.219,ls),
(69.642,188.219,o),
(57,175.577,o),
(57,160,c)
);
}
);
width = 354;
}
);
unicode = 177;
},
{
glyphname = twosuperior;
layers = (
{
hints = (
{
horizontal = 1;
origin = (0,29);
target = (0,0);
type = Stem;
},
{
horizontal = 1;
origin = (0,30);
target = (0,7);
type = Stem;
}
);
layerId = "C858EFCA-0EF1-49E8-8937-16326EFE75E3";
shapes = (
{
closed = 1;
nodes = (
(99.691,507.94,l),
(187.191,595.4,ls),
(207.851,616.05,o),
(214.251,646.03,o),
(203.891,673.61,cs),
(193.921,700.21,o),
(170.371,717.9,o),
(142.461,719.78,c),
(100.733,720,o),
(65.494,698.087,o),
(54.731,656.7,c),
(68.201,653.18,o),
(82.721,657.81,o),
(92.386,670.787,cs),
(102.361,684.18,o),
(120.958,693.276,o),
(140.551,691.91,cs),
(157.668,690.716,o),
(171.571,680.24,o),
(177.731,663.81,cs),
(182.781,650.32,o),
(182.741,630.47,o),
(167.431,615.16,cs),
(56.091,503.85,ls),
(52.101,499.85,o),
(50.901,493.84,o),
(53.061,488.62,cs),
(55.221,483.4,o),
(60.311,480,o),
(65.971,480,cs),
(207.361,480,l),
(207.361,495.42,o),
(194.861,507.94,o),
(179.431,507.94,cs)
);
}
);
width = 262;
}
);
unicode = 178;
},
{
glyphname = threesuperior;
layers = (
{
hints = (
{
origin = (0,33);
target = (0,49);
type = Stem;
},
{
horizontal = 1;
origin = (0,46);
target = (0,36);
type = Stem;
}
);
layerId = "C858EFCA-0EF1-49E8-8937-16326EFE75E3";
shapes = (
{
closed = 1;
nodes = (
(184.488,622.677,o),
(194.224,645.394,o),
(189.187,670.382,cs),
(184.206,695.088,o),
(164.424,715.222,o),
(138.614,720.598,cs),
(98.165,729.022,o),
(61.409,697.345,o),
(61.409,657.246,c),
(79.23,657.246,ls),
(84.846,657.246,o),
(89.403,661.239,o),
(91.457,668.877,cs),
(95.809,685.056,o),
(114.843,697.726,o),
(135.64,692.337,cs),
(147.859,689.162,o),
(157.863,679.186,o),
(161.052,666.967,cs),
(166.879,644.632,o),
(151.838,624.3,o),
(134.023,621.698,cs),
(128.261,620.857,o),
(125.868,618.613,o),
(125.852,611.419,cs),
(125.85,610.62,o),
(125.834,603.431,o),
(125.845,602.203,cs),
(125.905,595.177,o),
(128.416,592.736,o),
(135.212,591.927,cs),
(153.644,589.731,o),
(170.745,571.939,o),
(170.745,550.449,cs),
(170.745,527.168,o),
(150.667,508.219,o),
(126.003,508.219,cs),
(104.768,508.219,o),
(86.948,522.244,o),
(83.041,538.331,cs),
(81.064,546.471,o),
(76.408,550.449,o),
(70.778,550.449,cs),
(53,550.449,l),
(53,511.606,o),
(85.734,480,o),
(125.961,480,cs),
(166.188,480,o),
(198.922,511.606,o),
(198.922,550.45,cs),
(198.922,574.38,o),
(186.435,595.502,o),
(167.5,608.243,c)
);
}
);
width = 254;
}
);
unicode = 179;
},
{
glyphname = acute;
layers = (
{
layerId = "C858EFCA-0EF1-49E8-8937-16326EFE75E3";
shapes = (
{
closed = 1;
nodes = (
(177.15,631.769,l),
(166.13,642.789,o),
(148.27,642.789,o),
(137.25,631.769,c),
(78.85,570.099,l),
(88.97,559.979,o),
(105.35,559.979,o),
(115.47,570.099,c)
);
}
);
width = 218;
}
);
unicode = 180;
},
{
glyphname = paragraph;
layers = (
{
hints = (
{
origin = (0,7);
target = (0,15);
type = Stem;
},
{
origin = (0,10);
target = (0,15);
type = Stem;
},
{
origin = (0,16);
target = (0,21);
type = Stem;
},
{
horizontal = 1;
origin = (0,0);
target = (0,3);
type = Stem;
},
{
horizontal = 1;
origin = (0,11);
target = up;
type = BottomGhost;
}
);
layerId = "C858EFCA-0EF1-49E8-8937-16326EFE75E3";
shapes = (
{
closed = 1;
nodes = (
(450.815,612.628,l),
(450.815,628.205,o),
(438.173,640.847,o),
(422.596,640.847,cs),
(224.637,640.847,l),
(136.437,640.636,o),
(65,569.1,o),
(65,480.858,cs),
(65,402.154,o),
(121.89,336.854,o),
(196.756,323.507,c),
(196.756,0,l),
(212.333,0,o),
(224.976,12.642,o),
(224.976,28.219,cs),
(224.976,612.628,l),
(356.703,612.628,l),
(356.703,0.014,l),
(372.281,0.014,o),
(384.923,12.656,o),
(384.923,28.233,cs),
(384.923,612.628,l)
);
}
);
width = 516;
}
);
unicode = 182;
},
{
glyphname = cedilla;
layers = (
{
hints = (
{
origin = (0,13);
target = (0,24);
type = Stem;
},
{
horizontal = 1;
origin = (0,20);
target = (0,17);
type = Stem;
},
{
horizontal = 1;
origin = (0,9);
target = (0,0);
type = Stem;
},
{
horizontal = 1;
origin = (0,1);
target = down;
type = TopGhost;
}
);
layerId = "C858EFCA-0EF1-49E8-8937-16326EFE75E3";
shapes = (
{
closed = 1;
nodes = (
(128.173,-71.821,l),
(196.492,-3.516,l),
(156.59,-3.516,l),
(84.137,-75.955,ls),
(80.101,-79.991,o),
(78.888,-86.058,o),
(81.075,-91.335,cs),
(83.248,-96.612,o),
(88.412,-100.04,o),
(94.112,-100.04,cs),
(195.406,-100.04,ls),
(209.685,-100.04,o),
(221.283,-111.639,o),
(221.283,-125.904,cs),
(221.283,-140.168,o),
(209.685,-151.781,o),
(195.406,-151.781,cs),
(111.529,-151.781,ls),
(82.996,-151.781,o),
(79.033,-180,o),
(79.033,-180,c),
(195.406,-180,l),
(225.234,-180,o),
(249.502,-155.731,o),
(249.502,-125.903,cs),
(249.502,-96.076,o),
(225.234,-71.821,o),
(195.406,-71.821,c)
);
}
);
width = 330;
}
);
unicode = 184;
},
{
glyphname = onesuperior;
layers = (
{
hints = (
{
origin = (0,7);
target = (0,12);
type = Stem;
}
);
layerId = "C858EFCA-0EF1-49E8-8937-16326EFE75E3";
shapes = (
{
closed = 1;
nodes = (
(134.79,721.091,o),
(128.681,719.877,o),
(124.646,715.814,cs),
(47,638.182,l),
(58.062,627.12,o),
(75.988,627.127,o),
(87.043,638.182,cs),
(120.497,671.636,l),
(120.497,480.013,l),
(136.131,480.013,o),
(148.815,492.697,o),
(148.815,508.331,cs),
(148.815,705.81,ls),
(148.815,711.538,o),
(145.373,716.702,o),
(140.067,718.889,cs)
);
}
);
width = 205;
}
);
unicode = 185;
},
{
glyphname = guillemotright;
layers = (
{
layerId = "C858EFCA-0EF1-49E8-8937-16326EFE75E3";
shapes = (
{
closed = 1;
nodes = (
(239.452,468.279,ls),
(228.433,479.298,o),
(210.57,479.298,o),
(199.55,468.279,c),
(349.564,318.279,l),
(199.55,168.265,l),
(210.57,157.245,o),
(228.433,157.245,o),
(239.452,168.265,cs),
(379.491,308.303,ls),
(382.143,310.956,o),
(383.625,314.526,o),
(383.625,318.279,cs),
(383.625,322.032,o),
(382.143,325.616,o),
(379.491,328.254,cs)
);
},
{
closed = 1;
nodes = (
(241.075,322.032,o),
(239.593,325.616,o),
(236.941,328.254,cs),
(96.902,468.279,ls),
(85.883,479.298,o),
(68.02,479.298,o),
(57,468.279,c),
(207.014,318.279,l),
(57,168.279,l),
(68.02,157.259,o),
(85.883,157.259,o),
(96.902,168.279,cs),
(236.941,308.317,ls),
(239.593,310.97,o),
(241.075,314.54,o),
(241.075,318.279,cs)
);
}
);
width = 441;
}
);
leftKerningGroup = guillemotright2;
rightKerningGroup = guillemotright;
unicode = 187;
},
{
glyphname = questiondown;
layers = (
{
hints = (
{
origin = (0,8);
target = (0,2);
type = Stem;
},
{
origin = (1,18);
target = (1,11);
type = Stem;
},
{
horizontal = 1;
origin = (1,27);
target = (1,2);
type = Stem;
},
{
horizontal = 1;
origin = (0,11);
target = (0,5);
type = Stem;
}
);
layerId = "C858EFCA-0EF1-49E8-8937-16326EFE75E3";
shapes = (
{
closed = 1;
nodes = (
(251.626,519.94,o),
(265.056,533.37,o),
(265.056,549.94,cs),
(265.056,566.5,o),
(251.626,579.93,o),
(235.056,579.93,cs),
(218.486,579.93,o),
(205.056,566.5,o),
(205.056,549.94,cs),
(205.056,533.37,o),
(218.486,519.94,o),
(235.056,519.94,cs)
);
},
{
closed = 1;
nodes = (
(363.246,0.45,o),
(300.962,-30.033,o),
(239.996,-31.73,cs),
(171.952,-33.623,o),
(95.766,2.59,o),
(89.276,85.36,c),
(87.726,120.73,o),
(106.346,153.12,o),
(150.396,191,c),
(250.986,290.36,o),
(249.87,340.79,o),
(248.676,394.17,cs),
(248.49,402.48,o),
(248.456,411.1,o),
(248.676,419.93,c),
(246.046,419.93,ls),
(231.666,419.93,o),
(220.149,408.16,o),
(220.466,393.78,cs),
(221.599,342.33,o),
(222.516,301.89,o),
(131.296,211.74,c),
(99.916,184.81,o),
(58.526,142.25,o),
(61.116,83.65,c),
(69.066,-17.92,o),
(160.137,-61.927,o),
(240.716,-59.94,cs),
(319.897,-57.987,o),
(406.386,-10.25,o),
(409.156,89.72,c),
(394.096,90.13,o),
(381.136,79.66,o),
(377.806,64.97,cs)
);
}
);
width = 466;
}
);
unicode = 191;
},
{
glyphname = Agrave;
layers = (
{
hints = (
{
horizontal = 1;
origin = (1,11);
target = (2,0);
type = Stem;
},
{
horizontal = 1;
origin = (1,7);
target = up;
type = BottomGhost;
},
{
horizontal = 1;
origin = (1,3);
target = down;
type = TopGhost;
}
);
layerId = "C858EFCA-0EF1-49E8-8937-16326EFE75E3";
shapes = (
{
closed = 1;
nodes = (
(396.63,756.664,l),
(336.58,816.684,ls),
(325.557,827.701,o),
(307.7,827.704,o),
(296.68,816.684,c),
(358.37,755.014,ls),
(368.487,744.9,o),
(384.87,744.914,o),
(394.98,755.014,c)
);
},
{
closed = 1;
nodes = (
(359.28,632.06,ls),
(356.89,636.84,o),
(352,639.86,o),
(346.66,639.86,cs),
(341.31,639.86,o),
(336.422,636.844,o),
(334.03,632.06,cs),
(18,0,l),
(37.34,0,o),
(55.02,10.92,o),
(63.67,28.22,cs),
(162,224.87,l),
(531.32,224.87,l),
(629.64,28.22,ls),
(638.29,10.92,o),
(655.97,0,o),
(675.3,0,c)
);
},
{
closed = 1;
nodes = (
(176.1,253.1,l),
(346.66,594.2,l),
(517.2,253.1,l)
);
}
);
width = 694;
}
);
leftKerningGroup = A2;
rightKerningGroup = A;
unicode = 192;
},
{
glyphname = Aacute;
layers = (
{
hints = (
{
horizontal = 1;
origin = (1,11);
target = (2,0);
type = Stem;
},
{
horizontal = 1;
origin = (1,7);
target = up;
type = BottomGhost;
},
{
horizontal = 1;
origin = (1,3);
target = down;
type = TopGhost;
}
);
layerId = "C858EFCA-0EF1-49E8-8937-16326EFE75E3";
shapes = (
{
closed = 1;
nodes = (
(396.63,816.617,l),
(385.61,827.637,o),
(367.75,827.637,o),
(356.73,816.617,c),
(298.33,754.947,l),
(308.45,744.827,o),
(324.83,744.827,o),
(334.95,754.947,c)
);
},
{
closed = 1;
nodes = (
(359.3,632.06,ls),
(356.9,636.84,o),
(352.02,639.86,o),
(346.67,639.86,cs),
(341.32,639.86,o),
(336.432,636.844,o),
(334.04,632.06,cs),
(18,0,l),
(37.34,0,o),
(55.02,10.92,o),
(63.67,28.22,cs),
(162,224.87,l),
(531.32,224.87,l),
(629.64,28.22,ls),
(638.29,10.92,o),
(655.97,0,o),
(675.3,0,c)
);
},
{
closed = 1;
nodes = (
(176.11,253.1,l),
(346.67,594.2,l),
(517.21,253.1,l)
);
}
);
width = 694;
}
);
leftKerningGroup = A2;
rightKerningGroup = A;
unicode = 193;
},
{
glyphname = Acircumflex;
layers = (
{
hints = (
{
horizontal = 1;
origin = (1,11);
target = (2,0);
type = Stem;
},
{
horizontal = 1;
origin = (1,7);
target = up;
type = BottomGhost;
},
{
horizontal = 1;
origin = (0,9);
target = down;
type = TopGhost;
},
{
horizontal = 1;
origin = (1,3);
target = down;
type = TopGhost;
}
);
layerId = "C858EFCA-0EF1-49E8-8937-16326EFE75E3";
shapes = (
{
closed = 1;
nodes = (
(346.66,796.867,l),
(388.53,755.007,ls),
(398.641,744.899,o),
(415.04,744.897,o),
(425.15,755.007,cs),
(426.8,756.657,l),
(366.75,816.677,ls),
(361.199,822.226,o),
(353.92,824.917,o),
(346.66,824.917,cs),
(339.39,824.917,o),
(332.101,822.216,o),
(326.56,816.677,cs),
(266.51,756.657,l),
(268.16,755.007,ls),
(278.28,744.887,o),
(294.66,744.887,o),
(304.78,755.007,c)
);
},
{
closed = 1;
nodes = (
(359.3,632.06,ls),
(356.9,636.84,o),
(352.02,639.86,o),
(346.67,639.86,cs),
(341.32,639.86,o),
(336.432,636.844,o),
(334.04,632.06,cs),
(18,0,l),
(37.34,0,o),
(55.02,10.92,o),
(63.67,28.22,cs),
(162,224.87,l),
(531.32,224.87,l),
(629.64,28.22,ls),
(638.29,10.92,o),
(655.97,0,o),
(675.3,0,c)
);
},
{
closed = 1;
nodes = (
(176.11,253.1,l),
(346.67,594.2,l),
(517.21,253.1,l)
);
}
);
width = 694;
}
);
leftKerningGroup = A2;
rightKerningGroup = A;
unicode = 194;
},
{
glyphname = Atilde;
layers = (
{
hints = (
{
horizontal = 1;
origin = (0,11);
target = (1,0);
type = Stem;
},
{
horizontal = 1;
origin = (0,7);
target = up;
type = BottomGhost;
},
{
horizontal = 1;
origin = (0,3);
target = down;
type = TopGhost;
}
);
layerId = "C858EFCA-0EF1-49E8-8937-16326EFE75E3";
shapes = (
{
closed = 1;
nodes = (
(359.285,632.043,ls),
(356.886,636.826,o),
(352.004,639.846,o),
(346.657,639.846,cs),
(341.309,639.846,o),
(336.422,636.829,o),
(334.029,632.043,cs),
(18,0,l),
(37.344,0,o),
(55.023,10.921,o),
(63.673,28.219,cs),
(162.003,224.866,l),
(531.324,224.866,l),
(629.64,28.219,ls),
(638.29,10.921,o),
(655.969,0,o),
(675.299,0,c)
);
},
{
closed = 1;
nodes = (
(176.099,253.085,l),
(346.657,594.187,l),
(517.2,253.085,l)
);
},
{
closed = 1;
nodes = (
(258.231,810.757,o),
(296.408,789.247,o),
(339.715,764.858,cs),
(369.892,747.864,o),
(402.362,729.57,o),
(436.945,729.57,cs),
(462.412,729.57,o),
(488.981,739.503,o),
(516.608,767.187,c),
(506.011,777.755,o),
(489.531,779.067,o),
(471.126,767.084,cs),
(435.026,743.581,o),
(396.859,765.056,o),
(356.114,787.997,cs),
(301.153,818.941,o),
(241.78,852.395,o),
(176.663,787.109,c),
(187.26,776.541,o),
(203.74,775.243,o),
(222.131,787.229,cs)
);
}
);
width = 694;
}
);
leftKerningGroup = A2;
rightKerningGroup = A;
unicode = 195;
},
{
glyphname = Adieresis;
layers = (
{
hints = (
{
origin = (1,8);
target = (1,2);
type = Stem;
},
{
origin = (0,8);
target = (0,2);
type = Stem;
},
{
horizontal = 1;
origin = (2,11);
target = (3,0);
type = Stem;
},
{
horizontal = 1;
origin = (0,11);
target = (0,5);
type = Stem;
},
{
horizontal = 1;
origin = (2,7);
target = up;
type = BottomGhost;
},
{
horizontal = 1;
origin = (2,3);
target = down;
type = TopGhost;
}
);
layerId = "C858EFCA-0EF1-49E8-8937-16326EFE75E3";
shapes = (
{
closed = 1;
nodes = (
(415.456,764.866,o),
(428.888,778.298,o),
(428.888,794.863,cs),
(428.888,811.428,o),
(415.456,824.86,o),
(398.891,824.86,cs),
(382.326,824.86,o),
(368.894,811.428,o),
(368.894,794.863,cs),
(368.894,778.298,o),
(382.326,764.866,o),
(398.891,764.866,cs)
);
},
{
closed = 1;
nodes = (
(310.976,764.866,o),
(324.406,778.296,o),
(324.406,794.863,cs),
(324.406,811.43,o),
(310.976,824.86,o),
(294.409,824.86,cs),
(277.842,824.86,o),
(264.411,811.43,o),
(264.411,794.863,cs),
(264.411,778.296,o),
(277.842,764.866,o),
(294.409,764.866,cs)
);
},
{
closed = 1;
nodes = (
(359.285,632.057,ls),
(356.886,636.84,o),
(352.004,639.86,o),
(346.657,639.86,cs),
(341.309,639.86,o),
(336.421,636.843,o),
(334.028,632.057,cs),
(18,0,l),
(37.344,0,o),
(55.023,10.921,o),
(63.673,28.219,cs),
(162.003,224.866,l),
(531.324,224.866,l),
(629.64,28.219,ls),
(638.29,10.921,o),
(655.969,0,o),
(675.299,0,c)
);
},
{
closed = 1;
nodes = (
(176.099,253.099,l),
(346.657,594.201,l),
(517.2,253.099,l)
);
}
);
width = 694;
}
);
leftKerningGroup = A2;
rightKerningGroup = A;
unicode = 196;
},
{
glyphname = Aring;
layers = (
{
hints = (
{
origin = (0,12);
target = (0,6);
type = Stem;
},
{
origin = (1,5);
target = (0,6);
type = Stem;
},
{
horizontal = 1;
origin = (0,23);
target = (2,0);
type = Stem;
},
{
horizontal = 1;
origin = (1,2);
target = (0,9);
type = Stem;
},
{
horizontal = 1;
origin = (0,19);
target = up;
type = BottomGhost;
}
);
layerId = "C858EFCA-0EF1-49E8-8937-16326EFE75E3";
shapes = (
{
closed = 1;
nodes = (
(357.285,632.057,ls),
(356.283,634.061,o),
(354.773,635.669,o),
(353.038,636.953,c),
(378.844,641.045,o),
(398.697,663.268,o),
(398.697,690.203,cs),
(398.697,720.031,o),
(374.414,744.3,o),
(344.586,744.3,cs),
(314.758,744.3,o),
(290.49,720.031,o),
(290.49,690.203,cs),
(290.49,663.211,o),
(310.413,640.96,o),
(336.276,636.939,c),
(334.554,635.641,o),
(333.039,634.049,o),
(332.043,632.057,cs),
(16,0.014,l),
(35.344,0.014,o),
(53.023,10.935,o),
(61.673,28.233,cs),
(160.003,224.88,l),
(529.324,224.88,l),
(627.64,28.233,ls),
(636.29,10.935,o),
(653.969,0.014,o),
(673.299,0.014,c)
);
},
{
closed = 1;
nodes = (
(318.709,704.496,o),
(330.307,716.094,o),
(344.586,716.094,cs),
(358.865,716.094,o),
(370.477,704.496,o),
(370.477,690.217,cs),
(370.477,675.938,o),
(358.865,664.326,o),
(344.586,664.326,cs),
(330.307,664.326,o),
(318.709,675.938,o),
(318.709,690.217,cs)
);
},
{
closed = 1;
nodes = (
(174.113,253.099,l),
(344.671,594.201,l),
(515.214,253.099,l)
);
}
);
width = 690;
}
);
leftKerningGroup = A2;
rightKerningGroup = A;
unicode = 197;
},
{
glyphname = AE;
layers = (
{
hints = (
{
origin = (0,21);
target = (0,1);
type = Stem;
},
{
horizontal = 1;
origin = (0,25);
target = (0,0);
type = Stem;
},
{
horizontal = 1;
origin = (0,20);
target = (1,0);
type = Stem;
},
{
horizontal = 1;
origin = (0,1);
target = (0,6);
type = Stem;
},
{
horizontal = 1;
origin = (0,7);
target = (0,12);
type = Stem;
},
{
horizontal = 1;
origin = (0,19);
target = up;
type = BottomGhost;
}
);
layerId = "C858EFCA-0EF1-49E8-8937-16326EFE75E3";
shapes = (
{
closed = 1;
nodes = (
(359.057,33.61,l),
(359.057,310.06,l),
(622.587,310.06,ls),
(638.157,310.06,o),
(650.807,322.7,o),
(650.807,338.28,c),
(359.057,338.28,l),
(359.057,614.72,l),
(744.917,614.72,l),
(744.917,630.31,o),
(732.287,642.94,o),
(716.697,642.94,cs),
(344.947,642.94,l),
(334.187,642.53,o),
(324.557,636.98,o),
(319.737,627.33,c),
(24.987,37.87,ls),
(18.017,23.93,o),
(23.657,6.98,o),
(37.607,0,c),
(158.507,241.77,l),
(330.857,241.77,l),
(330.857,19.49,ls),
(330.857,11.7,o),
(337.177,5.38,o),
(344.967,5.38,cs),
(744.927,5.38,l),
(744.927,20.97,o),
(732.297,33.6,o),
(716.697,33.61,c)
);
},
{
closed = 1;
nodes = (
(172.597,270,l),
(330.837,586.45,l),
(330.837,270,l)
);
}
);
width = 770;
}
);
leftKerningGroup = A2;
unicode = 198;
},
{
glyphname = Ccedilla;
layers = (
{
hints = (
{
origin = (0,29);
target = (0,14);
type = Stem;
},
{
horizontal = 1;
origin = (0,51);
target = (0,47);
type = Stem;
},
{
horizontal = 1;
origin = (0,39);
target = (0,58);
type = Stem;
},
{
horizontal = 1;
origin = (0,32);
target = (0,11);
type = Stem;
},
{
horizontal = 1;
origin = (0,17);
target = (0,26);
type = Stem;
}
);
layerId = "C858EFCA-0EF1-49E8-8937-16326EFE75E3";
shapes = (
{
closed = 1;
nodes = (
(521.325,57.522,o),
(504.661,62.319,o),
(490.636,55.758,cs),
(452.117,37.726,o),
(409.844,28.287,o),
(371.299,28.287,cs),
(367.29,28.287,o),
(365.069,28.389,o),
(363.487,28.474,cs),
(362.574,28.524,o),
(361.874,28.586,o),
(360.193,28.625,cs),
(202.503,32.27,o),
(75.262,161.397,o),
(75.262,319.948,c),
(75.248,480.77,o),
(206.101,611.623,o),
(366.909,611.623,cs),
(409.845,611.623,o),
(452.117,602.184,o),
(490.622,584.151,cs),
(504.647,577.59,o),
(521.311,582.388,o),
(529.17,595.721,c),
(480.195,624.604,o),
(424.081,639.885,o),
(366.909,639.885,c),
(190.51,639.871,o),
(47,496.347,o),
(47,319.948,cs),
(47,154.752,o),
(172.844,18.438,o),
(333.695,1.76,c),
(285.651,-46.974,ls),
(281.659,-51.024,o),
(280.487,-57.077,o),
(282.688,-62.326,cs),
(284.875,-67.575,o),
(290.011,-70.989,o),
(295.697,-70.989,cs),
(389.541,-70.989,ls),
(405.301,-70.989,o),
(419.693,-82.305,o),
(421.302,-97.981,cs),
(423.136,-116.013,o),
(408.97,-131.28,o),
(391.318,-131.28,c),
(309.948,-131.647,ls),
(294.343,-131.717,o),
(281.729,-144.388,o),
(281.729,-159.993,c),
(391.318,-159.485,l),
(425.422,-159.485,o),
(452.794,-130.066,o),
(449.394,-95.286,cs),
(446.431,-64.964,o),
(419.171,-42.756,o),
(388.708,-42.756,cs),
(329.419,-42.756,l),
(371.777,0.208,l),
(427.27,1.055,o),
(481.606,16.138,o),
(529.184,44.188,c)
);
}
);
width = 557;
}
);
leftKerningGroup = C2;
rightKerningGroup = C;
unicode = 199;
},
{
glyphname = Egrave;
layers = (
{
hints = (
{
origin = (0,15);
target = (0,7);
type = Stem;
},
{
horizontal = 1;
origin = (0,19);
target = (0,0);
type = Stem;
},
{
horizontal = 1;
origin = (0,1);
target = (0,6);
type = Stem;
},
{
horizontal = 1;
origin = (0,7);
target = (0,12);
type = Stem;
}
);
layerId = "C858EFCA-0EF1-49E8-8937-16326EFE75E3";
shapes = (
{
closed = 1;
nodes = (
(108.219,28.219,l),
(108.219,305.912,l),
(394.603,305.912,ls),
(410.181,305.912,o),
(422.823,318.554,o),
(422.823,334.131,c),
(108.219,334.131,l),
(108.219,611.626,l),
(465.857,611.626,ls),
(481.434,611.626,o),
(494.077,624.269,o),
(494.077,639.846,c),
(94.11,639.846,ls),
(86.321,639.846,o),
(80,633.524,o),
(80,625.736,cs),
(80,14.11,ls),
(80,6.321,o),
(86.321,0,o),
(94.11,0,cs),
(494.077,0,l),
(494.077,15.577,o),
(481.434,28.219,o),
(465.857,28.219,c)
);
},
{
closed = 1;
nodes = (
(310.976,757.43,l),
(250.926,817.439,ls),
(239.902,828.454,o),
(222.043,828.458,o),
(211.024,817.439,c),
(272.711,755.765,ls),
(282.829,745.65,o),
(299.209,745.663,o),
(309.326,755.779,cs)
);
}
);
width = 522;
}
);
leftKerningGroup = B;
rightKerningGroup = E;
unicode = 200;
},
{
glyphname = Eacute;
layers = (
{
hints = (
{
origin = (0,15);
target = (0,7);
type = Stem;
},
{
horizontal = 1;
origin = (0,19);
target = (0,0);
type = Stem;
},
{
horizontal = 1;
origin = (0,1);
target = (0,6);
type = Stem;
},
{
horizontal = 1;
origin = (0,7);
target = (0,12);
type = Stem;
}
);
layerId = "C858EFCA-0EF1-49E8-8937-16326EFE75E3";
shapes = (
{
closed = 1;
nodes = (
(107.219,28.226,l),
(107.219,305.919,l),
(393.603,305.919,ls),
(409.181,305.919,o),
(421.823,318.561,o),
(421.823,334.138,c),
(107.219,334.138,l),
(107.219,611.633,l),
(464.857,611.633,ls),
(480.434,611.633,o),
(493.077,624.276,o),
(493.077,639.853,c),
(93.11,639.853,ls),
(85.321,639.853,o),
(79,633.532,o),
(79,625.743,cs),
(79,14.117,ls),
(79,6.328,o),
(85.321,0.007,o),
(93.11,0.007,cs),
(493.077,0.007,l),
(493.077,15.584,o),
(480.434,28.226,o),
(464.857,28.226,c)
);
},
{
closed = 1;
nodes = (
(310.476,817.191,l),
(299.457,828.211,o),
(281.588,828.217,o),
(270.56,817.191,cs),
(210.524,757.169,l),
(212.174,755.518,ls),
(222.284,745.409,o),
(238.672,745.401,o),
(248.789,755.518,c)
);
}
);
width = 521;
}
);
rightKerningGroup = E;
unicode = 201;
},
{
glyphname = Ecircumflex;
layers = (
{
hints = (
{
origin = (0,15);
target = (0,7);
type = Stem;
},
{
horizontal = 1;
origin = (0,19);
target = (0,0);
type = Stem;
},
{
horizontal = 1;
origin = (0,1);
target = (0,6);
type = Stem;
},
{
horizontal = 1;
origin = (0,7);
target = (0,12);
type = Stem;
},
{
horizontal = 1;
origin = (1,8);
target = down;
type = TopGhost;
}
);
layerId = "C858EFCA-0EF1-49E8-8937-16326EFE75E3";
shapes = (
{
closed = 1;
nodes = (
(107.219,28.231,l),
(107.219,305.924,l),
(393.603,305.924,ls),
(409.181,305.924,o),
(421.823,318.566,o),
(421.823,334.143,c),
(107.219,334.143,l),
(107.219,611.638,l),
(464.857,611.638,ls),
(480.434,611.638,o),
(493.077,624.281,o),
(493.077,639.858,c),
(93.11,639.858,ls),
(85.321,639.858,o),
(79,633.537,o),
(79,625.748,cs),
(79,14.122,ls),
(79,6.333,o),
(85.321,0.012,o),
(93.11,0.012,cs),
(493.077,0.012,l),
(493.077,15.589,o),
(480.434,28.231,o),
(464.857,28.231,c)
);
},
{
closed = 1;
nodes = (
(260.5,796.803,l),
(302.378,754.94,ls),
(312.489,744.832,o),
(328.875,744.838,o),
(340.643,756.591,c),
(280.592,816.613,ls),
(275.046,822.157,o),
(267.767,824.868,o),
(260.5,824.868,cs),
(253.233,824.868,o),
(245.954,822.157,o),
(240.408,816.613,cs),
(180.357,756.591,l),
(182.008,754.94,ls),
(192.124,744.823,o),
(208.504,744.825,o),
(218.622,754.94,cs)
);
}
);
width = 521;
}
);
rightKerningGroup = E;
unicode = 202;
},
{
glyphname = Edieresis;
layers = (
{
hints = (
{
origin = (0,15);
target = (0,7);
type = Stem;
},
{
origin = (2,8);
target = (2,2);
type = Stem;
},
{
origin = (1,8);
target = (1,2);
type = Stem;
},
{
horizontal = 1;
origin = (0,19);
target = (0,0);
type = Stem;
},
{
horizontal = 1;
origin = (0,1);
target = (0,6);
type = Stem;
},
{
horizontal = 1;
origin = (0,7);
target = (0,12);
type = Stem;
},
{
horizontal = 1;
origin = (1,11);
target = (1,5);
type = Stem;
}
);
layerId = "C858EFCA-0EF1-49E8-8937-16326EFE75E3";
shapes = (
{
closed = 1;
nodes = (
(107.219,28.231,l),
(107.219,305.924,l),
(393.603,305.924,ls),
(409.195,305.924,o),
(421.823,318.566,o),
(421.823,334.143,c),
(107.219,334.143,l),
(107.219,611.638,l),
(464.857,611.638,ls),
(480.449,611.638,o),
(493.077,624.281,o),
(493.077,639.858,c),
(93.11,639.858,ls),
(85.321,639.858,o),
(79,633.537,o),
(79,625.748,cs),
(79,14.122,ls),
(79,6.333,o),
(85.321,0.012,o),
(93.11,0.012,cs),
(493.077,0.012,l),
(493.077,15.589,o),
(480.449,28.231,o),
(464.857,28.231,c)
);
},
{
closed = 1;
nodes = (
(354.846,765.163,o),
(368.277,778.593,o),
(368.277,795.16,cs),
(368.277,811.727,o),
(354.846,825.157,o),
(338.279,825.157,cs),
(321.712,825.157,o),
(308.282,811.727,o),
(308.282,795.16,cs),
(308.282,778.593,o),
(321.712,765.163,o),
(338.279,765.163,cs)
);
},
{
closed = 1;
nodes = (
(250.378,765.163,o),
(263.809,778.593,o),
(263.809,795.16,cs),
(263.809,811.727,o),
(250.378,825.157,o),
(233.811,825.157,cs),
(217.244,825.157,o),
(203.814,811.727,o),
(203.814,795.16,cs),
(203.814,778.593,o),
(217.244,765.163,o),
(233.811,765.163,cs)
);
}
);
width = 521;
}
);
rightKerningGroup = E;
unicode = 203;
},
{
glyphname = Iacute;
layers = (
{
hints = (
{
origin = (0,7);
target = (0,4);
type = Stem;
},
{
horizontal = 1;
origin = (0,0);
target = up;
type = BottomGhost;
},
{
horizontal = 1;
origin = (0,4);
target = down;
type = TopGhost;
}
);
layerId = "C858EFCA-0EF1-49E8-8937-16326EFE75E3";
shapes = (
{
closed = 1;
nodes = (
(78.87,0,l),
(94.46,0,o),
(107.09,12.64,o),
(107.09,28.22,cs),
(107.09,639.93,l),
(91.51,639.93,o),
(78.87,627.3,o),
(78.87,611.71,cs)
);
},
{
closed = 1;
nodes = (
(142.95,817.499,l),
(131.93,828.519,o),
(114.073,828.517,o),
(103.05,817.499,cs),
(43,757.479,l),
(44.65,755.829,ls),
(54.77,745.709,o),
(71.149,745.71,o),
(81.27,755.829,cs)
);
}
);
width = 187;
}
);
unicode = 205;
},
{
glyphname = Icircumflex;
layers = (
{
hints = (
{
origin = (0,7);
target = (0,4);
type = Stem;
},
{
horizontal = 1;
origin = (0,0);
target = up;
type = BottomGhost;
},
{
horizontal = 1;
origin = (0,4);
target = down;
type = TopGhost;
},
{
horizontal = 1;
origin = (1,3);
target = down;
type = TopGhost;
}
);
layerId = "C858EFCA-0EF1-49E8-8937-16326EFE75E3";
shapes = (
{
closed = 1;
nodes = (
(79.033,0.004,l),
(94.61,0.004,o),
(107.253,12.632,o),
(107.253,28.223,cs),
(107.253,639.934,l),
(91.676,639.934,o),
(79.033,627.306,o),
(79.033,611.715,cs)
);
},
{
closed = 1;
nodes = (
(113.592,816.829,ls),
(108.046,822.373,o),
(100.767,825.069,o),
(93.5,825.069,cs),
(86.233,825.069,o),
(78.947,822.365,o),
(73.408,816.829,cs),
(13.357,756.806,l),
(15.008,755.155,ls),
(25.117,745.046,o),
(41.504,745.04,o),
(51.622,755.155,cs),
(93.5,797.019,l),
(135.378,755.155,ls),
(145.496,745.04,o),
(161.875,745.053,o),
(173.643,756.806,c)
);
}
);
width = 187;
}
);
unicode = 206;
},
{
glyphname = Idieresis;
layers = (
{
hints = (
{
origin = (2,8);
target = (2,2);
type = Stem;
},
{
origin = (0,7);
target = (0,4);
type = Stem;
},
{
origin = (1,2);
target = (1,8);
type = Stem;
},
{
horizontal = 1;
origin = (2,11);
target = (2,5);
type = Stem;
},
{
horizontal = 1;
origin = (0,0);
target = up;
type = BottomGhost;
},
{
horizontal = 1;
origin = (0,4);
target = down;
type = TopGhost;
}
);
layerId = "C858EFCA-0EF1-49E8-8937-16326EFE75E3";
shapes = (
{
closed = 1;
nodes = (
(79.122,0.007,l),
(94.713,0.007,o),
(107.341,12.649,o),
(107.341,28.226,cs),
(107.341,639.937,l),
(91.764,639.937,o),
(79.122,627.295,o),
(79.122,611.718,c)
);
},
{
closed = 1;
nodes = (
(128.9,825.161,o),
(115.468,811.728,o),
(115.468,795.163,cs),
(115.468,778.599,o),
(128.9,765.166,o),
(145.465,765.166,cs),
(162.03,765.166,o),
(175.462,778.599,o),
(175.462,795.163,cs),
(175.462,811.728,o),
(162.03,825.161,o),
(145.465,825.161,cs)
);
},
{
closed = 1;
nodes = (
(57.564,765.166,o),
(70.994,778.596,o),
(70.994,795.163,cs),
(70.994,811.73,o),
(57.564,825.161,o),
(40.997,825.161,cs),
(24.43,825.161,o),
(11,811.73,o),
(11,795.163,cs),
(11,778.596,o),
(24.43,765.166,o),
(40.997,765.166,cs)
);
}
);
width = 187;
}
);
unicode = 207;
},
{
glyphname = Eth;
layers = (
{
hints = (
{
origin = (0,6);
target = (1,1);
type = Stem;
},
{
origin = (1,11);
target = (0,11);
type = Stem;
},
{
horizontal = 1;
origin = (0,7);
target = (1,0);
type = Stem;
},
{
horizontal = 1;
origin = (1,1);
target = (1,6);
type = Stem;
},
{
horizontal = 1;
origin = (1,7);
target = (0,0);
type = Stem;
}
);
layerId = "C858EFCA-0EF1-49E8-8937-16326EFE75E3";
shapes = (
{
closed = 1;
nodes = (
(111.974,639.93,l),
(111.974,334.075,l),
(60.219,334.075,ls),
(44.642,334.075,o),
(32,321.433,o),
(32,305.855,c),
(111.974,305.855,l),
(111.974,0,l),
(271.963,0,ls),
(448.673,0,o),
(591.928,143.256,o),
(591.928,319.965,cs),
(591.928,496.675,o),
(448.673,639.93,o),
(271.963,639.93,c)
);
},
{
closed = 1;
nodes = (
(140.193,28.219,l),
(140.193,305.855,l),
(243.744,305.855,ls),
(259.321,305.855,o),
(271.963,318.498,o),
(271.963,334.075,c),
(140.193,334.075,l),
(140.193,611.711,l),
(271.963,611.711,ls),
(432.828,611.711,o),
(563.709,480.83,o),
(563.709,319.965,cs),
(563.709,159.101,o),
(432.828,28.219,o),
(271.963,28.219,c)
);
}
);
width = 639;
}
);
rightKerningGroup = D;
unicode = 208;
},
{
glyphname = Ntilde;
layers = (
{
hints = (
{
origin = (0,4);
target = (0,9);
type = Stem;
},
{
origin = (0,17);
target = (0,14);
type = Stem;
},
{
horizontal = 1;
origin = (0,5);
target = up;
type = BottomGhost;
},
{
horizontal = 1;
origin = (0,14);
target = down;
type = TopGhost;
}
);
layerId = "C858EFCA-0EF1-49E8-8937-16326EFE75E3";
shapes = (
{
closed = 1;
nodes = (
(558.95,42.34,l),
(117.15,631.39,ls),
(104.93,647.69,o),
(79,639.04,o),
(79,618.68,cs),
(79,0,l),
(94.57,0,o),
(107.22,12.63,o),
(107.22,28.22,cs),
(107.22,597.62,l),
(548.89,8.69,ls),
(561.146,-7.653,o),
(587.16,1.02,o),
(587.16,21.45,cs),
(587.16,639.94,l),
(571.57,639.94,o),
(558.95,627.32,o),
(558.95,611.73,cs)
);
},
{
closed = 1;
nodes = (
(244.671,810.872,o),
(282.847,789.368,o),
(326.16,764.974,cs),
(356.337,747.978,o),
(388.8,729.684,o),
(423.39,729.684,cs),
(448.85,729.684,o),
(475.42,739.624,o),
(503.05,767.303,c),
(492.45,777.874,o),
(475.971,779.182,o),
(463.43,771.014,cs),
(421.471,743.682,o),
(383.3,765.173,o),
(340,789.554,cs),
(287.59,819.063,o),
(228.22,852.514,o),
(163.1,787.224,c),
(173.7,776.664,o),
(190.181,775.362,o),
(202.72,783.534,cs)
);
}
);
width = 667;
}
);
leftKerningGroup = B;
rightKerningGroup = H;
unicode = 209;
},
{
glyphname = Ograve;
layers = (
{
hints = (
{
origin = (0,2);
target = (1,2);
type = Stem;
},
{
origin = (1,8);
target = (0,8);
type = Stem;
},
{
horizontal = 1;
origin = (0,5);
target = (1,11);
type = Stem;
},
{
horizontal = 1;
origin = (1,5);
target = (0,11);
type = Stem;
}
);
layerId = "C858EFCA-0EF1-49E8-8937-16326EFE75E3";
shapes = (
{
closed = 1;
nodes = (
(190.256,639.93,o),
(47,496.675,o),
(47,319.965,cs),
(47,143.256,o),
(190.256,0,o),
(366.965,0,cs),
(543.675,0,o),
(686.93,143.256,o),
(686.93,319.965,cs),
(686.93,496.675,o),
(543.675,639.93,o),
(366.965,639.93,cs)
);
},
{
closed = 1;
nodes = (
(208.499,32.586,o),
(79.579,161.499,o),
(79.579,319.965,cs),
(79.579,478.431,o),
(208.499,607.337,o),
(366.965,607.337,cs),
(525.431,607.337,o),
(654.351,478.417,o),
(654.351,319.951,cs),
(654.351,161.485,o),
(525.431,32.572,o),
(366.965,32.579,cs)
);
},
{
closed = 1;
nodes = (
(416.956,765.819,l),
(356.905,825.828,ls),
(345.881,836.843,o),
(328.022,836.847,o),
(317.003,825.828,c),
(378.69,764.154,ls),
(388.801,754.046,o),
(405.188,754.052,o),
(415.305,764.168,cs)
);
}
);
width = 734;
}
);
leftKerningGroup = C2;
rightKerningGroup = D;
unicode = 210;
},
{
glyphname = Oacute;
layers = (
{
hints = (
{
origin = (0,2);
target = (1,2);
type = Stem;
},
{
origin = (1,8);
target = (0,8);
type = Stem;
},
{
horizontal = 1;
origin = (0,5);
target = (1,11);
type = Stem;
},
{
horizontal = 1;
origin = (1,5);
target = (0,11);
type = Stem;
}
);
layerId = "C858EFCA-0EF1-49E8-8937-16326EFE75E3";
shapes = (
{
closed = 1;
nodes = (
(190.256,639.951,o),
(47,496.689,o),
(47,319.965,cs),
(47,143.241,o),
(190.256,0,o),
(366.965,0,cs),
(543.675,0,o),
(686.93,143.256,o),
(686.93,319.965,cs),
(686.93,496.675,o),
(543.675,639.937,o),
(366.965,639.944,cs)
);
},
{
closed = 1;
nodes = (
(208.499,32.6,o),
(79.579,161.514,o),
(79.579,319.979,cs),
(79.579,478.445,o),
(208.499,607.351,o),
(366.965,607.351,cs),
(525.431,607.351,o),
(654.351,478.431,o),
(654.351,319.965,cs),
(654.351,161.499,o),
(525.431,32.586,o),
(366.965,32.593,cs)
);
},
{
closed = 1;
nodes = (
(416.741,817.09,l),
(405.722,828.11,o),
(387.861,828.107,o),
(376.839,817.09,cs),
(316.788,757.068,l),
(318.439,755.417,ls),
(328.556,745.3,o),
(344.937,745.3,o),
(355.054,755.417,c)
);
}
);
width = 734;
}
);
leftKerningGroup = C2;
rightKerningGroup = D;
unicode = 211;
},
{
glyphname = Ocircumflex;
layers = (
{
hints = (
{
origin = (0,2);
target = (1,2);
type = Stem;
},
{
origin = (1,8);
target = (0,8);
type = Stem;
},
{
horizontal = 1;
origin = (0,5);
target = (1,11);
type = Stem;
},
{
horizontal = 1;
origin = (1,5);
target = (0,11);
type = Stem;
},
{
horizontal = 1;
origin = (2,9);
target = down;
type = TopGhost;
}
);
layerId = "C858EFCA-0EF1-49E8-8937-16326EFE75E3";
shapes = (
{
closed = 1;
nodes = (
(190.256,639.935,o),
(47,496.68,o),
(47,319.97,cs),
(47,143.261,o),
(190.256,0.005,o),
(366.965,0.005,cs),
(543.675,0.005,o),
(686.93,143.261,o),
(686.93,319.97,cs),
(686.93,496.68,o),
(543.675,639.935,o),
(366.965,639.935,cs)
);
},
{
closed = 1;
nodes = (
(208.499,32.591,o),
(79.579,161.504,o),
(79.579,319.97,cs),
(79.579,478.436,o),
(208.499,607.342,o),
(366.965,607.342,cs),
(525.431,607.342,o),
(654.337,478.422,o),
(654.337,319.956,cs),
(654.337,161.49,o),
(525.417,32.577,o),
(366.965,32.584,cs)
);
},
{
closed = 1;
nodes = (
(366.965,796.97,l),
(408.843,755.107,ls),
(418.954,744.999,o),
(435.348,744.997,o),
(445.457,755.107,cs),
(447.108,756.758,l),
(387.057,816.78,ls),
(381.511,822.324,o),
(374.232,825.035,o),
(366.965,825.035,cs),
(359.698,825.035,o),
(352.418,822.325,o),
(346.873,816.78,c),
(288.473,755.107,l),
(298.59,744.99,o),
(314.969,744.992,o),
(325.088,755.107,cs)
);
}
);
width = 734;
}
);
leftKerningGroup = C2;
rightKerningGroup = D;
unicode = 212;
},
{
glyphname = Otilde;
layers = (
{
hints = (
{
origin = (0,2);
target = (1,2);
type = Stem;
},
{
origin = (1,8);
target = (0,8);
type = Stem;
},
{
horizontal = 1;
origin = (0,5);
target = (1,11);
type = Stem;
},
{
horizontal = 1;
origin = (1,5);
target = (0,11);
type = Stem;
},
{
horizontal = 1;
origin = (0,11);
target = (2,5);
type = Stem;
}
);
layerId = "C858EFCA-0EF1-49E8-8937-16326EFE75E3";
shapes = (
{
closed = 1;
nodes = (
(190.256,639.951,o),
(47,496.689,o),
(47,319.965,cs),
(47,143.241,o),
(190.256,0,o),
(366.965,0,cs),
(543.675,0,o),
(686.93,143.256,o),
(686.93,319.965,cs),
(686.93,496.675,o),
(543.675,639.937,o),
(366.965,639.944,cs)
);
},
{
closed = 1;
nodes = (
(208.499,32.6,o),
(79.579,161.514,o),
(79.579,319.979,cs),
(79.579,478.445,o),
(208.499,607.351,o),
(366.965,607.351,cs),
(525.431,607.351,o),
(654.337,478.431,o),
(654.337,319.965,cs),
(654.337,161.499,o),
(525.417,32.586,o),
(366.965,32.593,cs)
);
},
{
closed = 1;
nodes = (
(278.553,810.966,o),
(316.732,789.457,o),
(360.051,765.066,cs),
(390.23,748.074,o),
(422.698,729.778,o),
(457.281,729.778,cs),
(482.749,729.778,o),
(509.318,739.711,o),
(536.944,767.394,c),
(526.348,777.962,o),
(509.869,779.272,o),
(497.324,771.105,cs),
(455.364,743.786,o),
(417.196,765.264,o),
(373.893,789.645,cs),
(321.49,819.149,o),
(262.116,852.602,o),
(197,787.317,c),
(207.596,776.749,o),
(224.076,775.452,o),
(236.606,783.62,cs)
);
}
);
width = 734;
}
);
leftKerningGroup = C2;
rightKerningGroup = D;
unicode = 213;
},
{
glyphname = Odieresis;
layers = (
{
hints = (
{
origin = (0,2);
target = (1,3);
type = Stem;
},
{
origin = (3,8);
target = (3,2);
type = Stem;
},
{
origin = (2,8);
target = (2,2);
type = Stem;
},
{
origin = (1,9);
target = (0,8);
type = Stem;
},
{
horizontal = 1;
origin = (0,5);
target = (1,0);
type = Stem;
},
{
horizontal = 1;
origin = (1,6);
target = (0,11);
type = Stem;
},
{
horizontal = 1;
origin = (2,11);
target = (2,5);
type = Stem;
}
);
layerId = "C858EFCA-0EF1-49E8-8937-16326EFE75E3";
shapes = (
{
closed = 1;
nodes = (
(190.256,639.93,o),
(47,496.675,o),
(47,319.965,cs),
(47,143.256,o),
(190.256,0,o),
(366.965,0,cs),
(543.675,0,o),
(686.93,143.256,o),
(686.93,319.965,cs),
(686.93,496.675,o),
(543.675,639.93,o),
(366.965,639.93,cs)
);
},
{
closed = 1;
nodes = (
(366.965,32.579,l),
(208.513,32.579,o),
(79.593,161.499,o),
(79.593,319.965,cs),
(79.593,478.431,o),
(208.499,607.337,o),
(366.965,607.337,cs),
(525.431,607.337,o),
(654.351,478.417,o),
(654.351,319.951,cs),
(654.351,161.485,o),
(525.431,32.565,o),
(366.965,32.565,c)
);
},
{
closed = 1;
nodes = (
(435.766,765.639,o),
(449.196,779.069,o),
(449.196,795.636,cs),
(449.196,812.203,o),
(435.766,825.633,o),
(419.199,825.633,cs),
(402.632,825.633,o),
(389.202,812.203,o),
(389.202,795.636,cs),
(389.202,779.069,o),
(402.632,765.639,o),
(419.199,765.639,cs)
);
},
{
closed = 1;
nodes = (
(331.298,765.639,o),
(344.728,779.069,o),
(344.728,795.636,cs),
(344.728,812.203,o),
(331.298,825.633,o),
(314.731,825.633,cs),
(298.164,825.633,o),
(284.734,812.203,o),
(284.734,795.636,cs),
(284.734,779.069,o),
(298.164,765.639,o),
(314.731,765.639,cs)
);
}
);
width = 734;
}
);
leftKerningGroup = C2;
rightKerningGroup = D;
unicode = 214;
},
{
glyphname = multiply;
layers = (
{
layerId = "C858EFCA-0EF1-49E8-8937-16326EFE75E3";
shapes = (
{
closed = 1;
nodes = (
(241.63,358,l),
(230.61,369.02,o),
(212.75,369.02,o),
(201.73,358,cs),
(146.82,303.08,l),
(91.9,358,ls),
(80.88,369.02,o),
(63.02,369.02,o),
(52,358,c),
(126.87,283.13,l),
(52,208.26,l),
(63.02,197.25,o),
(80.88,197.25,o),
(91.9,208.26,cs),
(146.82,263.18,l),
(201.73,208.26,ls),
(212.75,197.25,o),
(230.61,197.25,o),
(241.63,208.26,c),
(166.77,283.13,l)
);
}
);
width = 294;
}
);
unicode = 215;
},
{
glyphname = Oslash;
layers = (
{
hints = (
{
origin = (0,10);
target = (1,9);
type = Stem;
},
{
origin = (2,6);
target = (0,24);
type = Stem;
},
{
horizontal = 1;
origin = (0,21);
target = (2,9);
type = Stem;
},
{
horizontal = 1;
origin = (1,2);
target = (0,7);
type = Stem;
}
);
layerId = "C858EFCA-0EF1-49E8-8937-16326EFE75E3";
shapes = (
{
closed = 1;
nodes = (
(620.23,631.479,l),
(607.771,640.819,o),
(590.078,638.294,o),
(580.737,625.835,cs),
(549.47,584.141,l),
(498.083,619.316,o),
(435.944,639.93,o),
(368.979,639.93,cs),
(192.256,639.93,o),
(49,496.675,o),
(49,319.965,cs),
(49,220.351,o),
(94.532,131.389,o),
(165.899,72.707,c),
(117.714,8.466,l),
(130.173,-0.875,o),
(147.867,1.651,o),
(157.207,14.11,cs),
(188.46,55.79,l),
(239.847,20.614,o),
(301.987,0,o),
(368.965,0,cs),
(545.675,0,o),
(688.93,143.256,o),
(688.93,319.965,cs),
(688.93,419.579,o),
(643.398,508.541,o),
(572.032,567.223,c)
);
},
{
closed = 1;
nodes = (
(81.593,478.431,o),
(210.499,607.351,o),
(368.965,607.351,cs),
(428.522,607.351,o),
(483.903,589.121,o),
(529.83,557.981,c),
(185.568,98.937,l),
(122.088,151.693,o),
(81.593,231.173,o),
(81.593,319.965,cs)
);
},
{
closed = 1;
nodes = (
(309.422,32.579,o),
(254.042,50.809,o),
(208.101,81.963,c),
(552.363,540.993,l),
(615.842,488.237,o),
(656.337,408.757,o),
(656.337,319.965,cs),
(656.337,161.499,o),
(527.417,32.579,o),
(368.979,32.579,cs)
);
}
);
width = 738;
}
);
unicode = 216;
},
{
glyphname = Ugrave;
layers = (
{
hints = (
{
origin = (0,10);
target = (0,7);
type = Stem;
},
{
origin = (0,21);
target = (0,18);
type = Stem;
},
{
horizontal = 1;
origin = (0,14);
target = (0,3);
type = Stem;
},
{
horizontal = 1;
origin = (0,7);
target = down;
type = TopGhost;
}
);
layerId = "C858EFCA-0EF1-49E8-8937-16326EFE75E3";
shapes = (
{
closed = 1;
nodes = (
(548.955,238.679,ls),
(548.955,122.627,o),
(447.633,28.219,o),
(323.087,28.219,cs),
(198.541,28.219,o),
(97.219,122.641,o),
(97.219,238.679,cs),
(97.219,639.916,l),
(81.642,639.916,o),
(69,627.288,o),
(69,611.697,cs),
(69,238.679,ls),
(69,107.078,o),
(182.978,0,o),
(323.087,0,cs),
(463.196,0,o),
(577.174,107.078,o),
(577.174,238.679,cs),
(577.174,639.916,l),
(561.597,639.916,o),
(548.955,627.288,o),
(548.955,611.697,c)
);
},
{
closed = 1;
nodes = (
(373.976,756.629,l),
(313.926,816.638,ls),
(302.902,827.654,o),
(285.043,827.657,o),
(274.024,816.638,c),
(335.725,754.964,ls),
(345.83,744.864,o),
(362.216,744.869,o),
(372.326,754.979,cs)
);
}
);
width = 648;
}
);
leftKerningGroup = U2;
rightKerningGroup = U;
unicode = 217;
},
{
glyphname = Uacute;
layers = (
{
hints = (
{
origin = (0,10);
target = (0,7);
type = Stem;
},
{
origin = (0,21);
target = (0,18);
type = Stem;
},
{
horizontal = 1;
origin = (0,14);
target = (0,3);
type = Stem;
},
{
horizontal = 1;
origin = (0,7);
target = down;
type = TopGhost;
}
);
layerId = "C858EFCA-0EF1-49E8-8937-16326EFE75E3";
shapes = (
{
closed = 1;
nodes = (
(548.955,238.679,ls),
(548.955,122.627,o),
(447.633,28.219,o),
(323.087,28.219,cs),
(198.541,28.219,o),
(97.219,122.641,o),
(97.219,238.679,cs),
(97.219,639.916,l),
(81.642,639.916,o),
(69,627.288,o),
(69,611.697,cs),
(69,238.679,ls),
(69,107.078,o),
(182.978,0,o),
(323.087,0,cs),
(463.196,0,o),
(577.174,107.078,o),
(577.174,238.679,cs),
(577.174,639.916,l),
(561.597,639.916,o),
(548.955,627.288,o),
(548.955,611.697,c)
);
},
{
closed = 1;
nodes = (
(373.976,816.869,l),
(362.957,827.889,o),
(345.088,827.895,o),
(334.06,816.869,cs),
(274.024,756.847,l),
(275.674,755.196,ls),
(285.784,745.086,o),
(302.163,745.089,o),
(312.275,755.196,cs)
);
}
);
width = 648;
}
);
leftKerningGroup = U2;
rightKerningGroup = U;
unicode = 218;
},
{
glyphname = Ucircumflex;
layers = (
{
hints = (
{
origin = (0,10);
target = (0,7);
type = Stem;
},
{
origin = (0,21);
target = (0,18);
type = Stem;
},
{
horizontal = 1;
origin = (0,14);
target = (0,3);
type = Stem;
},
{
horizontal = 1;
origin = (0,18);
target = down;
type = TopGhost;
},
{
horizontal = 1;
origin = (1,8);
target = down;
type = TopGhost;
}
);
layerId = "C858EFCA-0EF1-49E8-8937-16326EFE75E3";
shapes = (
{
closed = 1;
nodes = (
(548.955,238.685,ls),
(548.955,122.632,o),
(447.633,28.225,o),
(323.087,28.225,cs),
(198.541,28.225,o),
(97.219,122.647,o),
(97.219,238.685,cs),
(97.219,639.921,l),
(81.628,639.921,o),
(69,627.293,o),
(69,611.702,cs),
(69,238.685,ls),
(69,107.084,o),
(182.978,0.005,o),
(323.087,0.005,cs),
(463.196,0.005,o),
(577.174,107.084,o),
(577.174,238.685,cs),
(577.174,639.921,l),
(561.583,639.921,o),
(548.955,627.293,o),
(548.955,611.702,c)
);
},
{
closed = 1;
nodes = (
(324,796.826,l),
(365.878,754.963,ls),
(375.989,744.855,o),
(392.375,744.86,o),
(404.143,756.613,c),
(344.092,816.636,ls),
(338.546,822.18,o),
(331.267,824.89,o),
(324,824.89,cs),
(316.733,824.89,o),
(309.454,822.18,o),
(303.908,816.636,cs),
(243.857,756.613,l),
(245.508,754.963,ls),
(255.624,744.846,o),
(272.004,744.848,o),
(282.122,754.963,cs)
);
}
);
width = 648;
}
);
leftKerningGroup = U2;
rightKerningGroup = U;
unicode = 219;
},
{
glyphname = Udieresis;
layers = (
{
hints = (
{
origin = (0,10);
target = (0,7);
type = Stem;
},
{
origin = (2,8);
target = (2,2);
type = Stem;
},
{
origin = (1,8);
target = (1,2);
type = Stem;
},
{
origin = (0,21);
target = (0,18);
type = Stem;
},
{
horizontal = 1;
origin = (0,14);
target = (0,3);
type = Stem;
},
{
horizontal = 1;
origin = (1,11);
target = (1,5);
type = Stem;
},
{
horizontal = 1;
origin = (0,7);
target = down;
type = TopGhost;
}
);
layerId = "C858EFCA-0EF1-49E8-8937-16326EFE75E3";
shapes = (
{
closed = 1;
nodes = (
(548.955,238.679,ls),
(548.955,122.627,o),
(447.633,28.219,o),
(323.087,28.219,cs),
(198.541,28.219,o),
(97.219,122.641,o),
(97.219,238.693,cs),
(97.219,639.916,l),
(81.628,639.916,o),
(69,627.288,o),
(69,611.697,cs),
(69,238.679,ls),
(69,107.078,o),
(182.978,0,o),
(323.087,0,cs),
(463.196,0,o),
(577.174,107.078,o),
(577.174,238.679,cs),
(577.174,639.916,l),
(561.583,639.916,o),
(548.955,627.288,o),
(548.955,611.697,c)
);
},
{
closed = 1;
nodes = (
(391.888,765.006,o),
(405.318,778.436,o),
(405.318,795.003,cs),
(405.318,811.57,o),
(391.888,825,o),
(375.321,825,cs),
(358.754,825,o),
(345.324,811.57,o),
(345.324,795.003,cs),
(345.324,778.436,o),
(358.754,765.006,o),
(375.321,765.006,cs)
);
},
{
closed = 1;
nodes = (
(287.42,765.006,o),
(300.85,778.436,o),
(300.85,795.003,cs),
(300.85,811.57,o),
(287.42,825,o),
(270.853,825,cs),
(254.286,825,o),
(240.856,811.57,o),
(240.856,795.003,cs),
(240.856,778.436,o),
(254.286,765.006,o),
(270.853,765.006,cs)
);
}
);
width = 648;
}
);
leftKerningGroup = U2;
rightKerningGroup = U;
unicode = 220;
},
{
glyphname = Yacute;
layers = (
{
hints = (
{
origin = (1,5);
target = (1,10);
type = Stem;
},
{
horizontal = 1;
origin = (1,11);
target = down;
type = TopGhost;
},
{
horizontal = 1;
origin = (1,6);
target = up;
type = BottomGhost;
}
);
layerId = "C858EFCA-0EF1-49E8-8937-16326EFE75E3";
shapes = (
{
closed = 1;
nodes = (
(312.663,816.668,l),
(301.643,827.687,o),
(283.781,827.687,o),
(272.761,816.668,c),
(214.361,754.994,l),
(224.478,744.892,o),
(240.859,744.878,o),
(250.976,754.994,c)
);
},
{
closed = 1;
nodes = (
(262.701,343.916,l),
(67.465,611.732,ls),
(54.541,629.454,o),
(33.941,639.937,o),
(12,639.937,c),
(247.956,316.233,l),
(247.956,0.007,l),
(263.533,0.007,o),
(276.175,12.635,o),
(276.175,28.226,cs),
(276.175,314.54,l),
(513.373,639.951,l),
(491.447,639.951,o),
(470.833,629.468,o),
(457.922,611.732,cs)
);
}
);
width = 526;
}
);
leftKerningGroup = Y2;
rightKerningGroup = Y;
unicode = 221;
},
{
glyphname = Thorn;
layers = (
{
hints = (
{
origin = (0,4);
target = (0,1);
type = Stem;
},
{
origin = (1,5);
target = (0,13);
type = Stem;
},
{
horizontal = 1;
origin = (0,9);
target = (1,0);
type = Stem;
},
{
horizontal = 1;
origin = (1,1);
target = (0,0);
type = Stem;
},
{
horizontal = 1;
origin = (0,4);
target = down;
type = TopGhost;
},
{
horizontal = 1;
origin = (0,8);
target = up;
type = BottomGhost;
}
);
layerId = "C858EFCA-0EF1-49E8-8937-16326EFE75E3";
shapes = (
{
closed = 1;
nodes = (
(87.22,339.48,l),
(87.22,451.88,ls),
(87.22,467.45,o),
(74.57,480.1,o),
(59,480.1,c),
(59,28.22,ls),
(59,12.64,o),
(71.64,0,o),
(87.22,0,c),
(87.22,140.62,l),
(304.48,140.62,ls),
(356.06,140.62,o),
(398.04,185.23,o),
(398.04,240.06,cs),
(398.04,294.89,o),
(356.06,339.49,o),
(304.48,339.48,c)
);
},
{
closed = 1;
nodes = (
(87.22,168.82,l),
(87.22,311.26,l),
(304.48,311.26,ls),
(340.51,311.26,o),
(369.82,279.32,o),
(369.82,240.05,cs),
(369.82,200.78,o),
(340.51,168.82,o),
(304.48,168.82,c)
);
}
);
width = 429;
}
);
leftKerningGroup = m2;
unicode = 222;
},
{
glyphname = germandbls;
layers = (
{
hints = (
{
origin = (0,15);
target = (0,20);
type = Stem;
},
{
horizontal = 1;
origin = (0,20);
target = (0,12);
type = Stem;
},
{
horizontal = 1;
origin = (0,45);
target = up;
type = BottomGhost;
}
);
layerId = "C858EFCA-0EF1-49E8-8937-16326EFE75E3";
shapes = (
{
closed = 1;
nodes = (
(258.34,312.06,o),
(265.23,335.51,o),
(279.03,371.98,cs),
(289.07,398.55,o),
(299.46,426.02,o),
(286.46,449.12,cs),
(277.48,465.06,o),
(258.99,475.43,o),
(229.95,480.84,c),
(229.11,480.92,o),
(228.22,480.99,o),
(227.36,481.08,c),
(86.11,481.08,l),
(78.204,481,o),
(72,474.848,o),
(72,466.97,c),
(72,29.06,ls),
(72,13.48,o),
(84.64,0.84,o),
(100.23,0.84,c),
(100.23,452.86,l),
(226.03,452.86,l),
(245.35,449.12,o),
(257.41,443.19,o),
(261.87,435.26,cs),
(268.4,423.66,o),
(260.74,403.4,o),
(251.021,377.681,cs),
(239.68,347.67,o),
(223.55,305,o),
(260.28,272.89,cs),
(342.32,201.15,o),
(375.41,130.55,o),
(351.07,79.16,cs),
(333.99,43.07,o),
(289.62,22.31,o),
(246.545,29.526,cs),
(225.99,32.97,o),
(183.07,46.58,o),
(167.08,102.92,cs),
(162.92,117.6,o),
(149.23,127.46,o),
(134.07,125.79,c),
(141.396,54.15,o),
(189.069,0.02,o),
(263.1,0.02,c),
(311.59,0.02,o),
(357.15,26.1,o),
(377.362,68.761,cs),
(419.39,157.47,o),
(322.5,256,o),
(278.84,294.12,cs)
);
}
);
width = 425;
}
);
leftKerningGroup = m2;
unicode = 223;
},
{
glyphname = agrave;
layers = (
{
hints = (
{
origin = (1,8);
target = (0,16);
type = Stem;
},
{
horizontal = 1;
origin = (0,9);
target = (1,11);
type = Stem;
},
{
horizontal = 1;
origin = (1,5);
target = (0,3);
type = Stem;
}
);
layerId = "C858EFCA-0EF1-49E8-8937-16326EFE75E3";
shapes = (
{
closed = 1;
nodes = (
(498.601,353.1,l),
(458.161,428.57,o),
(378.591,479.94,o),
(286.981,479.94,c),
(145.451,479.96,o),
(32.531,357.43,o),
(48.236,215.162,cs),
(60.661,102.61,o),
(149.621,13.66,o),
(261.723,1.282,cs),
(362.721,-9.87,o),
(454.261,44.25,o),
(498.601,127.36,c),
(498.601,0,l),
(514.261,0,o),
(526.961,12.7,o),
(526.961,28.36,cs),
(526.961,479.96,l),
(511.301,479.96,o),
(498.601,467.26,o),
(498.601,451.6,c)
);
},
{
closed = 1;
nodes = (
(170.837,28.155,o),
(75.221,122.823,o),
(75.221,239.97,cs),
(75.221,356.72,o),
(170.211,451.72,o),
(286.981,451.72,cs),
(404.128,451.72,o),
(498.795,356.104,o),
(498.795,240.194,cs),
(498.795,124.057,o),
(402.401,28.155,o),
(286.75,28.155,cs)
);
},
{
closed = 1;
nodes = (
(336.961,571.64,l),
(276.911,631.65,ls),
(265.891,642.67,o),
(248.021,642.67,o),
(237,631.65,c),
(298.69,569.98,ls),
(308.81,559.88,o),
(325.19,559.88,o),
(335.311,569.99,cs)
);
}
);
width = 599;
}
);
leftKerningGroup = agrave;
unicode = 224;
},
{
glyphname = aacute;
layers = (
{
hints = (
{
origin = (0,20);
target = (0,17);
type = Stem;
},
{
horizontal = 1;
origin = (0,9);
target = (0,16);
type = Stem;
},
{
horizontal = 1;
origin = (1,5);
target = (0,3);
type = Stem;
}
);
layerId = "C858EFCA-0EF1-49E8-8937-16326EFE75E3";
shapes = (
{
closed = 1;
nodes = (
(498.601,353.1,l),
(458.161,428.57,o),
(378.591,479.94,o),
(286.981,479.94,cs),
(145.451,479.94,o),
(32.531,357.42,o),
(48.511,212.65,cs),
(60.661,102.61,o),
(149.62,13.659,o),
(259.651,1.51,cs),
(362.72,-9.871,o),
(454.261,44.25,o),
(498.601,127.36,c),
(498.601,0,l),
(514.261,0,o),
(526.961,12.7,o),
(526.961,28.36,cs),
(526.961,479.96,l),
(511.301,479.96,o),
(498.601,467.26,o),
(498.601,451.6,c)
);
},
{
closed = 1;
nodes = (
(175.751,22.78,o),
(75.221,119.85,o),
(75.221,239.97,cs),
(75.221,356.72,o),
(170.211,451.72,o),
(286.981,451.72,cs),
(407.101,451.72,o),
(504.171,351.19,o),
(498.501,229.85,cs),
(493.461,122.12,o),
(404.821,33.49,o),
(297.101,28.45,cs)
);
},
{
closed = 1;
nodes = (
(336.941,631.65,l),
(325.921,642.67,o),
(308.061,642.67,o),
(297.041,631.65,cs),
(236.991,571.63,l),
(238.641,569.98,ls),
(248.761,559.86,o),
(265.141,559.86,o),
(275.251,569.98,c)
);
}
);
width = 599;
}
);
unicode = 225;
},
{
glyphname = acircumflex;
layers = (
{
hints = (
{
origin = (0,20);
target = (0,17);
type = Stem;
},
{
horizontal = 1;
origin = (0,9);
target = (0,16);
type = Stem;
},
{
horizontal = 1;
origin = (1,5);
target = (0,3);
type = Stem;
},
{
horizontal = 1;
origin = (2,9);
target = down;
type = TopGhost;
}
);
layerId = "C858EFCA-0EF1-49E8-8937-16326EFE75E3";
shapes = (
{
closed = 1;
nodes = (
(498.601,353.1,l),
(458.161,428.57,o),
(378.591,479.94,o),
(286.981,479.94,cs),
(145.451,479.94,o),
(32.531,357.42,o),
(48.511,212.65,cs),
(60.661,102.61,o),
(149.62,13.659,o),
(259.651,1.51,cs),
(362.72,-9.871,o),
(454.261,44.25,o),
(498.601,127.36,c),
(498.601,0,l),
(514.261,0,o),
(526.961,12.7,o),
(526.961,28.36,cs),
(526.961,479.96,l),
(511.301,479.96,o),
(498.601,467.26,o),
(498.601,451.6,c)
);
},
{
closed = 1;
nodes = (
(175.751,22.78,o),
(75.221,119.85,o),
(75.221,239.97,cs),
(75.221,356.72,o),
(170.211,451.72,o),
(286.981,451.72,cs),
(407.101,451.72,o),
(504.181,351.19,o),
(498.501,229.85,cs),
(493.461,122.12,o),
(404.821,33.49,o),
(297.101,28.45,cs)
);
},
{
closed = 1;
nodes = (
(286.981,611.84,l),
(328.861,569.98,ls),
(338.971,559.88,o),
(355.351,559.88,o),
(365.471,569.98,cs),
(367.121,571.63,l),
(307.071,631.65,ls),
(301.531,637.2,o),
(294.251,639.91,o),
(286.981,639.91,cs),
(279.711,639.91,o),
(272.431,637.2,o),
(266.891,631.65,cs),
(206.841,571.63,l),
(208.491,569.98,ls),
(218.601,559.86,o),
(234.991,559.86,o),
(245.101,569.98,cs)
);
}
);
width = 599;
}
);
unicode = 226;
},
{
glyphname = atilde;
layers = (
{
hints = (
{
origin = (0,20);
target = (0,17);
type = Stem;
},
{
horizontal = 1;
origin = (0,9);
target = (0,16);
type = Stem;
},
{
horizontal = 1;
origin = (1,5);
target = (0,3);
type = Stem;
},
{
horizontal = 1;
origin = (0,17);
target = (2,5);
type = Stem;
}
);
layerId = "C858EFCA-0EF1-49E8-8937-16326EFE75E3";
shapes = (
{
closed = 1;
nodes = (
(498.601,353.07,l),
(458.161,428.54,o),
(378.591,479.91,o),
(286.981,479.91,cs),
(145.451,479.91,o),
(32.531,357.38,o),
(48.511,212.62,cs),
(60.661,102.58,o),
(149.62,13.629,o),
(259.651,1.48,cs),
(362.72,-9.901,o),
(454.261,44.22,o),
(498.601,127.33,c),
(498.601,-0.03,l),
(514.261,-0.03,o),
(526.961,12.67,o),
(526.961,28.33,cs),
(526.961,479.93,l),
(511.301,479.93,o),
(498.601,467.23,o),
(498.601,451.57,c)
);
},
{
closed = 1;
nodes = (
(175.751,22.74,o),
(75.221,119.82,o),
(75.221,239.94,cs),
(75.221,356.69,o),
(170.221,451.69,o),
(286.981,451.69,cs),
(407.101,451.69,o),
(504.181,351.16,o),
(498.501,229.82,cs),
(493.461,122.09,o),
(404.821,33.45,o),
(297.101,28.42,cs)
);
},
{
closed = 1;
nodes = (
(202.071,625.93,o),
(240.251,604.43,o),
(283.551,580.03,cs),
(313.731,563.05,o),
(346.201,544.75,o),
(380.781,544.75,cs),
(406.251,544.75,o),
(432.821,554.68,o),
(460.441,582.36,c),
(449.851,592.93,o),
(433.371,594.24,o),
(420.821,586.07,cs),
(378.861,558.74,o),
(340.691,580.23,o),
(297.391,604.61,cs),
(244.991,634.12,o),
(185.621,667.57,o),
(120.501,602.29,c),
(131.101,591.72,o),
(147.581,590.42,o),
(160.121,598.59,cs)
);
}
);
width = 600;
}
);
leftKerningGroup = atilde;
unicode = 227;
},
{
glyphname = adieresis;
layers = (
{
hints = (
{
origin = (3,8);
target = (3,2);
type = Stem;
},
{
origin = (2,8);
target = (2,2);
type = Stem;
},
{
origin = (1,8);
target = (0,16);
type = Stem;
},
{
horizontal = 1;
origin = (0,9);
target = (0,16);
type = Stem;
},
{
horizontal = 1;
origin = (1,5);
target = (0,3);
type = Stem;
},
{
horizontal = 1;
origin = (2,11);
target = (2,5);
type = Stem;
}
);
layerId = "C858EFCA-0EF1-49E8-8937-16326EFE75E3";
shapes = (
{
closed = 1;
nodes = (
(498.592,353.11,l),
(458.162,428.6,o),
(378.592,479.95,o),
(286.982,479.95,cs),
(145.442,479.95,o),
(32.522,357.43,o),
(48.512,212.66,cs),
(60.662,102.62,o),
(149.622,13.669,o),
(259.652,1.52,cs),
(362.722,-9.861,o),
(454.262,44.26,o),
(498.592,127.38,c),
(498.592,0.03,l),
(514.262,0.03,o),
(526.952,12.73,o),
(526.952,28.39,cs),
(526.952,479.97,l),
(511.292,479.97,o),
(498.592,467.27,o),
(498.592,451.61,c)
);
},
{
closed = 1;
nodes = (
(175.752,22.79,o),
(75.222,119.86,o),
(75.222,239.98,cs),
(75.222,356.74,o),
(170.202,451.74,o),
(286.982,451.74,cs),
(407.092,451.74,o),
(504.171,351.201,o),
(498.492,229.86,cs),
(493.451,122.131,o),
(404.822,33.5,o),
(297.092,28.46,cs)
);
},
{
closed = 1;
nodes = (
(358.862,579.89,o),
(372.292,593.33,o),
(372.292,609.89,cs),
(372.292,626.46,o),
(358.862,639.89,o),
(342.302,639.89,cs),
(325.732,639.89,o),
(312.302,626.46,o),
(312.302,609.89,cs),
(312.302,593.33,o),
(325.732,579.89,o),
(342.302,579.89,cs)
);
},
{
closed = 1;
nodes = (
(254.392,579.89,o),
(267.822,593.32,o),
(267.822,609.89,cs),
(267.822,626.46,o),
(254.392,639.89,o),
(237.832,639.89,cs),
(221.262,639.89,o),
(207.832,626.46,o),
(207.832,609.89,cs),
(207.832,593.32,o),
(221.262,579.89,o),
(237.832,579.89,cs)
);
}
);
width = 599;
}
);
leftKerningGroup = adieresis;
unicode = 228;
},
{
glyphname = aring;
layers = (
{
hints = (
{
origin = (2,8);
target = (3,8);
type = Stem;
},
{
origin = (3,2);
target = (2,2);
type = Stem;
},
{
origin = (0,20);
target = (0,17);
type = Stem;
},
{
horizontal = 1;
origin = (0,9);
target = (0,16);
type = Stem;
},
{
horizontal = 1;
origin = (1,5);
target = (0,3);
type = Stem;
},
{
horizontal = 1;
origin = (2,11);
target = (3,5);
type = Stem;
},
{
horizontal = 1;
origin = (3,11);
target = (2,5);
type = Stem;
}
);
layerId = "C858EFCA-0EF1-49E8-8937-16326EFE75E3";
shapes = (
{
closed = 1;
nodes = (
(498.601,353.11,l),
(458.161,428.6,o),
(378.591,479.95,o),
(286.981,479.95,cs),
(145.451,479.95,o),
(32.531,357.43,o),
(48.511,212.66,cs),
(60.661,102.62,o),
(149.62,13.669,o),
(259.651,1.52,cs),
(362.72,-9.861,o),
(454.261,44.26,o),
(498.601,127.38,c),
(498.601,0.03,l),
(514.261,0.03,o),
(526.961,12.73,o),
(526.961,28.39,cs),
(526.961,479.97,l),
(511.301,479.97,o),
(498.601,467.27,o),
(498.601,451.61,c)
);
},
{
closed = 1;
nodes = (
(175.751,22.79,o),
(75.221,119.86,o),
(75.221,239.98,cs),
(75.221,356.74,o),
(170.221,451.74,o),
(286.981,451.74,cs),
(407.101,451.74,o),
(504.171,351.2,o),
(498.501,229.86,cs),
(493.461,122.13,o),
(404.821,33.5,o),
(297.101,28.46,cs)
);
},
{
closed = 1;
nodes = (
(320.111,521.48,o),
(346.971,547.99,o),
(346.971,580.7,cs),
(346.971,613.4,o),
(320.121,639.9,o),
(286.981,639.9,cs),
(253.841,639.9,o),
(226.991,613.39,o),
(226.991,580.7,cs),
(226.991,548.01,o),
(253.851,521.48,o),
(286.981,521.48,cs)
);
},
{
closed = 1;
nodes = (
(304.501,611.68,o),
(318.751,597.78,o),
(318.751,580.7,cs),
(318.751,563.61,o),
(304.501,549.7,o),
(286.981,549.7,cs),
(269.461,549.7,o),
(255.201,563.6,o),
(255.201,580.7,cs),
(255.201,597.8,o),
(269.461,611.68,o),
(286.981,611.68,c)
);
}
);
width = 599;
}
);
unicode = 229;
},
{
glyphname = ae;
layers = (
{
hints = (
{
origin = (0,26);
target = (0,31);
type = Stem;
},
{
origin = (2,6);
target = (0,3);
type = Stem;
},
{
horizontal = 1;
origin = (0,34);
target = (0,44);
type = Stem;
},
{
horizontal = 1;
origin = (0,23);
target = (0,30);
type = Stem;
},
{
horizontal = 1;
origin = (0,0);
target = (2,6);
type = Stem;
},
{
horizontal = 1;
origin = (2,3);
target = (0,6);
type = Stem;
},
{
horizontal = 1;
origin = (0,13);
target = (0,10);
type = Stem;
}
);
layerId = "C858EFCA-0EF1-49E8-8937-16326EFE75E3";
shapes = (
{
closed = 1;
nodes = (
(977.961,225.41,l),
(978.251,230.25,o),
(978.691,235.06,o),
(978.691,239.97,cs),
(978.691,381.5,o),
(856.151,494.415,o),
(711.381,478.42,cs),
(631.781,469.625,o),
(563.391,420.55,o),
(526.941,352.47,c),
(526.941,494.57,l),
(511.281,494.57,o),
(498.581,481.87,o),
(498.581,466.2,cs),
(498.581,367.71,l),
(458.161,443.19,o),
(378.591,494.57,o),
(286.981,494.57,cs),
(145.451,494.57,o),
(32.531,372.04,o),
(48.511,227.26,cs),
(60.661,117.22,o),
(149.621,28.274,o),
(259.651,16.12,cs),
(362.721,4.734,o),
(454.261,58.86,o),
(498.601,141.98,c),
(498.601,14.62,l),
(514.261,14.62,o),
(526.961,27.32,o),
(526.961,42.99,cs),
(526.961,127.63,l),
(567.281,51.8,o),
(646.831,0.01,o),
(738.711,0.01,cs),
(842.991,0.01,o),
(931.471,66.63,o),
(964.571,159.53,c),
(963.681,159.53,l),
(946.351,159.53,o),
(930.921,149.7,o),
(922.281,134.68,cs),
(884.711,69.4,o),
(813.401,25.911,o),
(732.271,28.33,cs),
(624.541,31.541,o),
(534.941,118.27,o),
(527.611,225.42,c)
);
},
{
closed = 1;
nodes = (
(175.751,37.4,o),
(75.221,134.47,o),
(75.221,254.59,cs),
(75.221,371.35,o),
(170.211,466.35,o),
(286.981,466.35,cs),
(407.101,466.35,o),
(504.181,365.81,o),
(498.501,244.47,cs),
(493.461,136.74,o),
(404.821,48.11,o),
(297.101,43.07,cs)
);
},
{
closed = 1;
nodes = (
(527.461,253.63,l),
(534.531,364.04,o),
(626.541,451.73,o),
(738.701,451.73,cs),
(850.861,451.73,o),
(942.671,364.02,o),
(949.771,253.63,c)
);
}
);
width = 1024;
}
);
rightKerningGroup = e;
unicode = 230;
},
{
glyphname = ccedilla;
layers = (
{
hints = (
{
origin = (0,11);
target = (0,61);
type = Stem;
},
{
horizontal = 1;
origin = (0,33);
target = (0,29);
type = Stem;
},
{
horizontal = 1;
origin = (0,21);
target = (0,40);
type = Stem;
},
{
horizontal = 1;
origin = (0,44);
target = (0,56);
type = Stem;
},
{
horizontal = 1;
origin = (0,64);
target = (0,8);
type = Stem;
}
);
layerId = "C858EFCA-0EF1-49E8-8937-16326EFE75E3";
shapes = (
{
closed = 1;
nodes = (
(338.042,453.278,o),
(394.492,431.09,o),
(436.032,389.93,cs),
(447.012,379.05,o),
(464.112,377.5,o),
(476.292,387.04,c),
(426.452,450.72,o),
(349.372,484.878,o),
(267.732,478.5,cs),
(148.652,469.198,o),
(53.018,370.231,o),
(47.282,250.94,cs),
(41.378,128.141,o),
(128.362,24.32,o),
(243.862,3.19,c),
(194.402,-46.97,ls),
(190.412,-51.02,o),
(189.242,-57.08,o),
(191.442,-62.33,cs),
(193.632,-67.57,o),
(198.762,-70.99,o),
(204.452,-70.99,cs),
(298.292,-70.99,ls),
(314.052,-70.99,o),
(328.462,-82.31,o),
(330.062,-97.98,cs),
(331.892,-116.01,o),
(317.722,-131.28,o),
(300.072,-131.28,c),
(218.702,-131.65,ls),
(203.102,-131.721,o),
(190.482,-144.39,o),
(190.482,-159.99,c),
(300.072,-159.48,l),
(334.182,-159.48,o),
(361.552,-130.07,o),
(358.152,-95.29,cs),
(355.182,-64.96,o),
(327.922,-42.76,o),
(297.462,-42.76,cs),
(238.172,-42.76,l),
(279.752,-0.57,l),
(282.222,-0.64,o),
(284.622,-0.95,o),
(287.112,-0.95,cs),
(351.232,-0.95,o),
(411.522,24.04,o),
(456.872,69.37,c),
(445.922,80.32,o),
(428.742,80.8,o),
(416.492,71.32,cs),
(379.582,42.75,o),
(334.532,27.26,o),
(287.112,27.26,cs),
(281.452,27.26,o),
(275.902,27.69,o),
(270.372,28.13,c),
(269.382,29.1,l),
(268.522,28.23,l),
(157.592,37.94,o),
(70.837,133.36,o),
(75.392,247.76,cs),
(79.727,356.63,o),
(169.392,446.458,o),
(278.242,450.86,cs)
);
}
);
width = 510;
}
);
leftKerningGroup = a2;
unicode = 231;
},
{
glyphname = egrave;
layers = (
{
hints = (
{
origin = (1,6);
target = (0,3);
type = Stem;
},
{
horizontal = 1;
origin = (0,12);
target = (0,21);
type = Stem;
},
{
horizontal = 1;
origin = (0,0);
target = (1,6);
type = Stem;
},
{
horizontal = 1;
origin = (1,3);
target = (0,6);
type = Stem;
}
);
layerId = "C858EFCA-0EF1-49E8-8937-16326EFE75E3";
shapes = (
{
closed = 1;
nodes = (
(526.221,225.41,l),
(526.521,230.25,o),
(526.961,235.06,o),
(526.961,243.339,cs),
(526.961,381.5,o),
(404.431,494.42,o),
(262.164,478.714,cs),
(149.621,466.29,o),
(60.671,377.34,o),
(48.242,264.804,cs),
(32.531,122.54,o),
(145.451,0.01,o),
(286.981,0.01,cs),
(391.251,0.01,o),
(479.731,66.63,o),
(511.941,159.53,c),
(494.621,159.53,o),
(479.181,149.7,o),
(470.551,134.68,cs),
(433.81,70.859,o),
(364.821,28.207,o),
(286.9,28.207,cs),
(177.01,28.207,o),
(83.399,115.513,o),
(75.871,225.42,c)
);
},
{
closed = 1;
nodes = (
(75.741,253.63,l),
(82.811,364.04,o),
(174.821,451.73,o),
(286.981,451.73,cs),
(399.141,451.73,o),
(490.951,364.02,o),
(498.051,253.63,c)
);
},
{
closed = 1;
nodes = (
(336.961,569.94,l),
(276.911,629.95,ls),
(265.891,640.97,o),
(248.021,640.97,o),
(236.991,629.95,c),
(298.691,568.27,ls),
(308.811,558.16,o),
(325.191,558.17,o),
(335.301,568.29,cs)
);
}
);
width = 572;
}
);
leftKerningGroup = agrave;
rightKerningGroup = egrave;
unicode = 232;
},
{
glyphname = eacute;
layers = (
{
hints = (
{
origin = (1,6);
target = (0,3);
type = Stem;
},
{
horizontal = 1;
origin = (0,12);
target = (0,21);
type = Stem;
},
{
horizontal = 1;
origin = (0,0);
target = (1,6);
type = Stem;
},
{
horizontal = 1;
origin = (1,3);
target = (0,6);
type = Stem;
}
);
layerId = "C858EFCA-0EF1-49E8-8937-16326EFE75E3";
shapes = (
{
closed = 1;
nodes = (
(526.211,225.41,l),
(526.511,230.25,o),
(526.941,235.06,o),
(526.941,243.25,cs),
(526.941,381.5,o),
(404.411,494.42,o),
(262.153,478.715,cs),
(149.611,466.29,o),
(60.661,377.33,o),
(48.236,264.796,cs),
(32.531,122.54,o),
(145.451,0.01,o),
(286.981,0.01,cs),
(391.251,0.01,o),
(479.731,66.63,o),
(511.941,159.53,c),
(494.621,159.53,o),
(479.181,149.7,o),
(470.551,134.68,cs),
(433.81,70.859,o),
(364.821,28.207,o),
(286.9,28.207,cs),
(177.01,28.207,o),
(83.399,115.513,o),
(75.871,225.42,c)
);
},
{
closed = 1;
nodes = (
(75.731,253.63,l),
(82.801,364.04,o),
(174.811,451.73,o),
(286.971,451.73,cs),
(399.121,451.73,o),
(490.931,364.02,o),
(498.031,253.63,c)
);
},
{
closed = 1;
nodes = (
(336.941,629.95,l),
(325.921,640.97,o),
(308.061,640.97,o),
(297.041,629.95,cs),
(236.991,569.93,l),
(238.641,568.27,ls),
(248.761,558.16,o),
(265.141,558.16,o),
(275.251,568.27,cs)
);
}
);
width = 572;
}
);
unicode = 233;
},
{
glyphname = ecircumflex;
layers = (
{
hints = (
{
origin = (1,6);
target = (0,3);
type = Stem;
},
{
horizontal = 1;
origin = (0,12);
target = (0,21);
type = Stem;
},
{
horizontal = 1;
origin = (0,0);
target = (1,6);
type = Stem;
},
{
horizontal = 1;
origin = (1,3);
target = (0,6);
type = Stem;
},
{
horizontal = 1;
origin = (2,9);
target = down;
type = TopGhost;
}
);
layerId = "C858EFCA-0EF1-49E8-8937-16326EFE75E3";
shapes = (
{
closed = 1;
nodes = (
(526.221,225.41,l),
(526.521,230.25,o),
(526.961,235.06,o),
(526.961,243.339,cs),
(526.961,381.5,o),
(404.431,494.42,o),
(262.168,478.715,cs),
(149.621,466.29,o),
(60.661,377.33,o),
(48.236,264.792,cs),
(32.531,122.54,o),
(145.451,0.01,o),
(286.981,0.01,cs),
(391.251,0.01,o),
(479.731,66.63,o),
(511.941,159.53,c),
(494.601,159.53,o),
(479.181,149.7,o),
(470.551,134.68,cs),
(433.81,70.859,o),
(364.821,28.207,o),
(286.9,28.207,cs),
(177.01,28.207,o),
(83.399,115.513,o),
(75.871,225.42,c)
);
},
{
closed = 1;
nodes = (
(75.741,253.63,l),
(82.811,364.04,o),
(174.811,451.73,o),
(286.981,451.73,cs),
(399.151,451.73,o),
(490.951,364.02,o),
(498.051,253.63,c)
);
},
{
closed = 1;
nodes = (
(286.981,611.84,l),
(328.861,569.98,ls),
(338.971,559.88,o),
(355.351,559.88,o),
(365.471,569.98,cs),
(367.121,571.63,l),
(307.071,631.65,ls),
(301.531,637.2,o),
(294.251,639.915,o),
(286.981,639.92,cs),
(279.711,639.925,o),
(272.431,637.21,o),
(266.891,631.67,cs),
(206.841,571.65,l),
(208.491,570,ls),
(218.601,559.88,o),
(234.991,559.88,o),
(245.101,569.98,cs)
);
}
);
width = 572;
}
);
rightKerningGroup = egrave;
unicode = 234;
},
{
glyphname = edieresis;
layers = (
{
hints = (
{
origin = (3,8);
target = (3,2);
type = Stem;
},
{
origin = (2,8);
target = (2,2);
type = Stem;
},
{
origin = (1,6);
target = (0,3);
type = Stem;
},
{
horizontal = 1;
origin = (0,12);
target = (0,21);
type = Stem;
},
{
horizontal = 1;
origin = (0,0);
target = (1,6);
type = Stem;
},
{
horizontal = 1;
origin = (1,3);
target = (0,6);
type = Stem;
},
{
horizontal = 1;
origin = (2,11);
target = (2,5);
type = Stem;
}
);
layerId = "C858EFCA-0EF1-49E8-8937-16326EFE75E3";
shapes = (
{
closed = 1;
nodes = (
(526.211,225.41,l),
(526.511,230.25,o),
(526.941,235.06,o),
(526.941,243.25,cs),
(526.941,381.5,o),
(404.411,494.42,o),
(262.153,478.715,cs),
(149.611,466.29,o),
(60.661,377.33,o),
(48.236,264.796,cs),
(32.531,122.54,o),
(145.451,0.01,o),
(286.981,0.01,cs),
(391.251,0.01,o),
(479.731,66.63,o),
(511.941,159.53,c),
(494.621,159.53,o),
(479.181,149.7,o),
(470.551,134.68,cs),
(433.81,70.859,o),
(364.821,28.207,o),
(286.9,28.207,cs),
(177.016,28.207,o),
(83.379,115.507,o),
(75.871,225.42,c)
);
},
{
closed = 1;
nodes = (
(75.731,253.63,l),
(82.801,364.04,o),
(174.811,451.73,o),
(286.971,451.73,cs),
(399.121,451.73,o),
(490.931,364.02,o),
(498.031,253.63,c)
);
},
{
closed = 1;
nodes = (
(355.771,579.93,o),
(369.201,593.36,o),
(369.201,609.93,cs),
(369.201,626.49,o),
(355.771,639.92,o),
(339.201,639.92,cs),
(322.631,639.92,o),
(309.201,626.49,o),
(309.201,609.93,cs),
(309.201,593.36,o),
(322.631,579.93,o),
(339.201,579.93,cs)
);
},
{
closed = 1;
nodes = (
(251.301,579.93,o),
(264.731,593.36,o),
(264.731,609.93,cs),
(264.731,626.49,o),
(251.301,639.92,o),
(234.731,639.92,cs),
(218.161,639.92,o),
(204.731,626.49,o),
(204.731,609.93,cs),
(204.731,593.36,o),
(218.161,579.93,o),
(234.731,579.93,cs)
);
}
);
width = 572;
}
);
leftKerningGroup = adieresis;
unicode = 235;
},
{
glyphname = igrave;
layers = (
{
hints = (
{
origin = (0,7);
target = (0,4);
type = Stem;
},
{
horizontal = 1;
origin = (0,0);
target = up;
type = BottomGhost;
},
{
horizontal = 1;
origin = (0,4);
target = down;
type = TopGhost;
}
);
layerId = "C858EFCA-0EF1-49E8-8937-16326EFE75E3";
shapes = (
{
closed = 1;
nodes = (
(72.47,0,l),
(88.05,0,o),
(100.69,12.64,o),
(100.69,28.22,cs),
(100.69,479.71,l),
(85.1,479.71,o),
(72.47,467.09,o),
(72.47,451.5,c)
);
},
{
closed = 1;
nodes = (
(46.9,629.69,ls),
(35.88,640.71,o),
(18.02,640.71,o),
(7,629.69,c),
(68.69,568.01,ls),
(78.8,557.9,o),
(95.19,557.91,o),
(105.3,568.01,cs),
(106.95,569.66,l)
);
}
);
width = 173;
}
);
unicode = 236;
},
{
glyphname = iacute;
layers = (
{
hints = (
{
origin = (0,7);
target = (0,4);
type = Stem;
},
{
horizontal = 1;
origin = (0,0);
target = up;
type = BottomGhost;
},
{
horizontal = 1;
origin = (0,4);
target = down;
type = TopGhost;
}
);
layerId = "C858EFCA-0EF1-49E8-8937-16326EFE75E3";
shapes = (
{
closed = 1;
nodes = (
(72,0,l),
(87.59,0,o),
(100.22,12.64,o),
(100.22,28.22,cs),
(100.22,479.71,l),
(84.64,479.71,o),
(72,467.09,o),
(72,451.5,c)
);
},
{
closed = 1;
nodes = (
(72,569.66,l),
(73.65,568.01,ls),
(83.75,557.9,o),
(100.15,557.9,o),
(110.27,568.01,cs),
(171.95,629.69,l),
(160.93,640.71,o),
(143.07,640.71,o),
(132.05,629.69,c)
);
}
);
width = 172;
}
);
unicode = 237;
},
{
glyphname = icircumflex;
layers = (
{
hints = (
{
origin = (0,7);
target = (0,4);
type = Stem;
},
{
horizontal = 1;
origin = (0,4);
target = down;
type = TopGhost;
},
{
horizontal = 1;
origin = (0,0);
target = up;
type = BottomGhost;
},
{
horizontal = 1;
origin = (1,3);
target = down;
type = TopGhost;
}
);
layerId = "C858EFCA-0EF1-49E8-8937-16326EFE75E3";
shapes = (
{
closed = 1;
nodes = (
(72.64,0,l),
(88.22,0,o),
(100.86,12.64,o),
(100.86,28.22,cs),
(100.86,479.71,l),
(85.27,479.71,o),
(72.64,467.09,o),
(72.64,451.5,c)
);
},
{
closed = 1;
nodes = (
(107.24,631.41,ls),
(101.69,636.95,o),
(94.41,639.655,o),
(87.14,639.66,cs),
(79.88,639.665,o),
(72.6,636.95,o),
(67.05,631.41,cs),
(7,571.39,l),
(8.65,569.73,ls),
(18.724,559.595,o),
(35.15,559.62,o),
(45.27,569.73,cs),
(87.14,611.6,l),
(129.02,569.73,ls),
(139.14,559.63,o),
(155.52,559.63,o),
(167.29,571.39,c)
);
}
);
width = 174;
}
);
unicode = 238;
},
{
glyphname = idieresis;
layers = (
{
hints = (
{
origin = (1,8);
target = (1,2);
type = Stem;
},
{
origin = (2,7);
target = (2,4);
type = Stem;
},
{
origin = (0,8);
target = (0,2);
type = Stem;
},
{
horizontal = 1;
origin = (0,11);
target = (0,5);
type = Stem;
},
{
horizontal = 1;
origin = (2,4);
target = down;
type = TopGhost;
},
{
horizontal = 1;
origin = (2,0);
target = up;
type = BottomGhost;
}
);
layerId = "C858EFCA-0EF1-49E8-8937-16326EFE75E3";
shapes = (
{
closed = 1;
nodes = (
(156.02,579.68,o),
(169.45,593.11,o),
(169.45,609.68,cs),
(169.45,626.25,o),
(156.02,639.68,o),
(139.45,639.68,cs),
(122.88,639.68,o),
(109.45,626.25,o),
(109.45,609.68,cs),
(109.45,593.11,o),
(122.88,579.68,o),
(139.45,579.68,cs)
);
},
{
closed = 1;
nodes = (
(51.56,579.68,o),
(64.99,593.11,o),
(64.99,609.68,cs),
(64.99,626.25,o),
(51.56,639.68,o),
(34.99,639.68,cs),
(18.43,639.68,o),
(5,626.25,o),
(5,609.68,cs),
(5,593.11,o),
(18.43,579.68,o),
(34.99,579.68,cs)
);
},
{
closed = 1;
nodes = (
(72.7,0,l),
(88.29,0,o),
(100.91,12.64,o),
(100.91,28.22,cs),
(100.91,479.71,l),
(85.34,479.71,o),
(72.7,467.09,o),
(72.7,451.5,c)
);
}
);
width = 174;
}
);
unicode = 239;
},
{
glyphname = eth;
layers = (
{
hints = (
{
origin = (0,30);
target = (1,2);
type = Stem;
},
{
origin = (1,11);
target = (0,36);
type = Stem;
},
{
horizontal = 1;
origin = (0,33);
target = (1,14);
type = Stem;
},
{
horizontal = 1;
origin = (1,5);
target = (0,27);
type = Stem;
},
{
horizontal = 1;
origin = (0,10);
target = down;
type = TopGhost;
}
);
layerId = "C858EFCA-0EF1-49E8-8937-16326EFE75E3";
shapes = (
{
closed = 1;
nodes = (
(360.97,253.95,o),
(307.39,346.34,o),
(260.29,409.43,c),
(299.14,428.85,ls),
(313.08,435.82,o),
(318.73,452.78,o),
(311.76,466.72,c),
(242.67,432.18,l),
(215.21,466.24,o),
(193.14,487.8,o),
(190.69,490.17,c),
(179.91,479,o),
(179.6,461.44,o),
(190.04,449.96,cs),
(197.41,441.84,o),
(206.56,431.35,o),
(216.54,419.11,c),
(177.02,399.36,ls),
(163.08,392.39,o),
(157.42,375.43,o),
(164.39,361.49,c),
(234.29,396.44,l),
(257.89,365.19,o),
(283.46,326.15,o),
(302.69,283.46,c),
(275.04,306.26,o),
(239.61,319.97,o),
(200.96,319.97,c),
(112.63,319.98,o),
(41,248.34,o),
(41,159.99,cs),
(41,71.63,o),
(112.63,0,o),
(200.99,0,cs),
(289.34,0,o),
(360.97,71.62,o),
(360.97,159.99,cs)
);
},
{
closed = 1;
nodes = (
(128.32,28.22,o),
(69.21,87.34,o),
(69.21,160,cs),
(69.21,232.67,o),
(128.31,291.77,o),
(200.98,291.77,cs),
(273.64,291.77,o),
(332.14,233.2,o),
(332.69,161.01,c),
(332.69,160.67,o),
(332.75,160.34,o),
(332.75,160,c),
(332.75,87.35,o),
(273.64,28.24,o),
(200.98,28.23,cs)
);
}
);
width = 410;
}
);
unicode = 240;
},
{
glyphname = ntilde;
layers = (
{
hints = (
{
origin = (0,6);
target = (0,3);
type = Stem;
},
{
origin = (0,17);
target = (0,22);
type = Stem;
},
{
horizontal = 1;
origin = (0,14);
target = (0,25);
type = Stem;
},
{
horizontal = 1;
origin = (0,25);
target = (1,5);
type = Stem;
},
{
horizontal = 1;
origin = (0,7);
target = up;
type = BottomGhost;
}
);
layerId = "C858EFCA-0EF1-49E8-8937-16326EFE75E3";
shapes = (
{
closed = 1;
nodes = (
(199.3,474.723,o),
(135.11,429.96,o),
(100.22,366.87,c),
(100.22,479.95,l),
(84.64,479.95,o),
(72,467.31,o),
(72,451.74,cs),
(72,0,l),
(87.59,0,o),
(100.22,12.64,o),
(100.22,28.22,cs),
(100.22,264.64,ls),
(100.22,370.24,o),
(188.73,455.545,o),
(295.45,450.27,cs),
(395.29,445.335,o),
(471.97,359.19,o),
(471.97,259.22,cs),
(471.97,0.04,l),
(487.56,0.04,o),
(500.19,12.68,o),
(500.19,28.26,cs),
(500.19,264.63,ls),
(500.19,386.24,o),
(398.26,484.503,o),
(275.32,478.46,cs)
);
},
{
closed = 1;
nodes = (
(197.69,625.93,o),
(235.87,604.43,o),
(279.17,580.03,cs),
(309.35,563.05,o),
(341.82,544.75,o),
(376.4,544.75,cs),
(401.87,544.75,o),
(428.44,554.68,o),
(456.07,582.36,c),
(445.47,592.93,o),
(428.99,594.24,o),
(416.45,586.07,cs),
(374.48,558.74,o),
(336.32,580.23,o),
(293.01,604.61,cs),
(240.61,634.12,o),
(181.24,667.57,o),
(116.12,602.29,c),
(126.72,591.72,o),
(143.2,590.42,o),
(155.74,598.59,cs)
);
}
);
width = 563;
}
);
unicode = 241;
},
{
glyphname = ograve;
layers = (
{
hints = (
{
origin = (0,2);
target = (1,2);
type = Stem;
},
{
origin = (1,8);
target = (0,8);
type = Stem;
},
{
horizontal = 1;
origin = (0,5);
target = (1,11);
type = Stem;
},
{
horizontal = 1;
origin = (1,5);
target = (0,11);
type = Stem;
}
);
layerId = "C858EFCA-0EF1-49E8-8937-16326EFE75E3";
shapes = (
{
closed = 1;
nodes = (
(154.45,479.96,o),
(47,372.53,o),
(47,239.98,cs),
(47,107.43,o),
(154.45,0,o),
(286.98,0,cs),
(419.51,0,o),
(526.95,107.45,o),
(526.95,239.98,cs),
(526.95,372.51,o),
(419.51,479.96,o),
(286.98,479.96,cs)
);
},
{
closed = 1;
nodes = (
(170.22,28.22,o),
(75.22,123.21,o),
(75.22,239.98,cs),
(75.22,356.75,o),
(170.22,451.74,o),
(286.98,451.74,cs),
(403.73,451.74,o),
(498.74,356.74,o),
(498.74,239.98,cs),
(498.74,123.22,o),
(403.75,28.22,o),
(286.98,28.22,c)
);
},
{
closed = 1;
nodes = (
(336.95,569.79,l),
(276.9,629.82,ls),
(265.88,640.84,o),
(248.02,640.84,o),
(237,629.82,c),
(298.69,568.14,ls),
(308.81,558.03,o),
(325.19,558.04,o),
(335.3,568.14,c)
);
}
);
width = 574;
}
);
leftKerningGroup = agrave;
unicode = 242;
},
{
glyphname = oacute;
layers = (
{
hints = (
{
origin = (0,2);
target = (1,2);
type = Stem;
},
{
origin = (1,8);
target = (0,8);
type = Stem;
},
{
horizontal = 1;
origin = (0,5);
target = (1,11);
type = Stem;
},
{
horizontal = 1;
origin = (1,5);
target = (0,11);
type = Stem;
}
);
layerId = "C858EFCA-0EF1-49E8-8937-16326EFE75E3";
shapes = (
{
closed = 1;
nodes = (
(154.45,479.96,o),
(47,372.51,o),
(47,239.98,cs),
(47,107.45,o),
(154.45,0,o),
(286.98,0,cs),
(419.51,0,o),
(526.95,107.45,o),
(526.95,239.98,cs),
(526.95,372.51,o),
(419.51,479.96,o),
(286.98,479.96,cs)
);
},
{
closed = 1;
nodes = (
(170.22,28.22,o),
(75.22,123.21,o),
(75.22,239.98,cs),
(75.22,356.75,o),
(170.21,451.74,o),
(286.98,451.74,cs),
(403.75,451.74,o),
(498.74,356.74,o),
(498.74,239.98,cs),
(498.74,123.22,o),
(403.75,28.22,o),
(286.98,28.22,c)
);
},
{
closed = 1;
nodes = (
(336.94,629.82,l),
(325.92,640.84,o),
(308.06,640.84,o),
(297.04,629.82,cs),
(236.99,569.79,l),
(238.64,568.14,ls),
(248.74,558.03,o),
(265.14,558.03,o),
(275.25,568.14,c)
);
}
);
width = 574;
}
);
unicode = 243;
},
{
glyphname = ocircumflex;
layers = (
{
hints = (
{
origin = (0,2);
target = (1,2);
type = Stem;
},
{
origin = (1,8);
target = (0,8);
type = Stem;
},
{
horizontal = 1;
origin = (0,5);
target = (1,11);
type = Stem;
},
{
horizontal = 1;
origin = (1,5);
target = (0,11);
type = Stem;
},
{
horizontal = 1;
origin = (2,9);
target = down;
type = TopGhost;
}
);
layerId = "C858EFCA-0EF1-49E8-8937-16326EFE75E3";
shapes = (
{
closed = 1;
nodes = (
(154.45,479.96,o),
(47,372.51,o),
(47,239.98,cs),
(47,107.45,o),
(154.45,0,o),
(286.98,0,cs),
(419.51,0,o),
(526.95,107.45,o),
(526.95,239.98,cs),
(526.95,372.51,o),
(419.51,479.96,o),
(286.98,479.96,cs)
);
},
{
closed = 1;
nodes = (
(170.22,28.22,o),
(75.22,123.21,o),
(75.22,239.98,cs),
(75.22,356.75,o),
(170.21,451.74,o),
(286.98,451.74,cs),
(403.75,451.74,o),
(498.74,356.74,o),
(498.74,239.98,cs),
(498.74,123.22,o),
(403.73,28.22,o),
(286.98,28.22,c)
);
},
{
closed = 1;
nodes = (
(286.98,611.73,l),
(328.85,569.86,ls),
(338.97,559.76,o),
(355.35,559.76,o),
(365.47,569.86,cs),
(367.12,571.51,l),
(307.07,631.54,ls),
(301.52,637.08,o),
(294.24,639.785,o),
(286.98,639.79,cs),
(279.71,639.795,o),
(272.43,637.08,o),
(266.89,631.54,cs),
(206.83,571.51,l),
(208.49,569.86,ls),
(218.6,559.75,o),
(234.98,559.75,o),
(245.1,569.86,cs)
);
}
);
width = 574;
}
);
unicode = 244;
},
{
glyphname = otilde;
layers = (
{
hints = (
{
origin = (0,2);
target = (1,2);
type = Stem;
},
{
origin = (1,8);
target = (0,8);
type = Stem;
},
{
horizontal = 1;
origin = (0,5);
target = (1,11);
type = Stem;
},
{
horizontal = 1;
origin = (1,5);
target = (0,11);
type = Stem;
},
{
horizontal = 1;
origin = (0,11);
target = (2,5);
type = Stem;
}
);
layerId = "C858EFCA-0EF1-49E8-8937-16326EFE75E3";
shapes = (
{
closed = 1;
nodes = (
(154.45,479.95,o),
(47,372.52,o),
(47,239.98,cs),
(47,107.43,o),
(154.45,0,o),
(286.98,0,cs),
(419.51,0,o),
(526.95,107.45,o),
(526.95,239.98,cs),
(526.95,372.51,o),
(419.51,479.95,o),
(286.98,479.95,c)
);
},
{
closed = 1;
nodes = (
(170.22,28.22,o),
(75.22,123.21,o),
(75.22,239.98,cs),
(75.22,356.75,o),
(170.21,451.74,o),
(286.98,451.74,cs),
(403.75,451.74,o),
(498.74,356.74,o),
(498.74,239.98,cs),
(498.74,123.22,o),
(403.75,28.22,o),
(286.98,28.22,c)
);
},
{
closed = 1;
nodes = (
(198.57,625.83,o),
(236.75,604.33,o),
(280.05,579.94,cs),
(310.23,562.95,o),
(342.7,544.65,o),
(377.28,544.65,cs),
(402.75,544.65,o),
(429.32,554.58,o),
(456.94,582.26,c),
(446.35,592.83,o),
(429.87,594.14,o),
(417.32,585.97,cs),
(375.36,558.64,o),
(337.19,580.13,o),
(293.89,604.52,cs),
(241.49,634.02,o),
(182.11,667.47,o),
(117,602.19,c),
(127.59,591.62,o),
(144.07,590.32,o),
(156.62,598.49,cs)
);
}
);
width = 574;
}
);
leftKerningGroup = atilde;
unicode = 245;
},
{
glyphname = odieresis;
layers = (
{
hints = (
{
origin = (0,2);
target = (1,2);
type = Stem;
},
{
origin = (3,8);
target = (3,2);
type = Stem;
},
{
origin = (2,8);
target = (2,2);
type = Stem;
},
{
origin = (1,8);
target = (0,8);
type = Stem;
},
{
horizontal = 1;
origin = (0,5);
target = (1,11);
type = Stem;
},
{
horizontal = 1;
origin = (1,5);
target = (0,11);
type = Stem;
},
{
horizontal = 1;
origin = (2,11);
target = (2,5);
type = Stem;
}
);
layerId = "C858EFCA-0EF1-49E8-8937-16326EFE75E3";
shapes = (
{
closed = 1;
nodes = (
(154.45,479.95,o),
(47,372.51,o),
(47,239.98,cs),
(47,107.45,o),
(154.45,0,o),
(286.98,0,cs),
(419.51,0,o),
(526.95,107.45,o),
(526.95,239.98,cs),
(526.95,372.51,o),
(419.51,479.95,o),
(286.98,479.95,cs)
);
},
{
closed = 1;
nodes = (
(170.22,28.22,o),
(75.22,123.21,o),
(75.22,239.98,cs),
(75.22,356.75,o),
(170.21,451.74,o),
(286.98,451.74,cs),
(403.75,451.74,o),
(498.74,356.73,o),
(498.74,239.98,cs),
(498.74,123.22,o),
(403.75,28.22,o),
(286.98,28.22,c)
);
},
{
closed = 1;
nodes = (
(355.78,579.78,o),
(369.21,593.21,o),
(369.21,609.78,cs),
(369.21,626.34,o),
(355.78,639.78,o),
(339.21,639.78,cs),
(322.64,639.78,o),
(309.21,626.34,o),
(309.21,609.78,cs),
(309.21,593.21,o),
(322.64,579.78,o),
(339.21,579.78,cs)
);
},
{
closed = 1;
nodes = (
(251.32,579.78,o),
(264.75,593.21,o),
(264.75,609.78,cs),
(264.75,626.34,o),
(251.32,639.78,o),
(234.76,639.78,cs),
(218.19,639.78,o),
(204.76,626.34,o),
(204.76,609.78,cs),
(204.76,593.21,o),
(218.19,579.78,o),
(234.76,579.78,cs)
);
}
);
width = 574;
}
);
leftKerningGroup = adieresis;
unicode = 246;
},
{
glyphname = divide;
layers = (
{
hints = (
{
origin = (1,8);
target = (1,2);
type = Stem;
},
{
horizontal = 1;
origin = (1,11);
target = (1,5);
type = Stem;
},
{
horizontal = 1;
origin = (0,3);
target = (0,0);
type = Stem;
},
{
horizontal = 1;
origin = (2,11);
target = (2,5);
type = Stem;
}
);
layerId = "C858EFCA-0EF1-49E8-8937-16326EFE75E3";
shapes = (
{
closed = 1;
nodes = (
(72.22,298.86,ls),
(56.63,298.86,o),
(44,286.23,o),
(44,270.64,c),
(255.76,270.64,ls),
(271.34,270.64,o),
(283.98,283.28,o),
(283.98,298.86,c)
);
},
{
closed = 1;
nodes = (
(180.56,140,o),
(193.99,153.43,o),
(193.99,170,cs),
(193.99,186.56,o),
(180.56,199.99,o),
(163.99,199.99,cs),
(147.42,199.99,o),
(133.99,186.56,o),
(133.99,170,cs),
(133.99,153.43,o),
(147.42,140,o),
(163.99,140,cs)
);
},
{
closed = 1;
nodes = (
(180.56,358.63,o),
(193.99,372.06,o),
(193.99,388.63,cs),
(193.99,405.19,o),
(180.56,418.62,o),
(163.99,418.62,cs),
(147.42,418.62,o),
(133.99,405.19,o),
(133.99,388.63,cs),
(133.99,372.06,o),
(147.42,358.63,o),
(163.99,358.63,cs)
);
}
);
width = 328;
}
);
unicode = 247;
},
{
glyphname = oslash;
layers = (
{
hints = (
{
origin = (0,10);
target = (1,9);
type = Stem;
},
{
origin = (2,9);
target = (0,22);
type = Stem;
},
{
horizontal = 1;
origin = (0,19);
target = (2,2);
type = Stem;
},
{
horizontal = 1;
origin = (1,2);
target = (0,7);
type = Stem;
},
{
horizontal = 1;
origin = (0,15);
target = up;
type = BottomGhost;
}
);
layerId = "C858EFCA-0EF1-49E8-8937-16326EFE75E3";
shapes = (
{
closed = 1;
nodes = (
(547.91,480.11,l),
(536.89,491.13,o),
(519.02,491.13,o),
(508,480.11,cs),
(457.19,429.29,l),
(414.81,466.99,o),
(359.15,490.09,o),
(297.95,490.09,cs),
(165.42,490.09,o),
(57.98,382.64,o),
(57.98,250.11,cs),
(57.98,188.89,o),
(81.1,133.2,o),
(118.82,90.8,c),
(48,19.95,l),
(67.95,0,l),
(138.78,70.84,l),
(181.15,33.19,o),
(236.79,10.12,o),
(297.94,10.12,cs),
(430.47,10.12,o),
(537.92,117.56,o),
(537.92,250.09,cs),
(537.92,311.27,o),
(514.83,366.94,o),
(477.13,409.32,c)
);
},
{
closed = 1;
nodes = (
(86.176,366.87,o),
(181.18,461.87,o),
(297.95,461.87,cs),
(351.27,461.87,o),
(399.91,441.9,o),
(437.17,409.27,c),
(138.85,110.83,l),
(106.19,148.11,o),
(86.196,196.76,o),
(86.19,250.11,cs)
);
},
{
closed = 1;
nodes = (
(509.71,133.35,o),
(414.72,38.35,o),
(297.95,38.35,cs),
(244.67,38.35,o),
(196.07,58.29,o),
(158.8,90.88,c),
(457.12,389.31,l),
(489.75,352.05,o),
(509.71,303.41,o),
(509.71,250.11,cs)
);
}
);
width = 592;
}
);
unicode = 248;
},
{
glyphname = ugrave;
layers = (
{
hints = (
{
origin = (0,10);
target = (0,7);
type = Stem;
},
{
origin = (0,25);
target = (0,22);
type = Stem;
},
{
horizontal = 1;
origin = (0,14);
target = (0,3);
type = Stem;
},
{
horizontal = 1;
origin = (0,7);
target = down;
type = TopGhost;
}
);
layerId = "C858EFCA-0EF1-49E8-8937-16326EFE75E3";
shapes = (
{
closed = 1;
nodes = (
(461.97,214.08,ls),
(461.97,104.47,o),
(366.6,16.73,o),
(256.429,29.225,cs),
(159.84,40.18,o),
(90.22,123.83,o),
(90.22,219.1,cs),
(90.22,479.95,l),
(74.64,479.95,o),
(62,467.3,o),
(62,451.73,cs),
(62,219.86,ls),
(62,110.13,o),
(142.2,13.76,o),
(253.076,1.208,cs),
(340.95,-8.74,o),
(421.25,37,o),
(461.97,108.17,c),
(461.97,0.01,l),
(477.54,0.01,o),
(490.19,12.65,o),
(490.19,28.23,cs),
(490.19,451.73,ls),
(490.19,467.3,o),
(477.54,479.95,o),
(461.97,479.95,c)
);
},
{
closed = 1;
nodes = (
(326.08,571.66,l),
(266.03,631.67,ls),
(255.01,642.69,o),
(237.13,642.69,o),
(226.11,631.67,c),
(287.81,569.99,ls),
(297.91,559.89,o),
(314.31,559.89,o),
(324.43,570.01,cs)
);
}
);
width = 563;
}
);
unicode = 249;
},
{
glyphname = uacute;
layers = (
{
hints = (
{
origin = (0,10);
target = (0,7);
type = Stem;
},
{
origin = (0,25);
target = (0,22);
type = Stem;
},
{
horizontal = 1;
origin = (0,14);
target = (0,3);
type = Stem;
},
{
horizontal = 1;
origin = (0,7);
target = down;
type = TopGhost;
}
);
layerId = "C858EFCA-0EF1-49E8-8937-16326EFE75E3";
shapes = (
{
closed = 1;
nodes = (
(461.97,214.08,ls),
(461.97,104.47,o),
(366.6,16.73,o),
(256.429,29.225,cs),
(159.84,40.18,o),
(90.22,123.83,o),
(90.22,219.1,cs),
(90.22,479.95,l),
(74.64,479.95,o),
(62,467.3,o),
(62,451.73,cs),
(62,219.86,ls),
(62,110.13,o),
(142.2,13.76,o),
(253.076,1.208,cs),
(340.95,-8.74,o),
(421.25,37,o),
(461.97,108.17,c),
(461.97,0.01,l),
(477.54,0.01,o),
(490.19,12.65,o),
(490.19,28.23,cs),
(490.19,451.73,ls),
(490.19,467.3,o),
(477.54,479.95,o),
(461.97,479.95,c)
);
},
{
closed = 1;
nodes = (
(326.06,631.67,l),
(315.04,642.69,o),
(297.18,642.69,o),
(286.16,631.67,cs),
(226.11,571.65,l),
(227.76,569.99,ls),
(237.88,559.88,o),
(254.26,559.88,o),
(264.38,569.99,cs)
);
}
);
width = 563;
}
);
unicode = 250;
},
{
glyphname = ucircumflex;
layers = (
{
hints = (
{
origin = (0,10);
target = (0,7);
type = Stem;
},
{
origin = (0,25);
target = (0,22);
type = Stem;
},
{
horizontal = 1;
origin = (0,14);
target = (0,3);
type = Stem;
},
{
horizontal = 1;
origin = (0,7);
target = down;
type = TopGhost;
},
{
horizontal = 1;
origin = (1,9);
target = down;
type = TopGhost;
}
);
layerId = "C858EFCA-0EF1-49E8-8937-16326EFE75E3";
shapes = (
{
closed = 1;
nodes = (
(461.96,214.08,ls),
(461.96,104.47,o),
(366.6,16.72,o),
(256.425,29.215,cs),
(159.83,40.17,o),
(90.22,123.83,o),
(90.22,219.1,cs),
(90.22,479.94,l),
(74.63,479.94,o),
(62,467.32,o),
(62,451.73,cs),
(62,219.86,ls),
(62,110.13,o),
(142.2,13.76,o),
(253.077,1.208,cs),
(340.95,-8.74,o),
(421.23,37,o),
(461.95,108.17,c),
(461.95,0,l),
(477.54,0,o),
(490.17,12.65,o),
(490.17,28.22,cs),
(490.17,451.73,ls),
(490.17,467.32,o),
(477.54,479.94,o),
(461.96,479.94,c)
);
},
{
closed = 1;
nodes = (
(276.08,611.79,l),
(317.96,569.92,ls),
(328.08,559.82,o),
(344.46,559.82,o),
(354.58,569.92,cs),
(356.23,571.57,l),
(296.19,631.6,ls),
(290.63,637.14,o),
(283.35,639.85,o),
(276.08,639.85,cs),
(268.82,639.85,o),
(261.54,637.14,o),
(255.99,631.6,cs),
(195.94,571.57,l),
(197.59,569.92,ls),
(207.71,559.81,o),
(224.09,559.81,o),
(234.21,569.92,cs)
);
}
);
width = 563;
}
);
unicode = 251;
},
{
glyphname = udieresis;
layers = (
{
hints = (
{
origin = (2,10);
target = (2,7);
type = Stem;
},
{
origin = (1,8);
target = (1,2);
type = Stem;
},
{
origin = (0,8);
target = (0,2);
type = Stem;
},
{
origin = (2,25);
target = (2,22);
type = Stem;
},
{
horizontal = 1;
origin = (2,14);
target = (2,3);
type = Stem;
},
{
horizontal = 1;
origin = (0,11);
target = (0,5);
type = Stem;
},
{
horizontal = 1;
origin = (2,7);
target = down;
type = TopGhost;
}
);
layerId = "C858EFCA-0EF1-49E8-8937-16326EFE75E3";
shapes = (
{
closed = 1;
nodes = (
(344.88,579.94,o),
(358.31,593.37,o),
(358.31,609.94,cs),
(358.31,626.5,o),
(344.88,639.94,o),
(328.32,639.94,cs),
(311.75,639.94,o),
(298.32,626.5,o),
(298.32,609.94,cs),
(298.32,593.37,o),
(311.75,579.94,o),
(328.32,579.94,cs)
);
},
{
closed = 1;
nodes = (
(240.42,579.94,o),
(253.85,593.37,o),
(253.85,609.94,cs),
(253.85,626.5,o),
(240.42,639.94,o),
(223.85,639.94,cs),
(207.28,639.94,o),
(193.85,626.5,o),
(193.85,609.94,cs),
(193.85,593.37,o),
(207.28,579.94,o),
(223.85,579.94,cs)
);
},
{
closed = 1;
nodes = (
(461.96,214.08,ls),
(461.96,104.47,o),
(366.6,16.72,o),
(256.42,29.221,cs),
(159.83,40.18,o),
(90.22,123.83,o),
(90.22,219.1,cs),
(90.22,479.95,l),
(74.63,479.95,o),
(62,467.32,o),
(62,451.73,cs),
(62,219.86,ls),
(62,110.13,o),
(142.2,13.76,o),
(253.077,1.208,cs),
(340.95,-8.74,o),
(421.23,37,o),
(461.95,108.17,c),
(461.95,0.02,l),
(477.53,0.02,o),
(490.17,12.65,o),
(490.17,28.24,cs),
(490.17,451.73,ls),
(490.17,467.32,o),
(477.53,479.95,o),
(461.96,479.95,c)
);
}
);
width = 563;
}
);
unicode = 252;
},
{
glyphname = yacute;
layers = (
{
hints = (
{
horizontal = 1;
origin = (1,15);
target = up;
type = BottomGhost;
}
);
layerId = "C858EFCA-0EF1-49E8-8937-16326EFE75E3";
shapes = (
{
closed = 1;
nodes = (
(287.93,627.84,l),
(276.91,638.86,o),
(259.05,638.86,o),
(248.03,627.84,cs),
(187.98,567.81,l),
(189.63,566.16,ls),
(199.73,556.05,o),
(216.13,556.05,o),
(226.23,566.16,cs)
);
},
{
closed = 1;
nodes = (
(237.94,47.7,l),
(62.04,458.52,ls),
(57.505,469.097,o),
(47.274,475.49,o),
(36.466,475.635,cs),
(32.641,475.686,o),
(28.743,474.955,o),
(25,473.35,c),
(223.3,10.21,l),
(164.9,-127.13,ls),
(146.81,-170.56,o),
(108.47,-201.01,o),
(72.902,-207.655,cs),
(48.68,-212.18,o),
(37.97,-224.98,o),
(37.97,-239.99,c),
(105.09,-239.99,o),
(165.14,-199.95,o),
(190.9,-138.08,cs),
(450.91,473.36,l),
(447.164,474.962,o),
(443.265,475.691,o),
(439.438,475.639,cs),
(428.626,475.49,o),
(418.39,469.099,o),
(413.86,458.52,cs)
);
}
);
width = 476;
}
);
unicode = 253;
},
{
glyphname = thorn;
layers = (
{
hints = (
{
origin = (0,6);
target = (0,3);
type = Stem;
},
{
origin = (1,8);
target = (0,17);
type = Stem;
},
{
horizontal = 1;
origin = (0,14);
target = (1,11);
type = Stem;
},
{
horizontal = 1;
origin = (1,5);
target = (0,20);
type = Stem;
},
{
horizontal = 1;
origin = (0,6);
target = down;
type = TopGhost;
},
{
horizontal = 1;
origin = (0,10);
target = up;
type = BottomGhost;
}
);
layerId = "C858EFCA-0EF1-49E8-8937-16326EFE75E3";
shapes = (
{
closed = 1;
nodes = (
(155.148,479.941,o),
(122.23,457.76,o),
(100.219,422.923,c),
(100.219,611.711,ls),
(100.219,627.288,o),
(87.577,639.93,o),
(72,639.93,c),
(72,28.219,ls),
(72,12.642,o),
(84.642,0,o),
(100.219,0,c),
(100.219,216.993,l),
(122.23,182.156,o),
(155.148,159.976,o),
(191.989,159.976,cs),
(258.262,159.976,o),
(311.977,231.596,o),
(311.977,319.965,cs),
(311.977,408.334,o),
(258.262,479.941,o),
(191.989,479.941,c)
);
},
{
closed = 1;
nodes = (
(142.238,188.195,o),
(100.219,248.542,o),
(100.219,319.965,cs),
(100.219,391.388,o),
(142.238,451.721,o),
(191.989,451.721,cs),
(241.739,451.721,o),
(283.758,391.388,o),
(283.758,319.965,cs),
(283.758,248.542,o),
(241.725,188.195,o),
(191.989,188.195,cs)
);
}
);
width = 355;
}
);
leftKerningGroup = B;
unicode = 254;
},
{
glyphname = ydieresis;
layers = (
{
hints = (
{
origin = (1,8);
target = (1,2);
type = Stem;
},
{
origin = (0,8);
target = (0,2);
type = Stem;
},
{
horizontal = 1;
origin = (0,11);
target = (0,5);
type = Stem;
},
{
horizontal = 1;
origin = (2,15);
target = up;
type = BottomGhost;
}
);
layerId = "C858EFCA-0EF1-49E8-8937-16326EFE75E3";
shapes = (
{
closed = 1;
nodes = (
(306.76,575.65,o),
(320.19,589.08,o),
(320.19,605.64,cs),
(320.19,622.21,o),
(306.76,635.64,o),
(290.19,635.64,cs),
(273.62,635.64,o),
(260.19,622.21,o),
(260.19,605.64,cs),
(260.19,589.08,o),
(273.62,575.65,o),
(290.19,575.65,cs)
);
},
{
closed = 1;
nodes = (
(202.29,575.65,o),
(215.72,589.08,o),
(215.72,605.64,cs),
(215.72,622.21,o),
(202.29,635.64,o),
(185.72,635.64,cs),
(169.16,635.64,o),
(155.73,622.21,o),
(155.73,605.64,cs),
(155.73,589.08,o),
(169.16,575.65,o),
(185.72,575.65,cs)
);
},
{
closed = 1;
nodes = (
(237.94,47.7,l),
(62.04,458.52,ls),
(57.505,469.097,o),
(47.274,475.49,o),
(36.466,475.635,cs),
(32.641,475.686,o),
(28.743,474.955,o),
(25,473.35,c),
(223.3,10.21,l),
(164.9,-127.13,ls),
(146.81,-170.56,o),
(108.47,-201.01,o),
(72.902,-207.655,cs),
(48.68,-212.18,o),
(37.97,-224.98,o),
(37.97,-239.99,c),
(105.09,-239.99,o),
(165.14,-199.95,o),
(190.9,-138.08,cs),
(450.91,473.38,l),
(447.07,475.02,o),
(443.069,475.744,o),
(439.15,475.648,cs),
(428.444,475.389,o),
(418.355,469.017,o),
(413.86,458.52,cs)
);
}
);
width = 476;
}
);
unicode = 255;
},
{
glyphname = dotlessi;
layers = (
{
hints = (
{
origin = (0,3);
target = (0,0);
type = Stem;
},
{
horizontal = 1;
origin = (0,3);
target = down;
type = TopGhost;
},
{
horizontal = 1;
origin = (0,7);
target = up;
type = BottomGhost;
}
);
layerId = "C858EFCA-0EF1-49E8-8937-16326EFE75E3";
shapes = (
{
closed = 1;
nodes = (
(88.22,371.75,ls),
(88.22,387.34,o),
(75.59,399.97,o),
(60,399.97,c),
(60,28.22,ls),
(60,12.63,o),
(72.63,0,o),
(88.22,0,c)
);
}
);
width = 149;
}
);
unicode = 305;
},
{
glyphname = Lslash;
layers = (
{
hints = (
{
origin = (0,16);
target = (0,1);
type = Stem;
},
{
horizontal = 1;
origin = (0,20);
target = (0,0);
type = Stem;
},
{
horizontal = 1;
origin = (0,7);
target = down;
type = TopGhost;
}
);
layerId = "C858EFCA-0EF1-49E8-8937-16326EFE75E3";
shapes = (
{
closed = 1;
nodes = (
(130.842,28.219,l),
(130.842,301.75,l),
(298.14,472.843,l),
(286.993,483.736,o),
(269.131,483.539,o),
(258.238,472.406,cs),
(130.842,342.103,l),
(130.842,639.93,l),
(115.251,639.93,o),
(102.622,627.288,o),
(102.622,611.711,cs),
(102.622,313.263,l),
(38,247.159,l),
(49.147,236.267,o),
(67.011,236.463,o),
(77.902,247.597,cs),
(102.636,272.881,l),
(102.636,14.11,ls),
(102.636,6.321,o),
(108.958,0,o),
(116.746,0,cs),
(436.711,0,l),
(436.711,15.577,o),
(424.083,28.219,o),
(408.492,28.219,cs)
);
}
);
width = 450;
}
);
unicode = 321;
},
{
glyphname = lslash;
layers = (
{
hints = (
{
origin = (0,14);
target = (0,19);
type = Stem;
},
{
horizontal = 1;
origin = (0,8);
target = down;
type = TopGhost;
},
{
horizontal = 1;
origin = (0,18);
target = up;
type = BottomGhost;
}
);
layerId = "C858EFCA-0EF1-49E8-8937-16326EFE75E3";
shapes = (
{
closed = 1;
nodes = (
(208.94,310.02,l),
(197.92,321.04,o),
(180.06,321.04,o),
(169.04,310.02,cs),
(133.09,274.06,l),
(133.09,451.78,ls),
(133.09,467.36,o),
(120.44,480,o),
(104.87,480,c),
(104.87,245.84,l),
(29,169.96,l),
(40.02,158.94,o),
(57.882,158.938,o),
(68.9,169.96,cs),
(104.87,205.94,l),
(104.87,28.23,ls),
(104.87,12.65,o),
(117.51,0.01,o),
(133.09,0.01,c),
(133.09,234.17,l)
);
}
);
width = 238;
}
);
unicode = 322;
},
{
glyphname = OE;
layers = (
{
hints = (
{
origin = (0,22);
target = (1,2);
type = Stem;
},
{
origin = (1,8);
target = (0,1);
type = Stem;
},
{
origin = (0,15);
target = (0,7);
type = Stem;
},
{
horizontal = 1;
origin = (0,32);
target = (0,0);
type = Stem;
},
{
horizontal = 1;
origin = (0,1);
target = (0,6);
type = Stem;
},
{
horizontal = 1;
origin = (0,7);
target = (0,12);
type = Stem;
},
{
horizontal = 1;
origin = (0,19);
target = down;
type = TopGhost;
},
{
horizontal = 1;
origin = (0,25);
target = up;
type = BottomGhost;
}
);
layerId = "C858EFCA-0EF1-49E8-8937-16326EFE75E3";
shapes = (
{
closed = 1;
nodes = (
(459.764,29.503,l),
(459.764,307.196,l),
(746.148,307.196,ls),
(761.725,307.196,o),
(774.368,319.838,o),
(774.368,335.415,c),
(459.764,335.415,l),
(459.764,612.91,l),
(817.402,612.91,ls),
(832.979,612.91,o),
(845.622,625.553,o),
(845.622,641.13,c),
(445.655,641.13,ls),
(437.866,641.13,o),
(431.545,634.808,o),
(431.545,627.02,cs),
(431.545,470.219,l),
(397.907,571.188,o),
(331.479,639.93,o),
(254.976,639.93,cs),
(144.54,639.93,o),
(55,496.675,o),
(55,319.965,cs),
(55,143.256,o),
(144.54,0,o),
(254.976,0,cs),
(331.479,0,o),
(397.907,68.742,o),
(431.545,169.711,c),
(431.545,15.394,ls),
(431.545,7.605,o),
(437.866,1.284,o),
(445.655,1.284,cs),
(845.622,1.284,l),
(845.622,16.861,o),
(832.993,29.503,o),
(817.402,29.503,c)
);
},
{
closed = 1;
nodes = (
(161.867,28.219,o),
(83.219,161.824,o),
(83.219,319.965,cs),
(83.219,478.106,o),
(161.881,611.711,o),
(254.977,611.711,cs),
(348.072,611.711,o),
(426.734,478.106,o),
(426.734,319.965,cs),
(426.734,161.824,o),
(348.072,28.219,o),
(254.976,28.219,cs)
);
}
);
width = 873;
}
);
rightKerningGroup = E;
unicode = 338;
},
